<svg width="29" height="28" viewBox="0 0 29 28" fill="none" xmlns="http://www.w3.org/2000/svg">
<path fill-rule="evenodd" clip-rule="evenodd" d="M3.22119 6.09448C2.36688 6.09448 1.54756 6.43386 0.943465 7.03795C0.339375 7.64204 0 8.46136 0 9.31567V24.3479C0 25.2022 0.339375 26.0215 0.943465 26.6256C1.54756 27.2297 2.36688 27.5691 3.22119 27.5691H18.2534C19.1077 27.5691 19.927 27.2297 20.5311 26.6256C21.1352 26.0215 21.4746 25.2022 21.4746 24.3479V9.31567C21.4746 8.46136 21.1352 7.64204 20.5311 7.03795C19.927 6.43386 19.1077 6.09448 18.2534 6.09448H3.22119ZM14.3257 17.199L19.3271 22.2004V23.2742C19.3271 23.8437 19.1009 24.3899 18.6982 24.7927C18.2954 25.1954 17.7492 25.4216 17.1797 25.4216H4.29492C3.59485 25.4216 3.10845 25.1843 2.77881 24.8536L11.3708 17.1206C11.7797 16.7528 12.3141 16.5559 12.8639 16.5705C13.4137 16.5851 13.9369 16.81 14.3257 17.199ZM6.44238 10.3894C5.87284 10.3894 5.32662 10.6157 4.9239 11.0184C4.52117 11.4211 4.29492 11.9673 4.29492 12.5369C4.29492 13.1064 4.52117 13.6526 4.9239 14.0553C5.32662 14.4581 5.87284 14.6843 6.44238 14.6843C7.01192 14.6843 7.55814 14.4581 7.96087 14.0553C8.36359 13.6526 8.58984 13.1064 8.58984 12.5369C8.58984 11.9673 8.36359 11.4211 7.96087 11.0184C7.55814 10.6157 7.01192 10.3894 6.44238 10.3894Z" fill="#D0D0D0"/>
<circle cx="21.3297" cy="6.70373" r="6.27713" fill="#D0D0D0" stroke="white" stroke-width="0.853202"/>
<path d="M19.0947 6.77563H23.4918" stroke="white" stroke-width="0.853202" stroke-linecap="round"/>
<path d="M21.2573 4.46875V8.9379" stroke="white" stroke-width="0.853202" stroke-linecap="round"/>
</svg>
