<svg width="23" height="26" viewBox="0 0 23 26" fill="none" xmlns="http://www.w3.org/2000/svg">
<path d="M1.3292 24.7511L1.33383 24.7549C1.45657 24.8586 1.59859 24.9369 1.75171 24.9855C1.90483 25.034 2.06604 25.0518 2.22607 25.0379C2.3607 25.0259 2.49246 24.9919 2.61609 24.9372L9.34783 21.9717L21.4901 7.48233C22.2324 6.59649 22.5924 5.45205 22.4909 4.30079C22.3894 3.14952 21.8347 2.08574 20.9488 1.34345C20.063 0.601168 18.9186 0.241185 17.7673 0.342699C16.616 0.444212 15.5523 0.998905 14.81 1.88475L2.66765 16.3742L0.92544 23.5206C0.870314 23.7429 0.878953 23.9763 0.950366 24.1939C1.02178 24.4115 1.15308 24.6046 1.3292 24.7511ZM16.0132 2.89298C16.4891 2.3295 17.1689 1.97755 17.9037 1.91421C18.6385 1.85087 19.3685 2.0813 19.9338 2.55504C20.4991 3.02877 20.8536 3.70721 20.9198 4.44179C20.9859 5.17637 20.7583 5.90723 20.2867 6.47432L18.69 8.37969L14.4164 4.79836L16.0132 2.89298ZM4.10619 17.1015L13.4081 6.00148L17.6817 9.58282L8.37974 20.6828L2.61372 23.2229L4.10619 17.1015Z" fill="#4F4F4F" stroke="#4F4F4F" stroke-width="0.3"/>
</svg>
