<svg width="24" height="27" viewBox="0 0 24 27" fill="none" xmlns="http://www.w3.org/2000/svg">
<path d="M21.5302 4.4375V16.8125C21.5302 17.8687 20.6739 18.725 19.6177 18.725C17.6364 18.725 16.0302 20.3312 16.0302 22.3125C16.0302 23.3687 15.1739 24.225 14.1177 24.225H4.49268C3.43643 24.225 2.58018 23.3687 2.58018 22.3125V4.4375C2.58018 3.38126 3.43643 2.525 4.49268 2.525H19.6177C20.6739 2.525 21.5302 3.38126 21.5302 4.4375ZM19.6177 20.4C19.9926 20.4 20.3542 20.3424 20.6942 20.2356C19.9917 21.5824 18.8876 22.6865 17.5408 23.389C17.6476 23.049 17.7052 22.6874 17.7052 22.3125C17.7052 21.2563 18.5614 20.4 19.6177 20.4ZM4.49268 0.85C2.51135 0.85 0.905176 2.45618 0.905176 4.4375V22.3125C0.905176 24.2938 2.51135 25.9 4.49268 25.9H14.1177C19.1366 25.9 23.2052 21.8314 23.2052 16.8125V4.4375C23.2052 2.45618 21.599 0.85 19.6177 0.85H4.49268ZM6.40518 8.5625C6.40518 9.02504 6.78014 9.4 7.24268 9.4H16.8677C17.3302 9.4 17.7052 9.02504 17.7052 8.5625C17.7052 8.09996 17.3302 7.725 16.8677 7.725H7.24268C6.78014 7.725 6.40518 8.09996 6.40518 8.5625ZM6.40518 12.6875C6.40518 13.15 6.78014 13.525 7.24268 13.525H16.8677C17.3302 13.525 17.7052 13.15 17.7052 12.6875C17.7052 12.225 17.3302 11.85 16.8677 11.85H7.24268C6.78014 11.85 6.40518 12.225 6.40518 12.6875ZM6.40518 16.8125C6.40518 17.275 6.78014 17.65 7.24268 17.65H14.1177C14.5802 17.65 14.9552 17.275 14.9552 16.8125C14.9552 16.35 14.5802 15.975 14.1177 15.975H7.24268C6.78014 15.975 6.40518 16.35 6.40518 16.8125Z" fill="#FF5520" stroke="#FF5520" stroke-width="0.3"/>
</svg>
