<svg width="50" height="50" viewBox="0 0 50 50" fill="none" xmlns="http://www.w3.org/2000/svg">
<rect x="0.909058" width="49.0909" height="49.0909" rx="24.5455" fill="white"/>
<g clip-path="url(#clip0_1337_3209)">
<path d="M38.3928 25.005C38.3928 23.9199 38.3045 23.128 38.1135 22.3069H25.6909V27.2045H32.9827C32.8357 28.4217 32.0418 30.2547 30.2777 31.4864L30.2529 31.6503L34.1807 34.6854L34.4528 34.7125C36.952 32.4102 38.3928 29.0229 38.3928 25.005Z" fill="#4285F4"/>
<path d="M25.6909 37.9087C29.2633 37.9087 32.2623 36.7355 34.4528 34.712L30.2777 31.4859C29.1604 32.263 27.6608 32.8056 25.6909 32.8056C22.192 32.8056 19.2224 30.5035 18.1638 27.3214L18.0087 27.3346L13.9245 30.4873L13.8711 30.6354C16.0469 34.9465 20.516 37.9087 25.6909 37.9087Z" fill="#34A853"/>
<path d="M18.1639 27.3219C17.8846 26.5007 17.7229 25.6208 17.7229 24.7117C17.7229 23.8025 17.8846 22.9227 18.1492 22.1015L18.1418 21.9266L14.0065 18.7233L13.8712 18.7875C12.9744 20.5765 12.4599 22.5854 12.4599 24.7117C12.4599 26.8379 12.9744 28.8468 13.8712 30.6358L18.1639 27.3219Z" fill="#FBBC05"/>
<path d="M25.691 16.6171C28.1754 16.6171 29.8513 17.6876 30.807 18.5821L34.5411 14.9455C32.2477 12.8192 29.2633 11.5142 25.691 11.5142C20.5161 11.5142 16.0469 14.4762 13.8712 18.7874L18.1492 22.1014C19.2225 18.9194 22.1921 16.6171 25.691 16.6171Z" fill="#EB4335"/>
</g>
<defs>
<clipPath id="clip0_1337_3209">
<rect width="25.9453" height="26.4858" fill="white" transform="translate(12.4599 11.5142)"/>
</clipPath>
</defs>
</svg>
