<svg width="42" height="49" viewBox="0 0 42 49" fill="none" xmlns="http://www.w3.org/2000/svg">
<g clip-path="url(#clip0_2293_7405)">
<path d="M38.3013 12.8124C38.1345 12.7262 37.964 12.6613 37.7876 12.6082L38.6133 11.0493C39.625 9.13863 38.8701 6.76776 36.9235 5.77174L30.2339 2.34111C28.2909 1.34627 25.8799 2.08856 24.8681 3.99919L23.1003 7.33186L23.1399 7.34956L19.4303 14.343C19.3619 14.343 19.2971 14.3454 19.2275 14.3572L14.4053 15.031C14.2397 15.0546 14.0693 14.9932 13.9541 14.8729L10.6549 11.3502C10.2985 10.9702 9.76081 10.8215 9.25675 10.9667C8.74909 11.1118 8.37945 11.5237 8.29064 12.0323L7.45054 16.7504C7.42294 16.9145 7.31373 17.0549 7.15891 17.1222L2.7316 19.1178C2.25275 19.3337 1.94552 19.7916 1.93111 20.3109C1.91791 20.8301 2.19634 21.3046 2.662 21.5441L6.96689 23.7852C7.11811 23.8642 7.21772 24.0082 7.23692 24.1746L7.80098 28.9329C7.86099 29.4486 8.21023 29.8782 8.70709 30.0516C8.7959 30.0847 8.89191 30.1059 8.98312 30.1189C9.39837 30.1756 9.81842 30.0434 10.1244 29.7495L12.4323 27.5533L8.03501 35.8508L9.95163 45.7013C10.0536 46.2229 10.3849 46.6596 10.8625 46.905C11.0462 46.9971 11.2382 47.0573 11.435 47.0844C11.753 47.1281 12.0843 47.0844 12.3891 46.9499L21.7022 42.8572L30.5832 26.1053L31.7413 26.0699C32.6978 26.0404 33.3219 25.1553 33.1239 24.3139C35.0861 24.5983 37.5236 23.0323 38.9722 20.3864C40.6631 17.2909 40.3643 13.9004 38.3061 12.8135H38.3025L38.3013 12.8124Z" fill="white" stroke="white" stroke-width="4" stroke-miterlimit="10"/>
<path d="M11.2033 48.7325C10.8193 48.6805 10.4461 48.5637 10.0932 48.3867C9.1403 47.8981 8.48863 47.0355 8.29061 46.0135L6.26357 35.5953L8.33741 31.682C8.2582 31.6596 8.18139 31.6348 8.10698 31.6077C7.03046 31.2336 6.25517 30.2765 6.12196 29.1223L5.6299 24.9718L1.87347 23.0164C0.840153 22.4841 0.212481 21.4314 0.242485 20.2702C0.271288 19.1125 0.956566 18.0917 2.02709 17.6078L5.89273 15.866L6.62601 11.7473C6.82524 10.6073 7.65333 9.6951 8.78626 9.37174C9.90599 9.04721 11.1025 9.3741 11.9006 10.225L14.7809 13.3004L18.3418 12.8024L20.8188 8.13143L21.6013 6.56304L23.3691 3.23037C24.8117 0.506637 28.2417 -0.554297 31.0164 0.865395L37.7072 4.2972C39.0489 4.98285 40.039 6.14528 40.4939 7.56851C40.9487 8.99056 40.8143 10.4988 40.1158 11.8181L40.0246 11.9904C40.9895 12.8649 41.5968 14.1654 41.7324 15.7031C41.886 17.4521 41.436 19.3957 40.4639 21.1742C39.0381 23.7787 36.8071 25.5288 34.5652 25.9254C34.4656 26.1366 34.342 26.3384 34.1944 26.5272C33.6183 27.2636 32.7434 27.7026 31.7953 27.731L31.6273 27.7357L22.9323 44.1382L13.0816 48.4681C12.4935 48.7278 11.8442 48.8186 11.2045 48.7325H11.2033ZM9.80758 36.1075L11.6138 45.3892C11.6174 45.4081 11.6222 45.4187 11.6462 45.4305H11.6474H11.7002L20.4756 41.5738L29.5414 24.4714L31.4124 24.4148L30.9192 22.313L33.3723 22.6682H33.3843C34.492 22.8205 36.3246 21.717 37.4851 19.5987C38.1392 18.4032 38.4585 17.0874 38.3624 15.9911C38.2904 15.1732 37.994 14.5608 37.5451 14.2999L37.5235 14.2893C37.4575 14.2551 37.3831 14.2268 37.2919 14.1985L35.3525 13.6096L37.1167 10.2804C37.3975 9.74938 37.4515 9.14162 37.2679 8.56689C37.0843 7.99217 36.6859 7.52484 36.1458 7.24869L29.4538 3.81689C28.3365 3.24453 26.9515 3.67055 26.3707 4.76807L25.4238 6.55242L24.6425 8.11963L20.4504 16.0229L19.4459 16.0088L14.6465 16.6803C13.9397 16.7817 13.2184 16.5327 12.7227 16.0135L9.84838 12.9452L9.1199 17.039C9.00229 17.7447 8.52463 18.3513 7.84415 18.6463L4.02292 20.3693L7.76254 22.3165C8.40702 22.6552 8.83907 23.2783 8.92188 23.9864L9.41153 28.1169L18.7606 19.2199L9.81118 36.1075H9.80758ZM8.94468 28.5582C8.94468 28.5582 8.94348 28.5594 8.94228 28.5606L8.94468 28.5582ZM5.55789 24.3676C5.55789 24.3676 5.55789 24.37 5.55789 24.3711V24.3676ZM5.78592 16.4572C5.78472 16.4655 5.78232 16.4737 5.78112 16.4832L5.78592 16.4572ZM6.45439 15.6111C6.44479 15.6158 6.43399 15.6193 6.42439 15.6252L6.45439 15.6111ZM19.5047 15.9993L19.4723 16.004C19.4831 16.004 19.4939 16.0017 19.5047 15.9993ZM14.1701 13.3853C14.1701 13.3853 14.1653 13.3853 14.1617 13.3853H14.1701Z" fill="white"/>
<path d="M3.44805 20.0708H3.45045M11.2033 48.7325C10.8193 48.6805 10.4461 48.5637 10.0932 48.3867C9.1403 47.8981 8.48863 47.0355 8.29061 46.0135L6.26357 35.5953L8.33741 31.682C8.2582 31.6596 8.18139 31.6348 8.10698 31.6077C7.03046 31.2336 6.25517 30.2765 6.12196 29.1223L5.6299 24.9718L1.87347 23.0164C0.840153 22.4841 0.212481 21.4314 0.242485 20.2702C0.271288 19.1125 0.956566 18.0917 2.02709 17.6078L5.89273 15.866L6.62601 11.7473C6.82524 10.6073 7.65333 9.6951 8.78626 9.37174C9.90599 9.04721 11.1025 9.3741 11.9006 10.225L14.7809 13.3004L18.3418 12.8024L20.8188 8.13143L21.6013 6.56304L23.3691 3.23037C24.8117 0.506637 28.2417 -0.554297 31.0164 0.865395L37.7072 4.2972C39.0489 4.98285 40.039 6.14528 40.4939 7.56851C40.9487 8.99056 40.8143 10.4988 40.1158 11.8181L40.0246 11.9904C40.9895 12.8649 41.5968 14.1654 41.7324 15.7031C41.886 17.4521 41.436 19.3957 40.4639 21.1742C39.0381 23.7787 36.8071 25.5288 34.5652 25.9254C34.4656 26.1366 34.342 26.3384 34.1944 26.5272C33.6183 27.2636 32.7434 27.7026 31.7953 27.731L31.6273 27.7357L22.9323 44.1382L13.0816 48.4681C12.4935 48.7278 11.8442 48.8186 11.2045 48.7325H11.2033ZM9.80758 36.1075L11.6138 45.3892C11.6174 45.4081 11.6222 45.4187 11.6462 45.4305H11.6474H11.7002L20.4756 41.5738L29.5414 24.4714L31.4124 24.4148L30.9192 22.313L33.3723 22.6682H33.3843C34.492 22.8205 36.3246 21.717 37.4851 19.5987C38.1392 18.4032 38.4585 17.0874 38.3624 15.9911C38.2904 15.1732 37.994 14.5608 37.5451 14.2999L37.5235 14.2893C37.4575 14.2551 37.3831 14.2268 37.2919 14.1985L35.3525 13.6096L37.1167 10.2804C37.3975 9.74938 37.4515 9.14162 37.2679 8.56689C37.0843 7.99217 36.6859 7.52484 36.1458 7.24869L29.4538 3.81689C28.3365 3.24453 26.9515 3.67055 26.3707 4.76807L25.4238 6.55242L24.6425 8.11963L20.4504 16.0229L19.4459 16.0088L14.6465 16.6803C13.9397 16.7817 13.2184 16.5327 12.7227 16.0135L9.84838 12.9452L9.1199 17.039C9.00229 17.7447 8.52463 18.3513 7.84415 18.6463L4.02292 20.3693L7.76254 22.3165C8.40702 22.6552 8.83907 23.2783 8.92188 23.9864L9.41153 28.1169L18.7606 19.2199L9.81118 36.1075H9.80758ZM8.94468 28.5582C8.94468 28.5582 8.94348 28.5594 8.94228 28.5606L8.94468 28.5582ZM5.55789 24.3676C5.55789 24.3676 5.55789 24.37 5.55789 24.3711V24.3676ZM5.78592 16.4572C5.78472 16.4655 5.78232 16.4737 5.78112 16.4832L5.78592 16.4572ZM6.45439 15.6111C6.44479 15.6158 6.43399 15.6193 6.42439 15.6252L6.45439 15.6111ZM19.5047 15.9993L19.4723 16.004C19.4831 16.004 19.4939 16.0017 19.5047 15.9993ZM14.1701 13.3853C14.1701 13.3853 14.1653 13.3853 14.1617 13.3853H14.1701Z" stroke="white" stroke-width="4" stroke-miterlimit="10"/>
<path d="M8.43701 35.7842L10.3584 45.6323C10.5252 46.482 11.453 46.9564 12.2582 46.6048L21.5701 42.5156" fill="white"/>
<path d="M11.4602 47.0918C11.2634 47.0647 11.0714 47.0057 10.8877 46.9124C10.4101 46.667 10.0789 46.2268 9.97684 45.7099L8.05542 35.8617L8.81871 35.7178L10.7401 45.5647C10.7977 45.8539 10.9802 46.1017 11.2478 46.2339C11.5142 46.3708 11.8251 46.379 12.0987 46.2575L21.4105 42.1683L21.7262 42.8658L12.4143 46.9549C12.1095 47.0895 11.7782 47.1331 11.4602 47.0895V47.0918Z" fill="black"/>
<path d="M9.7439 41.1768L10.7112 46.1038C10.7964 46.531 11.2585 46.7658 11.6629 46.59L16.3278 44.546" fill="#FF5520"/>
<path d="M10.8349 47.0103C11.0293 47.1083 11.2333 47.172 11.4433 47.2015C11.7818 47.2475 12.1346 47.2015 12.4586 47.0575L21.7705 42.9684L21.8725 42.9236L21.8269 42.8221L21.5113 42.1234L21.4657 42.0219L21.3625 42.0668L12.0506 46.1559C11.8094 46.2645 11.5345 46.2562 11.2981 46.1359H11.2969C11.0617 46.0178 10.8997 45.8007 10.8493 45.5434L8.92783 35.6965L8.90623 35.5879L8.79582 35.6091L8.03253 35.7531L7.92212 35.7744L7.94372 35.8829L9.86514 45.7299C9.97315 46.281 10.326 46.7495 10.8337 47.0103H10.8349Z" fill="black"/>
<path d="M10.9131 46.8699L10.913 46.87L10.9235 46.8762C11.3593 47.0921 11.9262 47.1181 12.3939 46.911L12.3941 46.911L21.6597 42.8433L21.3852 42.2358L12.1189 46.305C12.1188 46.305 12.1188 46.305 12.1188 46.305C11.8315 46.4326 11.5049 46.424 11.2251 46.2803M10.9131 46.8699L12.0986 46.2593C11.8249 46.3808 11.5141 46.3726 11.2477 46.2357C10.9836 46.1047 10.7976 45.8604 10.74 45.5654L8.81858 35.7184L8.82785 35.7675L8.77902 35.7768M10.9131 46.8699L10.9104 46.8686C10.4474 46.6312 10.1248 46.2061 10.0258 45.7009L8.114 35.9022M10.9131 46.8699L8.114 35.9022M11.2251 46.2803C11.225 46.2803 11.2249 46.2802 11.2248 46.2802L11.2476 46.2357L11.2254 46.2805C11.2253 46.2804 11.2252 46.2804 11.2251 46.2803ZM11.2251 46.2803C10.9471 46.1423 10.7514 45.8849 10.6909 45.575L10.7398 45.5654L10.6909 45.575L8.77902 35.7768M8.77902 35.7768L8.114 35.9022M8.77902 35.7768L8.7695 35.728L8.81857 35.7184L8.114 35.9022M11.3718 45.9926C11.1834 45.8994 11.0514 45.7239 11.0099 45.5133L10.717 47.1324L10.762 47.1549C10.7707 47.1592 10.7794 47.1635 10.7881 47.1677L10.8044 47.1761L10.8046 47.1756C10.9968 47.2666 11.198 47.3278 11.4055 47.358L11.4069 47.3593L11.4234 47.3615C11.7985 47.4123 12.1811 47.3591 12.5269 47.2054L21.8386 43.1164L21.8387 43.1163L22.0439 43.0254L22.09 43.005L22.0692 42.9591L21.57 41.8569L21.5496 41.8118L21.5043 41.8317L11.9848 46.0117L11.9846 46.0118C11.7898 46.0988 11.5668 46.0924 11.3724 45.9929L11.3718 45.9926Z" fill="black" stroke="black" stroke-width="0.1"/>
<path d="M31.4136 3.42043L35.3933 5.46086C37.8764 6.73422 38.8413 9.7518 37.5475 12.1935L21.5593 42.3445L8.57983 35.6898L24.5669 5.53875C25.8618 3.09707 28.9306 2.14825 31.4136 3.42043Z" fill="#FF5520"/>
<path d="M21.6745 42.9623L21.7381 42.9942L21.7945 42.9517L21.7993 42.9482L21.8197 42.9328L21.8317 42.9104L38.7488 11.001C39.7546 9.10217 39.0009 6.74782 37.0698 5.75888L30.2087 2.2421C28.2776 1.25316 25.8834 1.99427 24.8777 3.8931L7.95932 35.8072L7.90771 35.9052L8.00733 35.9559L21.6745 42.9612V42.9623ZM9.26027 35.4862L25.7694 4.34981C26.5206 2.93129 28.304 2.38136 29.7466 3.12011L36.6078 6.63689C38.0504 7.37565 38.6096 9.12931 37.8583 10.5478L21.3493 41.6831L9.25907 35.4851L9.26027 35.4862Z" fill="black"/>
<path d="M30.1331 2.38395C28.2801 1.43442 25.9866 2.14548 25.0215 3.96666L24.9774 3.94324L25.0215 3.96666L8.12646 35.8381L21.7051 42.798L38.6039 10.9262C39.0705 10.046 39.1593 9.03795 38.8549 8.08656C38.5506 7.13519 37.8899 6.35969 36.9943 5.90072L37.0132 5.86394L36.9943 5.90072L30.1331 2.38395ZM30.1331 2.38395L30.156 2.33945L30.1331 2.38395ZM21.7261 43.1702L21.7535 43.1323L21.7777 43.1646L21.8929 43.0785L21.8932 43.0789L21.8981 43.0741L21.9533 43.0198L21.9588 43.0144L21.9624 43.0076L38.8915 11.0746L38.8473 11.0511L38.8915 11.0746C39.3983 10.1185 39.4955 9.02242 39.165 7.98999C38.8345 6.95759 38.1162 6.11395 37.1444 5.61583L30.2832 2.09906L30.2831 2.09904C28.2718 1.06953 25.7827 1.8395 24.734 3.81833L7.71241 35.9296L7.68867 35.9743L7.73378 35.9975L21.6001 43.1053L21.6002 43.1054L21.7261 43.1702ZM21.4184 41.9005L21.4415 41.857L38.0022 10.6238C38.3866 9.89905 38.4598 9.06965 38.2109 8.28978C37.962 7.50868 37.4189 6.87157 36.6835 6.49501L29.8223 2.97825C29.0858 2.60052 28.243 2.5286 27.4505 2.77317C26.6567 3.01776 26.0088 3.55156 25.6257 4.27504C25.6257 4.27505 25.6257 4.27505 25.6257 4.27506L9.06377 35.5106L9.04002 35.5554L9.08514 35.5785L21.3745 41.878L21.4184 41.9005ZM37.7158 10.4743L21.2803 41.468L9.47876 35.4185L25.9144 4.42456L25.9145 4.42453C26.2574 3.77672 26.8372 3.29917 27.5484 3.07997C28.2597 2.86074 29.0143 2.92571 29.6735 3.26314C29.6735 3.26315 29.6735 3.26315 29.6735 3.26315L36.5347 6.77992L36.5347 6.77993C37.1938 7.11734 37.6793 7.68748 37.902 8.38626C38.1248 9.08509 38.0588 9.82647 37.7158 10.4743Z" fill="black" stroke="black" stroke-width="0.1"/>
<path d="M30.0142 3.07809L36.4842 6.39542C38.1152 7.23213 38.7488 9.21356 37.8991 10.8174L36.5454 13.37L24.1636 7.02207L25.5173 4.46946C26.3682 2.86566 28.3833 2.24256 30.0142 3.07809Z" fill="#FFD503"/>
<path d="M36.6882 13.8179L23.7087 7.16322L25.2185 4.31675C25.6722 3.46234 26.4367 2.83216 27.3728 2.54303C28.3089 2.25389 29.3026 2.34004 30.1715 2.78495L36.6414 6.10228C37.5103 6.54837 38.1512 7.30011 38.4452 8.22061C38.7393 9.14111 38.6528 10.1183 38.1992 10.9727L36.6894 13.8203L36.6882 13.8179ZM24.6184 6.88117L36.4014 12.9222L37.5991 10.6635C37.9688 9.96602 38.0396 9.16943 37.7995 8.41769C37.5595 7.66595 37.0363 7.05229 36.327 6.68881L29.857 3.37147C29.1478 3.00799 28.3377 2.93837 27.5732 3.17439C26.8087 3.41042 26.1846 3.92495 25.815 4.62241L24.6172 6.88117H24.6184Z" fill="black"/>
<path d="M27.7436 9.17827L27.704 9.1582L27.6836 9.19715L12.5595 37.7326L12.5391 37.7715L12.5787 37.7916L13.3444 38.1834L13.384 38.2035L13.4044 38.1645L28.5285 9.62907L28.5489 9.59013L28.5093 9.57007L27.7436 9.17827Z" fill="black"/>
<path d="M13.4019 38.2633L13.3227 38.2232L12.4778 37.7901L12.5186 37.7122L27.6847 9.09766L28.61 9.57089L28.568 9.64996L13.4019 38.2633ZM12.5978 37.7523L13.3623 38.1453L28.4864 9.60983L27.7219 9.21803L12.5978 37.7535V37.7523Z" fill="black"/>
<path d="M32.3005 11.5093L32.2609 11.4893L32.2405 11.5282L17.1163 40.0636L17.0959 40.1026L17.1356 40.1226L17.9012 40.5144L17.9408 40.5345L17.9612 40.4956L33.0854 11.9601L33.1058 11.9212L33.0662 11.9011L32.3005 11.5093Z" fill="black"/>
<path d="M17.9588 40.5963L17.8796 40.5562L17.0347 40.1231L17.0755 40.0452L32.2416 11.4307L33.1669 11.9039L33.1249 11.983L17.9588 40.5963ZM17.1547 40.0853L17.9192 40.4783L33.0433 11.9428L32.2788 11.551L17.1547 40.0865V40.0853Z" fill="black"/>
<path d="M10.3947 11.6066L10.4009 11.6133L13.7001 15.136L13.7002 15.1361C13.9002 15.3507 14.1934 15.4534 14.4818 15.4099L14.4824 15.4098L19.3045 14.7359C19.3045 14.7359 19.3045 14.7359 19.3045 14.7359C20.119 14.6219 20.7159 15.4759 20.3101 16.1828L17.9195 20.3581L17.9194 20.3582C17.7756 20.6076 17.7685 20.9168 17.8969 21.1772C17.8969 21.1772 17.8969 21.1773 17.8969 21.1773L20.0403 25.4787L19.9955 25.501L20.0403 25.4787C20.4029 26.2068 19.7582 27.028 18.9502 26.8706L18.9501 26.8706L14.1775 25.9266C14.1775 25.9266 14.1774 25.9265 14.1774 25.9265C13.8889 25.8716 13.5899 25.9548 13.3801 26.1555L13.38 26.1556L9.88287 29.487C9.29114 30.0515 8.29753 29.7055 8.20372 28.895L10.3947 11.6066ZM10.3947 11.6066L10.3922 11.6054C9.83294 11.0173 8.83275 11.3089 8.68902 12.1048L8.689 12.1049L7.84891 16.823L7.84886 16.8233C7.80021 17.1059 7.60994 17.3462 7.341 17.4696C7.34094 17.4696 7.34089 17.4696 7.34084 17.4696L2.91387 19.4651L10.3947 11.6066ZM7.63966 24.1367L8.2037 28.8949L2.91382 19.4651C2.16407 19.8021 2.13493 20.8422 2.86456 21.2202L7.16936 23.4612L7.16955 23.4613C7.42978 23.5954 7.60676 23.8501 7.63963 24.1366L7.63966 24.1367Z" fill="#FFD503" stroke="black" stroke-width="0.1"/>
<path d="M8.98191 30.3211C8.8739 30.307 8.76709 30.281 8.66148 30.2433C8.09261 30.0426 7.69777 29.5517 7.62936 28.9605L7.06649 24.2046C7.05449 24.1042 6.99208 24.0134 6.90087 23.9662L2.59598 21.7251C2.06192 21.449 1.74028 20.9061 1.75829 20.3113C1.77509 19.7165 2.12793 19.1949 2.67639 18.9495L7.1025 16.9539C7.19611 16.9114 7.26332 16.8276 7.28012 16.7332L8.12141 12.0091C8.22703 11.4226 8.65187 10.9565 9.23154 10.7901C9.81001 10.6248 10.4221 10.7924 10.8301 11.2291L14.1293 14.7517C14.2001 14.8273 14.2997 14.8627 14.3957 14.8485L19.2251 14.1735C19.824 14.0897 20.4072 14.3422 20.7469 14.8332C21.0877 15.3229 21.1141 15.9484 20.8177 16.4653L18.4282 20.6394C18.3778 20.7267 18.3754 20.8377 18.421 20.9297L20.5644 25.2313C20.8297 25.7635 20.7649 26.3866 20.3964 26.8575C20.028 27.3272 19.4291 27.5479 18.8398 27.431L14.0657 26.4869C13.9601 26.4645 13.8605 26.4964 13.7885 26.5648L10.2901 29.8987C9.93602 30.2362 9.45597 30.3872 8.98311 30.3223L8.98191 30.3211ZM9.7164 11.969C9.65879 11.9608 9.60958 11.9714 9.58198 11.9785C9.52557 11.995 9.39116 12.0504 9.35996 12.2227L8.51986 16.9397C8.43705 17.433 8.10341 17.8602 7.62936 18.0773L3.19965 20.0753C3.04003 20.1473 3.01843 20.2889 3.01723 20.3467C3.01603 20.4046 3.02803 20.5485 3.18405 20.6288L7.48894 22.8698C7.94979 23.1082 8.25943 23.5543 8.31704 24.0629L8.8799 28.8188C8.9003 28.9935 9.02992 29.0572 9.08512 29.0773C9.14033 29.0962 9.28315 29.1292 9.41036 29.0077L12.9076 25.675C13.2724 25.3245 13.7957 25.1734 14.3081 25.269L19.0847 26.2143C19.2599 26.2509 19.3595 26.1447 19.3955 26.0987C19.4315 26.0526 19.5071 25.9287 19.4303 25.7729L17.2869 21.4714C17.0576 21.01 17.0732 20.4706 17.3277 20.0269L19.7171 15.8528C19.8035 15.7018 19.7363 15.5755 19.7039 15.5283C19.6703 15.4811 19.5743 15.3737 19.4003 15.3973L14.5782 16.0711C14.0741 16.149 13.5556 15.9685 13.1992 15.5885L9.90002 12.0658C9.84001 12.0021 9.774 11.9749 9.7152 11.9678L9.7164 11.969Z" fill="black"/>
<path d="M39.0008 20.3949C40.6929 17.3018 40.3929 13.9113 38.3323 12.8209C36.2704 11.7304 33.2281 13.3543 31.5359 16.4474C29.8437 19.5405 30.1437 22.931 32.2044 24.0214C34.2662 25.1119 37.3086 23.488 39.0008 20.3949Z" fill="white"/>
<path d="M33.1034 24.7367C32.7194 24.6848 32.3497 24.5691 32.0041 24.3862C29.7406 23.1884 29.3638 19.5382 31.164 16.248C32.9642 12.9579 36.2694 11.2549 38.5328 12.4528C39.6598 13.0487 40.357 14.2442 40.4951 15.8197C40.6283 17.3302 40.2298 19.0249 39.3729 20.5909C37.8476 23.3795 35.2397 25.027 33.1034 24.7367ZM37.2895 12.9177C35.5085 12.6746 33.263 14.1675 31.9093 16.6434C30.3299 19.5288 30.5531 22.6738 32.4061 23.6545C34.2579 24.634 37.0507 23.0833 38.6288 20.1979C39.4089 18.7723 39.7726 17.2441 39.6526 15.8928C39.5385 14.6065 38.9985 13.6459 38.132 13.1868C37.868 13.0475 37.5847 12.959 37.2895 12.9189V12.9177Z" fill="#040000"/>
<path d="M36.8971 20.3675C37.8536 18.6197 37.6844 16.7032 36.5202 16.0872C35.3561 15.4711 33.6375 16.3893 32.681 18.137C31.7245 19.8848 31.8937 21.8013 33.0578 22.4162C34.222 23.0322 35.9406 22.1141 36.8971 20.3663V20.3675Z" fill="black"/>
<path d="M34.9528 20.7925L36.4385 21.5784C36.8706 21.8074 37.4094 21.6481 37.6411 21.2232L37.7107 21.0946C37.9435 20.6697 37.7815 20.1398 37.3494 19.9121L35.8637 19.1261C35.4316 18.8972 34.8928 19.0565 34.6611 19.4813L34.5915 19.61C34.3587 20.0348 34.5207 20.5647 34.9528 20.7925Z" fill="white"/>
<path d="M33.1731 17.3129C34.8653 14.2198 34.5653 10.8293 32.5046 9.73883C30.444 8.64839 27.4005 10.2722 25.7083 13.3654C24.0161 16.4585 24.3161 19.849 26.3767 20.9394C28.4386 22.0298 31.4809 20.406 33.1731 17.3129Z" fill="white"/>
<path d="M27.2755 21.6551C26.8915 21.6032 26.5218 21.4876 26.1762 21.3046C23.9128 20.1068 23.5359 16.4567 25.3361 13.1665C27.1351 9.8763 30.4415 8.1722 32.705 9.3712C33.8319 9.96717 34.5292 11.1626 34.6672 12.7381C34.8004 14.2487 34.402 15.9433 33.5451 17.5093C32.0197 20.298 29.413 21.9454 27.2755 21.6551ZM31.4616 9.83617C29.6806 9.59307 27.4352 11.0859 26.0814 13.5618C24.502 16.4472 24.7252 19.5923 26.5783 20.573C28.4301 21.5513 31.2228 20.0018 32.801 17.1164C33.5811 15.6908 33.9447 14.1625 33.8247 12.8113C33.7107 11.5249 33.1706 10.5643 32.3041 10.1052C32.0401 9.96599 31.7568 9.87748 31.4616 9.83735V9.83617Z" fill="#040000"/>
<path d="M31.0692 17.2864C32.0257 15.5387 31.8565 13.6221 30.6924 13.0061C29.5282 12.3901 27.8084 13.3082 26.8531 15.056C25.8966 16.8038 26.0658 18.7203 27.23 19.3363C28.3941 19.9523 30.1127 19.0342 31.0692 17.2864Z" fill="black"/>
<path d="M29.1237 17.7124L30.6094 18.4983C31.0415 18.7273 31.5803 18.568 31.812 18.1431L31.8816 18.0145C32.1144 17.5896 31.9524 17.0598 31.5203 16.832L30.0346 16.046C29.6025 15.8171 29.0637 15.9764 28.832 16.4013L28.7624 16.5299C28.5296 16.9547 28.6916 17.4846 29.1237 17.7124Z" fill="white"/>
<path d="M31.7654 26.0772L27.1472 26.213C26.0191 26.2484 25.2798 25.0682 25.8103 24.0911L27.9969 20.0893C28.5322 19.1121 29.9387 19.0685 30.5352 20.0149L32.9631 23.8763C33.556 24.818 32.8887 26.0407 31.7618 26.0725L31.7654 26.0772Z" fill="white"/>
<path d="M26.8326 26.6107C26.2841 26.5364 25.8005 26.2296 25.4992 25.754C25.138 25.1828 25.1152 24.4877 25.4368 23.8941L27.6235 19.8911C27.9475 19.2999 28.5476 18.9352 29.228 18.914C29.9097 18.8939 30.5326 19.222 30.8926 19.7943L33.3205 23.6569C33.6794 24.2269 33.701 24.9208 33.3769 25.5132C33.1765 25.8791 32.8693 26.1587 32.5032 26.3228L32.6172 26.4632L31.7759 26.4927L27.1578 26.6273C27.0474 26.6308 26.9382 26.6249 26.8314 26.6107H26.8326ZM29.4345 19.7554C29.3757 19.7471 29.3157 19.7448 29.2556 19.7459C28.88 19.7577 28.5488 19.9595 28.3699 20.2853L26.1833 24.2871C26.0057 24.614 26.0189 24.9987 26.2181 25.315C26.4161 25.6289 26.7594 25.8082 27.1338 25.7964L30.907 25.6867L30.9022 25.6808L31.7495 25.6572C32.1252 25.6466 32.4564 25.446 32.6352 25.1202C32.8141 24.7933 32.8021 24.411 32.604 24.0959L30.1762 20.2333C30.0093 19.9678 29.7393 19.7967 29.4357 19.7554H29.4345Z" fill="#060001"/>
</g>
<defs>
<clipPath id="clip0_2293_7405">
<rect width="42" height="49" fill="white"/>
</clipPath>
</defs>
</svg>
