<svg width="16" height="16" viewBox="0 0 16 16" fill="none" xmlns="http://www.w3.org/2000/svg">
<g clip-path="url(#clip0_1110_3871)">
<path fill-rule="evenodd" clip-rule="evenodd" d="M0.666504 5.87579C0.666504 3.38399 2.52696 1.27783 4.90609 1.27783C6.09981 1.27783 7.13319 1.77319 7.99984 2.6695C8.86649 1.77319 9.89986 1.27783 11.0936 1.27783C13.4727 1.27783 15.3332 3.38399 15.3332 5.87579C15.3332 7.17182 15.1295 8.23905 14.3704 9.36201C13.6461 10.4335 12.4416 11.5149 10.5726 12.9415L7.99984 14.7223L5.42682 12.9413C3.55797 11.5148 2.35354 10.4335 1.62924 9.36201C0.870135 8.23904 0.666504 7.17182 0.666504 5.87579Z" fill="#FF5520"/>
<path d="M7.99984 2.6695L7.52057 3.13291L7.99984 3.62858L8.47911 3.13291L7.99984 2.6695ZM14.3704 9.36201L14.9227 9.73537V9.73536L14.3704 9.36201ZM10.5726 12.9415L10.9521 13.4896L10.9648 13.4808L10.9771 13.4714L10.5726 12.9415ZM7.99984 14.7223L7.62041 15.2704L7.99984 15.5331L8.37926 15.2704L7.99984 14.7223ZM5.42682 12.9413L5.02232 13.4712L5.03464 13.4806L5.04739 13.4895L5.42682 12.9413ZM1.62924 9.36201L2.18156 8.98865L2.18156 8.98865L1.62924 9.36201ZM4.90609 0.611165C2.10093 0.611165 -0.00016278 3.07644 -0.00016278 5.87579H1.33317C1.33317 3.69154 2.953 1.9445 4.90609 1.9445V0.611165ZM8.47911 2.2061C7.50607 1.19975 6.30642 0.611165 4.90609 0.611165V1.9445C5.89321 1.9445 6.7603 2.34662 7.52057 3.13291L8.47911 2.2061ZM11.0936 0.611165C9.69326 0.611165 8.49361 1.19976 7.52057 2.2061L8.47911 3.13291C9.23937 2.34662 10.1065 1.9445 11.0936 1.9445V0.611165ZM15.9998 5.87579C15.9998 3.07644 13.8987 0.611165 11.0936 0.611165V1.9445C13.0467 1.9445 14.6665 3.69154 14.6665 5.87579H15.9998ZM14.9227 9.73536C15.7787 8.4691 15.9998 7.25845 15.9998 5.87579H14.6665C14.6665 7.08519 14.4804 8.00899 13.8181 8.98865L14.9227 9.73536ZM10.9771 13.4714C12.8487 12.0428 14.132 10.9052 14.9227 9.73537L13.8181 8.98865C13.1602 9.96187 12.0345 10.9869 10.1681 12.4115L10.9771 13.4714ZM8.37926 15.2704L10.9521 13.4896L10.1932 12.3933L7.62041 14.1741L8.37926 15.2704ZM5.04739 13.4895L7.62041 15.2704L8.37926 14.1741L5.80624 12.3931L5.04739 13.4895ZM1.07693 9.73536C1.86767 10.9051 3.15087 12.0427 5.02232 13.4712L5.83132 12.4114C3.96506 10.9868 2.83941 9.96183 2.18156 8.98865L1.07693 9.73536ZM-0.00016278 5.87579C-0.00016278 7.25845 0.220952 8.4691 1.07693 9.73536L2.18156 8.98865C1.51932 8.00899 1.33317 7.08519 1.33317 5.87579H-0.00016278Z" fill="white"/>
</g>
<defs>
<clipPath id="clip0_1110_3871">
<rect width="16" height="16" fill="white"/>
</clipPath>
</defs>
</svg>
