<svg width="28" height="28" viewBox="0 0 28 28" fill="none" xmlns="http://www.w3.org/2000/svg">
<path d="M19.2524 22.7521C23.1887 22.7521 26.3797 17.8828 26.3797 11.8761C26.3797 5.86947 23.1887 1.00012 19.2524 1.00012C15.316 1.00012 12.125 5.86947 12.125 11.8761C12.125 17.8828 15.316 22.7521 19.2524 22.7521Z" fill="white" stroke="#FF5520" stroke-width="1.8" stroke-miterlimit="10"/>
<path d="M18.9298 13.2916C21.1534 13.2916 22.9559 10.5401 22.9559 7.14587C22.9559 3.75167 21.1534 1.00012 18.9298 1.00012C16.7063 1.00012 14.9038 3.75167 14.9038 7.14587C14.9038 10.5401 16.7063 13.2916 18.9298 13.2916Z" fill="#FF5520"/>
<path d="M18.3871 4.94019H15.5489C14.724 4.94019 14.0552 5.60896 14.0552 6.43394V6.6829C14.0552 7.50788 14.724 8.17666 15.5489 8.17666H18.3871C19.2121 8.17666 19.8808 7.50788 19.8808 6.6829V6.43394C19.8808 5.60896 19.2121 4.94019 18.3871 4.94019Z" fill="white"/>
<path d="M8.12736 22.7521C12.0637 22.7521 15.2547 17.8828 15.2547 11.8761C15.2547 5.86947 12.0637 1.00012 8.12736 1.00012C4.19103 1.00012 1 5.86947 1 11.8761C1 17.8828 4.19103 22.7521 8.12736 22.7521Z" fill="white" stroke="#FF5520" stroke-width="1.8" stroke-miterlimit="10"/>
<path d="M7.80485 13.2916C10.0284 13.2916 11.8309 10.5401 11.8309 7.14587C11.8309 3.75167 10.0284 1.00012 7.80485 1.00012C5.58133 1.00012 3.77881 3.75167 3.77881 7.14587C3.77881 10.5401 5.58133 13.2916 7.80485 13.2916Z" fill="#FF5520"/>
<path d="M7.38708 4.94019H4.54894C3.72396 4.94019 3.05518 5.60896 3.05518 6.43394V6.6829C3.05518 7.50788 3.72396 8.17666 4.54894 8.17666H7.38708C8.21206 8.17666 8.88084 7.50788 8.88084 6.6829V6.43394C8.88084 5.60896 8.21206 4.94019 7.38708 4.94019Z" fill="white"/>
<path d="M19.0906 23.3081L13.4198 26.581C12.0351 27.3783 10.3027 26.3832 10.3027 24.7827V18.2368C10.3027 16.6363 12.0351 15.6412 13.4198 16.4384L19.0906 19.7114C20.4753 20.5087 20.4753 22.5108 19.0906 23.3081Z" fill="white" stroke="#FF5520" stroke-width="1.8" stroke-miterlimit="10"/>
</svg>
