<svg width="23" height="26" viewBox="0 0 23 26" fill="none" xmlns="http://www.w3.org/2000/svg">
<path d="M1.3292 24.751L1.33383 24.7549C1.45657 24.8585 1.59859 24.9368 1.75171 24.9854C1.90483 25.0339 2.06604 25.0518 2.22607 25.0378C2.3607 25.0258 2.49246 24.9918 2.61609 24.9372L9.34783 21.9717L21.4901 7.48227C22.2324 6.59643 22.5924 5.45199 22.4909 4.30073C22.3894 3.14946 21.8347 2.08568 20.9488 1.34339C20.063 0.601107 18.9186 0.241124 17.7673 0.342638C16.616 0.444151 15.5523 0.998844 14.81 1.88469L2.66765 16.3741L0.92544 23.5205C0.870314 23.7429 0.878953 23.9762 0.950366 24.1938C1.02178 24.4115 1.15308 24.6046 1.3292 24.751ZM16.0132 2.89292C16.4891 2.32944 17.1689 1.97749 17.9037 1.91415C18.6385 1.85081 19.3685 2.08124 19.9338 2.55498C20.4991 3.02871 20.8536 3.70715 20.9198 4.44173C20.9859 5.17631 20.7583 5.90717 20.2867 6.47426L18.69 8.37963L14.4164 4.7983L16.0132 2.89292ZM4.10619 17.1015L13.4081 6.00142L17.6817 9.58276L8.37974 20.6828L2.61372 23.2229L4.10619 17.1015Z" fill="#FF5520" stroke="#FF5520" stroke-width="0.3"/>
</svg>
