<svg width="20" height="20" viewBox="0 0 20 20" fill="none" xmlns="http://www.w3.org/2000/svg">
<g clip-path="url(#clip0_1029_1566)">
<path fill-rule="evenodd" clip-rule="evenodd" d="M5.78125 0.833374C2.53699 0.833374 0 3.70541 0 7.10332C0 8.87063 0.277678 10.3259 1.31283 11.8572C2.3005 13.3183 3.9429 14.7928 6.49134 16.7381L10 19.1667L13.5084 16.7383C16.057 14.7929 17.6995 13.3184 18.6872 11.8572C19.7223 10.3259 20 8.87063 20 7.10332C20 3.70541 17.463 0.833376 14.2188 0.833376C12.5909 0.833376 11.1818 1.50886 10 2.73111C8.8182 1.50886 7.40906 0.833374 5.78125 0.833374ZM5.78125 2.87041C3.77551 2.87041 2 4.68897 2 7.10332C2 7.66246 2.03107 8.15395 2.10853 8.60725C2.23826 9.36651 2.49814 10.0186 2.96014 10.7021C3.74532 11.8636 5.14861 13.1676 7.69156 15.1086L10 16.8744L12.3084 15.1086C14.8514 13.1676 16.2547 11.8636 17.0399 10.7021C17.7777 9.6106 18 8.59902 18 7.10332C18 4.68897 16.2245 2.87041 14.2188 2.87041C12.9831 2.87041 11.8501 3.46754 10.8033 4.90572C10.6147 5.16486 10.3167 5.31768 10 5.31768C9.68328 5.31768 9.38529 5.16486 9.19667 4.90572C8.14989 3.46754 7.01689 2.87041 5.78125 2.87041Z" fill="white"/>
</g>
<defs>
<clipPath id="clip0_1029_1566">
<rect width="20" height="20" fill="white"/>
</clipPath>
</defs>
</svg>
