<svg width="112" height="123" viewBox="0 0 112 123" fill="none" xmlns="http://www.w3.org/2000/svg">
<rect width="112" height="123" rx="4" fill="#D0D0D0"/>
<path fill-rule="evenodd" clip-rule="evenodd" d="M50.7613 39C49.8752 39 49.0253 39.3394 48.3988 39.9435C47.7722 40.5476 47.4202 41.3669 47.4202 42.2212V57.2534C47.4202 58.1077 47.7722 58.927 48.3988 59.5311C49.0253 60.1352 49.8752 60.4746 50.7613 60.4746H66.3532C67.2394 60.4746 68.0892 60.1352 68.7158 59.5311C69.3424 58.927 69.6944 58.1077 69.6944 57.2534V42.2212C69.6944 41.3669 69.3424 40.5476 68.7158 39.9435C68.0892 39.3394 67.2394 39 66.3532 39H50.7613ZM62.2793 50.1045L67.4669 55.106V56.1797C67.4669 56.7492 67.2323 57.2954 66.8145 57.6982C66.3968 58.1009 65.8303 58.3271 65.2395 58.3271H51.875C51.1489 58.3271 50.6444 58.0899 50.3024 57.7591L59.2144 50.0261C59.6385 49.6583 60.1928 49.4614 60.763 49.476C61.3333 49.4906 61.876 49.7156 62.2793 50.1045ZM54.1024 43.2949C53.5117 43.2949 52.9451 43.5212 52.5274 43.9239C52.1097 44.3266 51.875 44.8728 51.875 45.4424C51.875 46.0119 52.1097 46.5581 52.5274 46.9609C52.9451 47.3636 53.5117 47.5898 54.1024 47.5898C54.6932 47.5898 55.2597 47.3636 55.6774 46.9609C56.0952 46.5581 56.3298 46.0119 56.3298 45.4424C56.3298 44.8728 56.0952 44.3266 55.6774 43.9239C55.2597 43.5212 54.6932 43.2949 54.1024 43.2949Z" fill="white"/>
<path d="M37.7578 79.4746H36.3984L32.3789 73.6738H32.3086V79.4746H30.7852V70.9902H32.168L36.1641 76.791H36.2461V70.9902H37.7578V79.4746ZM42.0352 79.6035C41.4219 79.6035 40.8848 79.4668 40.4238 79.1934C39.9668 78.9199 39.6133 78.5352 39.3633 78.0391C39.1133 77.543 38.9883 76.9707 38.9883 76.3223C38.9883 75.666 39.1133 75.0898 39.3633 74.5938C39.6133 74.0977 39.9668 73.7129 40.4238 73.4395C40.8848 73.166 41.4219 73.0293 42.0352 73.0293C42.6484 73.0293 43.1855 73.166 43.6465 73.4395C44.1074 73.7129 44.4609 74.0977 44.707 74.5938C44.957 75.0898 45.082 75.666 45.082 76.3223C45.082 76.9707 44.957 77.543 44.707 78.0391C44.4609 78.5352 44.1074 78.9199 43.6465 79.1934C43.1855 79.4668 42.6484 79.6035 42.0352 79.6035ZM40.5 76.3105C40.5 76.709 40.5566 77.0664 40.6699 77.3828C40.7871 77.6992 40.9609 77.9492 41.1914 78.1328C41.4258 78.3164 41.7109 78.4082 42.0469 78.4082C42.375 78.4082 42.6543 78.3164 42.8848 78.1328C43.1152 77.9492 43.2871 77.6992 43.4004 77.3828C43.5176 77.0664 43.5742 76.709 43.5703 76.3105C43.5742 75.9121 43.5176 75.5547 43.4004 75.2383C43.2871 74.9219 43.1152 74.6719 42.8848 74.4883C42.6543 74.3047 42.375 74.2129 42.0469 74.2129C41.7109 74.2129 41.4258 74.3047 41.1914 74.4883C40.9609 74.6719 40.7871 74.9219 40.6699 75.2383C40.5566 75.5547 40.5 75.9121 40.5 76.3105ZM50.6836 79.4746H49.1602V70.9902H50.6836V79.4746ZM52.1953 73.1113H53.625V74.1895H53.707C53.8398 73.8262 54.0586 73.543 54.3633 73.3398C54.668 73.1328 55.0312 73.0293 55.4531 73.0293C55.8789 73.0293 56.2422 73.1328 56.543 73.3398C56.8438 73.543 57.0547 73.8262 57.1758 74.1895H57.2461C57.3867 73.834 57.625 73.5527 57.9609 73.3457C58.3008 73.1348 58.6992 73.0293 59.1562 73.0293C59.5508 73.0293 59.8965 73.1133 60.1934 73.2812C60.4941 73.4453 60.7266 73.6914 60.8906 74.0195C61.0547 74.3438 61.1367 74.7363 61.1367 75.1973V79.4746H59.6484V75.4316C59.6484 75.0527 59.5469 74.7676 59.3438 74.5762C59.1445 74.3809 58.8828 74.2832 58.5586 74.2832C58.1992 74.2832 57.916 74.3945 57.709 74.6172C57.502 74.8398 57.3984 75.1348 57.3984 75.502V79.4746H55.9453V75.373C55.9414 75.0449 55.8398 74.7812 55.6406 74.582C55.4453 74.3828 55.1875 74.2832 54.8672 74.2832C54.6523 74.2832 54.4551 74.3398 54.2754 74.4531C54.0996 74.5625 53.959 74.7188 53.8535 74.9219C53.748 75.1211 53.6953 75.3496 53.6953 75.6074V79.4746H52.1953V73.1113ZM62.2734 77.6816C62.2734 77.0293 62.4941 76.5566 62.9355 76.2637C63.3809 75.9707 63.9492 75.8027 64.6406 75.7598C64.9961 75.7324 65.541 75.7031 66.2754 75.6719L66.2695 75.1621C66.2695 74.8457 66.1699 74.6016 65.9707 74.4297C65.7754 74.2539 65.4922 74.166 65.1211 74.166C64.7969 74.166 64.5312 74.2344 64.3242 74.3711C64.1172 74.5078 63.9844 74.6934 63.9258 74.9277H62.4844C62.5195 74.5645 62.6484 74.2402 62.8711 73.9551C63.0938 73.666 63.4004 73.4395 63.791 73.2754C64.1816 73.1113 64.6367 73.0293 65.1562 73.0293C65.6016 73.0293 66.0195 73.0996 66.4102 73.2402C66.8047 73.377 67.127 73.6094 67.377 73.9375C67.6309 74.2617 67.7578 74.6895 67.7578 75.2207V79.4746H66.3281V78.5957H66.2812C66.125 78.8926 65.8906 79.1348 65.5781 79.3223C65.2656 79.5098 64.875 79.6035 64.4062 79.6035C63.9961 79.6035 63.6289 79.5293 63.3047 79.3809C62.9844 79.2324 62.7324 79.0156 62.5488 78.7305C62.3652 78.4414 62.2734 78.0918 62.2734 77.6816ZM63.7148 77.6699C63.7148 77.9355 63.8125 78.1406 64.0078 78.2852C64.207 78.4297 64.4688 78.502 64.793 78.502C65.0859 78.502 65.3457 78.4434 65.5723 78.3262C65.7988 78.209 65.9727 78.0508 66.0938 77.8516C66.2188 77.6484 66.2812 77.4277 66.2812 77.1895L66.2754 76.668C66.0801 76.6758 65.8477 76.6895 65.5781 76.709C65.3125 76.7246 65.0781 76.7402 64.875 76.7559C64.5117 76.7871 64.2266 76.8789 64.0195 77.0312C63.8164 77.1836 63.7148 77.3965 63.7148 77.6699ZM71.9414 81.9941C71.3828 81.9941 70.8945 81.9141 70.4766 81.7539C70.0586 81.5977 69.7285 81.373 69.4863 81.0801C69.248 80.791 69.1133 80.4473 69.082 80.0488H70.5703C70.6211 80.3223 70.7676 80.5254 71.0098 80.6582C71.252 80.7949 71.5703 80.8652 71.9648 80.8691C72.4336 80.8652 72.7969 80.7559 73.0547 80.541C73.3125 80.3262 73.4414 79.9941 73.4414 79.5449V78.3262H73.3711C73.2227 78.6191 73.002 78.8691 72.709 79.0762C72.416 79.2793 72.0234 79.3809 71.5312 79.3809C71.0312 79.3809 70.582 79.2617 70.1836 79.0234C69.7891 78.7812 69.4766 78.4258 69.2461 77.957C69.0195 77.4844 68.9062 76.9121 68.9062 76.2402C68.9062 75.5645 69.0215 74.9844 69.252 74.5C69.4824 74.0156 69.7969 73.6504 70.1953 73.4043C70.5938 73.1543 71.043 73.0293 71.543 73.0293C72.0391 73.0293 72.4277 73.1387 72.709 73.3574C72.9902 73.5762 73.2109 73.8418 73.3711 74.1543H73.4414V73.1113H74.918V79.5801C74.918 80.1074 74.791 80.5508 74.5371 80.9102C74.2871 81.2734 73.9375 81.5449 73.4883 81.7246C73.0391 81.9043 72.5234 81.9941 71.9414 81.9941ZM70.4297 76.2637C70.4297 76.8613 70.5605 77.3359 70.8223 77.6875C71.084 78.0352 71.457 78.209 71.9414 78.209C72.4219 78.209 72.793 78.0391 73.0547 77.6992C73.3203 77.3555 73.4531 76.877 73.4531 76.2637C73.4531 75.8574 73.3945 75.5039 73.2773 75.2031C73.1602 74.8984 72.9883 74.6641 72.7617 74.5C72.5352 74.332 72.2617 74.248 71.9414 74.248C71.6172 74.248 71.3418 74.3359 71.1152 74.5117C70.8887 74.6836 70.7168 74.9219 70.5996 75.2266C70.4863 75.5273 70.4297 75.873 70.4297 76.2637ZM79.1719 79.6035C78.5391 79.6035 77.9902 79.4707 77.5254 79.2051C77.0605 78.9355 76.7031 78.5547 76.4531 78.0625C76.2031 77.5703 76.0781 76.9941 76.0781 76.334C76.0781 75.6816 76.2031 75.1074 76.4531 74.6113C76.7031 74.1113 77.0547 73.7227 77.5078 73.4453C77.9648 73.168 78.4922 73.0293 79.0898 73.0293C79.6289 73.0293 80.1172 73.1465 80.5547 73.3809C80.9961 73.6113 81.3457 73.9668 81.6035 74.4473C81.8652 74.9277 81.9961 75.5254 81.9961 76.2402V76.709H77.5547C77.5625 77.0645 77.6328 77.373 77.7656 77.6348C77.9023 77.8926 78.0898 78.0898 78.3281 78.2266C78.5703 78.3633 78.8516 78.4316 79.1719 78.4316C79.4922 78.4316 79.7637 78.373 79.9863 78.2559C80.209 78.1348 80.3711 77.9746 80.4727 77.7754H81.9375C81.8477 78.1426 81.6777 78.4648 81.4277 78.7422C81.1777 79.0156 80.8594 79.2285 80.4727 79.3809C80.0898 79.5293 79.6562 79.6035 79.1719 79.6035ZM80.5664 75.6895C80.5664 75.4043 80.5039 75.1484 80.3789 74.9219C80.2578 74.6914 80.0859 74.5117 79.8633 74.3828C79.6445 74.2539 79.3945 74.1895 79.1133 74.1895C78.8242 74.1895 78.5645 74.2578 78.334 74.3945C78.1035 74.5273 77.9219 74.709 77.7891 74.9395C77.6562 75.1699 77.5801 75.4199 77.5605 75.6895H80.5664Z" fill="white"/>
</svg>
