<svg width="40" height="38" viewBox="0 0 40 38" fill="none" xmlns="http://www.w3.org/2000/svg">
<path d="M5.9645 21.35C5.9645 28.774 12.2229 34.8 19.9097 34.8C27.5965 34.8 33.8549 28.774 33.8549 21.35C33.8549 13.9261 27.5965 7.90005 19.9097 7.90005C12.2229 7.90005 5.9645 13.9261 5.9645 21.35ZM8.44269 21.35C8.44269 15.264 13.5835 10.3 19.9097 10.3C26.236 10.3 31.3767 15.264 31.3767 21.35C31.3767 27.4361 26.236 32.4 19.9097 32.4C13.5835 32.4 8.44269 27.4361 8.44269 21.35Z" fill="#FF5520" stroke="#FF5520" stroke-width="0.3"/>
<path d="M18.6701 21C18.6701 21.6619 19.2362 22.2 19.9092 22.2C20.5822 22.2 21.1483 21.6619 21.1483 21V14C21.1483 13.338 20.5822 12.8 19.9092 12.8C19.2362 12.8 18.6701 13.338 18.6701 14V21Z" fill="#FF5520" stroke="#FF5520" stroke-width="0.3"/>
<path d="M15.5537 6.80005H24.2665C24.9395 6.80005 25.5056 6.26201 25.5056 5.60005C25.5056 4.93808 24.9395 4.40005 24.2665 4.40005H15.5537C14.8807 4.40005 14.3146 4.93808 14.3146 5.60005C14.3146 6.26201 14.8807 6.80005 15.5537 6.80005Z" fill="#FF5520" stroke="#FF5520" stroke-width="0.3"/>
</svg>
