<svg width="53" height="54" viewBox="0 0 53 54" fill="none" xmlns="http://www.w3.org/2000/svg">
<path d="M36.9746 42.4889C44.3016 42.4889 50.2414 33.4251 50.2414 22.2444C50.2414 11.0637 44.3016 2 36.9746 2C29.6475 2 23.7078 11.0637 23.7078 22.2444C23.7078 33.4251 29.6475 42.4889 36.9746 42.4889Z" fill="white" stroke="#040000" stroke-width="2.94006" stroke-miterlimit="10"/>
<path d="M36.3746 42.1955C40.5135 42.1955 43.8687 37.0739 43.8687 30.7559C43.8687 24.438 40.5135 19.3163 36.3746 19.3163C32.2358 19.3163 28.8806 24.438 28.8806 30.7559C28.8806 37.0739 32.2358 42.1955 36.3746 42.1955Z" fill="black"/>
<path d="M33.5939 26.6504H28.311C26.7754 26.6504 25.5305 27.8952 25.5305 29.4309V29.8943C25.5305 31.4299 26.7754 32.6747 28.311 32.6747H33.5939C35.1295 32.6747 36.3743 31.4299 36.3743 29.8943V29.4309C36.3743 27.8952 35.1295 26.6504 33.5939 26.6504Z" fill="white"/>
<path d="M16.2668 42.4889C23.5938 42.4889 29.5336 33.4251 29.5336 22.2444C29.5336 11.0637 23.5938 2 16.2668 2C8.93974 2 3 11.0637 3 22.2444C3 33.4251 8.93974 42.4889 16.2668 42.4889Z" fill="white" stroke="#040000" stroke-width="2.94006" stroke-miterlimit="10"/>
<path d="M15.6666 42.1955C19.8055 42.1955 23.1607 37.0739 23.1607 30.7559C23.1607 24.438 19.8055 19.3163 15.6666 19.3163C11.5278 19.3163 8.17261 24.438 8.17261 30.7559C8.17261 37.0739 11.5278 42.1955 15.6666 42.1955Z" fill="black"/>
<path d="M13.7975 26.6504H8.51461C6.979 26.6504 5.73413 27.8952 5.73413 29.4309V29.8943C5.73413 31.4299 6.979 32.6747 8.51461 32.6747H13.7975C15.3331 32.6747 16.578 31.4299 16.578 29.8943V29.4309C16.578 27.8952 15.3331 26.6504 13.7975 26.6504Z" fill="white"/>
<path d="M36.674 45.3852L26.1185 51.4775C23.5411 52.9615 20.3164 51.1093 20.3164 48.1301V35.9456C20.3164 32.9664 23.5411 31.1142 26.1185 32.5982L36.674 38.6905C39.2514 40.1745 39.2514 43.9012 36.674 45.3852Z" fill="white" stroke="#060001" stroke-width="2.47766" stroke-miterlimit="10"/>
</svg>
