<svg width="46" height="50" viewBox="0 0 46 50" fill="none" xmlns="http://www.w3.org/2000/svg">
<mask id="path-1-outside-1_1258_4735" maskUnits="userSpaceOnUse" x="0.0498047" y="0" width="46" height="50" fill="black">
<rect fill="white" x="0.0498047" width="46" height="50"/>
<path fill-rule="evenodd" clip-rule="evenodd" d="M26.4263 5.62468C25.5849 4.02448 24.2927 3 22.8436 3C20.3083 3 18.2529 6.13632 18.2529 10.0052C18.2529 10.1292 18.2551 10.2525 18.2592 10.375H14.59C12.1089 10.375 10.0764 12.4816 10.0764 15.0564L10.5619 32.2184C8.96963 31.8738 7.613 31.3748 6.75628 31.0168C5.02416 30.2951 3.01896 31.5201 3.05016 33.3926C3.05016 33.4824 3.05797 33.5721 3.06577 33.6618C3.43844 36.9448 4.98943 42.4329 9.33294 45.3595C10.0999 46.0125 11.9582 47.2079 15.3703 47.3152H15.396L15.4091 47.3159L15.4093 47.3152H37.3807C39.8618 47.3152 41.8943 45.2086 41.8943 42.6338L43.0647 15.0564C43.0647 12.4816 41.0322 10.375 38.551 10.375H34.5933C34.5975 10.2525 34.5996 10.1292 34.5996 10.0052C34.5996 6.13632 32.5443 3 30.0089 3C28.5599 3 27.2676 4.02448 26.4263 5.62468Z"/>
</mask>
<path fill-rule="evenodd" clip-rule="evenodd" d="M26.4263 5.62468C25.5849 4.02448 24.2927 3 22.8436 3C20.3083 3 18.2529 6.13632 18.2529 10.0052C18.2529 10.1292 18.2551 10.2525 18.2592 10.375H14.59C12.1089 10.375 10.0764 12.4816 10.0764 15.0564L10.5619 32.2184C8.96963 31.8738 7.613 31.3748 6.75628 31.0168C5.02416 30.2951 3.01896 31.5201 3.05016 33.3926C3.05016 33.4824 3.05797 33.5721 3.06577 33.6618C3.43844 36.9448 4.98943 42.4329 9.33294 45.3595C10.0999 46.0125 11.9582 47.2079 15.3703 47.3152H15.396L15.4091 47.3159L15.4093 47.3152H37.3807C39.8618 47.3152 41.8943 45.2086 41.8943 42.6338L43.0647 15.0564C43.0647 12.4816 41.0322 10.375 38.551 10.375H34.5933C34.5975 10.2525 34.5996 10.1292 34.5996 10.0052C34.5996 6.13632 32.5443 3 30.0089 3C28.5599 3 27.2676 4.02448 26.4263 5.62468Z" fill="#FFD503"/>
<path d="M26.4263 5.62468L24.2135 6.78811L26.4263 10.9967L28.6391 6.78811L26.4263 5.62468ZM18.2592 10.375V12.875H20.8459L20.7578 10.2898L18.2592 10.375ZM10.0764 15.0564H7.57636V15.0918L7.57736 15.1271L10.0764 15.0564ZM10.5619 32.2184L10.0331 34.6618L13.1511 35.3367L13.0609 32.1477L10.5619 32.2184ZM6.75628 31.0168L7.72012 28.7101L7.71782 28.7091L6.75628 31.0168ZM3.05016 33.3926H5.55016V33.3718L5.54982 33.351L3.05016 33.3926ZM3.06577 33.6618L0.575168 33.8784L0.578015 33.9111L0.581723 33.9438L3.06577 33.6618ZM9.33294 45.3595L10.9537 43.456L10.8466 43.3648L10.7299 43.2862L9.33294 45.3595ZM15.3703 47.3152L15.2917 49.814L15.331 49.8152H15.3703V47.3152ZM15.396 47.3152L15.5351 44.8191L15.4656 44.8152H15.396V47.3152ZM15.4091 47.3159L15.27 49.812L17.2428 49.922L17.8055 48.028L15.4091 47.3159ZM15.4093 47.3152V44.8152H13.5441L13.0128 46.6032L15.4093 47.3152ZM41.8943 42.6338L39.3966 42.5278L39.3943 42.5808V42.6338H41.8943ZM43.0647 15.0564L45.5624 15.1624L45.5647 15.1094V15.0564H43.0647ZM34.5933 10.375L32.0948 10.2898L32.0067 12.875H34.5933V10.375ZM22.8436 5.5C23.0101 5.5 23.61 5.64035 24.2135 6.78811L28.6391 4.46125C27.5598 2.40862 25.5753 0.5 22.8436 0.5V5.5ZM20.7529 10.0052C20.7529 8.48693 21.1609 7.22722 21.6885 6.42206C22.2303 5.5953 22.6921 5.5 22.8436 5.5V0.5C20.4598 0.5 18.6262 1.97286 17.5065 3.68147C16.3727 5.41167 15.7529 7.65454 15.7529 10.0052H20.7529ZM20.7578 10.2898C20.7546 10.1957 20.7529 10.1008 20.7529 10.0052H15.7529C15.7529 10.1576 15.7555 10.3093 15.7607 10.4602L20.7578 10.2898ZM14.59 12.875H18.2592V7.875H14.59V12.875ZM12.5764 15.0564C12.5764 13.7761 13.5743 12.875 14.59 12.875V7.875C10.6434 7.875 7.57636 11.1872 7.57636 15.0564H12.5764ZM13.0609 32.1477L12.5754 14.9857L7.57736 15.1271L8.06291 32.2891L13.0609 32.1477ZM5.79244 33.3236C6.74403 33.7212 8.25032 34.276 10.0331 34.6618L11.0908 29.775C9.68895 29.4716 8.48196 29.0284 7.72012 28.7101L5.79244 33.3236ZM5.54982 33.351C5.5497 33.3438 5.55049 33.3466 5.54816 33.3555C5.54596 33.3639 5.54281 33.3708 5.54053 33.3748C5.53658 33.3817 5.54327 33.3668 5.57527 33.3467C5.60765 33.3262 5.64808 33.3121 5.68798 33.3081C5.72307 33.3046 5.75698 33.3088 5.79474 33.3245L7.71782 28.7091C4.51448 27.3744 0.485884 29.5567 0.550511 33.4343L5.54982 33.351ZM5.55637 33.4452C5.55432 33.4217 5.55296 33.406 5.55177 33.3914C5.55064 33.3775 5.55006 33.3693 5.54974 33.3645C5.54906 33.3541 5.55016 33.3665 5.55016 33.3926H0.550164C0.550164 33.609 0.568967 33.8071 0.575168 33.8784L5.55637 33.4452ZM10.7299 43.2862C7.3073 40.9801 5.89517 36.4221 5.54982 33.3798L0.581723 33.9438C0.98172 37.4674 2.67156 43.8857 7.93599 47.4328L10.7299 43.2862ZM15.4488 44.8164C12.6429 44.7282 11.32 43.7679 10.9537 43.456L7.71217 47.2629C8.87984 48.2572 11.2736 49.6877 15.2917 49.814L15.4488 44.8164ZM15.396 44.8152H15.3703V49.8152H15.396V44.8152ZM15.5482 44.8198L15.5351 44.8191L15.2569 49.8113L15.27 49.812L15.5482 44.8198ZM13.0128 46.6032L13.0126 46.6039L17.8055 48.028L17.8058 48.0272L13.0128 46.6032ZM37.3807 44.8152H15.4093V49.8152H37.3807V44.8152ZM39.3943 42.6338C39.3943 43.9141 38.3964 44.8152 37.3807 44.8152V49.8152C41.3273 49.8152 44.3943 46.503 44.3943 42.6338H39.3943ZM40.5669 14.9504L39.3966 42.5278L44.3921 42.7398L45.5624 15.1624L40.5669 14.9504ZM38.551 12.875C39.5668 12.875 40.5647 13.7761 40.5647 15.0564H45.5647C45.5647 11.1872 42.4976 7.875 38.551 7.875V12.875ZM34.5933 12.875H38.551V7.875H34.5933V12.875ZM32.0996 10.0052C32.0996 10.1008 32.098 10.1957 32.0948 10.2898L37.0919 10.4602C37.097 10.3093 37.0996 10.1576 37.0996 10.0052H32.0996ZM30.0089 5.5C30.1605 5.5 30.6222 5.5953 31.164 6.42206C31.6917 7.22722 32.0996 8.48693 32.0996 10.0052H37.0996C37.0996 7.65454 36.4799 5.41167 35.346 3.68147C34.2263 1.97286 32.3928 0.5 30.0089 0.5V5.5ZM28.6391 6.78811C29.2425 5.64035 29.8425 5.5 30.0089 5.5V0.5C27.2773 0.5 25.2927 2.40862 24.2135 4.46126L28.6391 6.78811Z" fill="white" mask="url(#path-1-outside-1_1258_4735)"/>
<path d="M20.3723 30.4473C15.925 34.2938 9.19933 32.0584 6.70648 31.0168C4.97435 30.2951 2.96915 31.5201 3.00036 33.3927C3.00036 33.4824 3.00816 33.5721 3.01596 33.6618C3.52702 38.1638 6.25394 46.8127 15.3593 47.3159" fill="#FFC9BB"/>
<path d="M20.3723 30.4473C15.925 34.2938 9.19933 32.0584 6.70648 31.0168C4.97435 30.2951 2.96915 31.5201 3.00036 33.3927C3.00036 33.4824 3.00816 33.5721 3.01596 33.6618C3.52702 38.1638 6.25394 46.8127 15.3593 47.3159" stroke="black" stroke-width="1.5" stroke-miterlimit="10"/>
<path d="M15.32 47.3162H37.3304C39.8115 47.3162 41.844 45.2095 41.844 42.6348L43.0144 15.0574C43.0144 12.4826 40.9819 10.376 38.5007 10.376H14.5397C12.0586 10.376 10.0261 12.4826 10.0261 15.0574L10.8063 42.6348C10.8063 42.6348 10.5839 44.9286 8.85571 44.9404C8.85571 44.9404 10.6034 47.1679 15.32 47.3162Z" fill="#FF5520" stroke="black" stroke-width="1.5" stroke-miterlimit="10"/>
<path d="M16.1318 30.7207H26.2944" stroke="white" stroke-width="1.56047" stroke-linecap="round" stroke-linejoin="round"/>
<path d="M25.9238 26.0977H36.0864" stroke="white" stroke-width="1.56047" stroke-linecap="round" stroke-linejoin="round"/>
<path d="M29.8601 30.7207H36.4609" stroke="white" stroke-width="1.56047" stroke-linecap="round" stroke-linejoin="round"/>
<path d="M22.6975 35.2461H36.4609" stroke="white" stroke-width="1.56047" stroke-linecap="round" stroke-linejoin="round"/>
<path d="M15.8198 35.2461H18.9018" stroke="white" stroke-width="1.56047" stroke-linecap="round" stroke-linejoin="round"/>
<path d="M16.1318 39.7715H36.4609" stroke="white" stroke-width="1.56047" stroke-linecap="round" stroke-linejoin="round"/>
<path d="M29.9591 17.0113C32.4945 17.0113 34.5498 13.875 34.5498 10.0061C34.5498 6.13729 32.4945 3.00098 29.9591 3.00098C27.4237 3.00098 25.3684 6.13729 25.3684 10.0061C25.3684 13.875 27.4237 17.0113 29.9591 17.0113Z" fill="white" stroke="#040000" stroke-width="0.916307" stroke-miterlimit="10"/>
<path d="M29.9364 15.0136C31.3686 15.0136 32.5296 13.2413 32.5296 11.0551C32.5296 8.86893 31.3686 7.09668 29.9364 7.09668C28.5043 7.09668 27.3433 8.86893 27.3433 11.0551C27.3433 13.2413 28.5043 15.0136 29.9364 15.0136Z" fill="black"/>
<path d="M30.8937 12.4746H32.7217C33.2531 12.4746 33.6838 12.0439 33.6838 11.5125V11.3521C33.6838 10.8208 33.2531 10.39 32.7217 10.39H30.8937C30.3623 10.39 29.9316 10.8208 29.9316 11.3521V11.5125C29.9316 12.0439 30.3623 12.4746 30.8937 12.4746Z" fill="white"/>
<path d="M22.7938 17.0113C25.3292 17.0113 27.3845 13.875 27.3845 10.0061C27.3845 6.13729 25.3292 3.00098 22.7938 3.00098C20.2584 3.00098 18.2031 6.13729 18.2031 10.0061C18.2031 13.875 20.2584 17.0113 22.7938 17.0113Z" fill="white" stroke="#040000" stroke-width="0.916307" stroke-miterlimit="10"/>
<path d="M22.7706 15.0136C24.2028 15.0136 25.3638 13.2413 25.3638 11.0551C25.3638 8.86893 24.2028 7.09668 22.7706 7.09668C21.3385 7.09668 20.1775 8.86893 20.1775 11.0551C20.1775 13.2413 21.3385 15.0136 22.7706 15.0136Z" fill="black"/>
<path d="M23.7328 12.4746H25.5608C26.0922 12.4746 26.5229 12.0439 26.5229 11.5125V11.3521C26.5229 10.8208 26.0922 10.39 25.5608 10.39H23.7328C23.2014 10.39 22.7707 10.8208 22.7707 11.3521V11.5125C22.7707 12.0439 23.2014 12.4746 23.7328 12.4746Z" fill="white"/>
<path d="M30.614 19.2316L26.2799 21.7331C25.2215 22.3425 23.8975 21.5819 23.8975 20.3587V15.3556C23.8975 14.1324 25.2215 13.3718 26.2799 13.9812L30.614 16.4827C31.6723 17.092 31.6723 18.6223 30.614 19.2316Z" fill="white" stroke="#060001" stroke-width="0.916307" stroke-miterlimit="10"/>
<path d="M20.7274 21.5303H16.6663C15.9639 21.5303 15.3945 22.0997 15.3945 22.8021V26.0868C15.3945 26.7892 15.9639 27.3586 16.6663 27.3586H20.7274C21.4298 27.3586 21.9992 26.7892 21.9992 26.0868V22.8021C21.9992 22.0997 21.4298 21.5303 20.7274 21.5303Z" fill="#FFD503"/>
</svg>
