<svg width="240" height="82" viewBox="0 0 240 82" fill="none" xmlns="http://www.w3.org/2000/svg">
<path d="M41.2183 79C62.4812 79 79.7183 61.763 79.7183 40.5C79.7183 19.237 62.4812 2 41.2183 2C19.9553 2 2.71826 19.237 2.71826 40.5C2.71826 61.763 19.9553 79 41.2183 79Z" fill="white"/>
<path d="M38.52 72.9387C58.2014 72.9387 74.1564 56.9838 74.1564 37.3023C74.1564 17.6209 58.2014 1.66589 38.52 1.66589C18.8385 1.66589 2.88354 17.6209 2.88354 37.3023C2.88354 56.9838 18.8385 72.9387 38.52 72.9387Z" fill="#FF5520"/>
<path d="M4.41237 26.9716C16.6093 -6.34198 62.2128 -8.98578 78.2108 22.7398C88.2031 42.7331 79.2497 67.845 58.851 76.9927C26.3737 91.428 -7.244 60.471 4.42082 26.9716H4.41237ZM4.41237 26.9716C-2.86019 47.1253 8.15424 69.7032 28.4853 76.3676C47.845 83.0996 70.2118 72.1612 76.8086 52.8184C83.9629 33.6698 73.5904 11.0328 54.3321 3.97983C34.3726 -3.73196 11.5498 6.76722 4.42082 26.9716H4.41237Z" fill="black"/>
<path d="M69.6399 48.6774C62.67 73.9356 28.7208 78.6955 15.1339 56.1356C6.4504 41.8253 11.7453 22.4249 26.5036 14.5263C49.6707 2.00308 76.4945 23.3877 69.6472 48.6732L69.6399 48.6774ZM69.6399 48.6774C73.8788 33.5269 64.3779 17.3587 49.0542 13.8216C34.6169 10.0996 18.85 19.4686 15.2286 33.8096C11.0467 48.0036 19.8509 64.0929 34.1864 68.2329C49.1869 72.9757 65.5853 63.8783 69.6399 48.6774Z" fill="black"/>
<path d="M51.1647 42.7162L38.7228 49.9043C36.7717 51.0277 34.3306 49.6256 34.3306 47.3703V33.0026C34.3306 30.7473 36.7717 29.3452 38.7228 30.4686L51.1647 37.6567C53.1159 38.7801 53.1159 41.6013 51.1647 42.7247V42.7162Z" fill="white"/>
<path d="M42.6168 17.7735C42.6168 17.7735 32.8356 15.6956 26.1796 22.3853C21.0778 26.9043 19.701 34.7006 19.7602 39.3124C19.7602 39.3124 26.2388 20.0879 42.6168 17.7735Z" fill="white"/>
<path d="M107.891 62.2337C112.832 60.7034 116.504 56.3747 115.63 53.4453C114.843 50.7781 109.771 50.9093 105.355 52.3084C103.956 58.8232 104.262 65.7753 106.404 72.2464C107.279 74.5637 103.518 75.8317 102.688 73.6892C100.021 66.7809 99.7582 55.5003 102.25 48.0673C102.863 46.3183 106.098 46.7556 106.229 48.5482C111.126 47.3677 118.428 47.63 119.784 52.221C121.27 58.0362 115.542 64.1575 108.721 66.1251C106.579 66.7372 105.267 62.977 107.891 62.2337Z" fill="white"/>
<path d="M139.529 72.9897C135.944 74.5637 131.265 74.9135 127.243 74.52C125.406 74.3451 124.095 73.3395 123.832 71.984C122.477 64.551 123.133 56.0687 124.619 48.4608C125.057 46.056 129.516 46.6681 128.817 49.379C127.549 55.4565 126.981 64.0263 128.074 70.4537C128.117 70.7598 128.292 70.8035 128.686 70.8472C131.134 70.9347 135.419 70.6723 138.043 69.4481C140.272 68.355 141.759 72.0715 139.529 72.9897Z" fill="white"/>
<path d="M175.904 48.6357C176.428 53.2704 178.265 57.5553 180.451 60.135C182.025 62.0588 178.921 64.8571 177.215 62.8458C174.155 59.2605 172.144 53.7513 171.663 49.2041C171.4 46.5369 175.685 45.9685 175.904 48.6357ZM180.801 72.771C180.101 62.8021 182.768 53.0955 191.557 47.7175C193.918 46.0997 196.366 49.685 193.918 51.2154C186.179 56.331 184.561 63.8077 184.954 72.6836C185.086 75.3945 180.932 75.1758 180.801 72.771Z" fill="white"/>
<path d="M209.274 51.0842C209.712 58.2548 209.537 65.3818 208.881 73.1208C208.706 75.4382 204.334 75.2196 204.596 72.6399C205.296 65.6878 205.252 58.4735 204.815 51.2154C202.541 51.3465 200.18 51.5651 197.819 51.8712C195.676 52.1335 195.414 48.5045 197.556 48.2422C202.104 47.4989 210.848 47.1053 215.658 47.5426C218.019 47.6737 217.757 51.3465 215.308 51.2154C213.341 51.1279 211.329 51.0405 209.274 51.0842Z" fill="white"/>
<path d="M238.082 71.8529C235.677 73.5143 228.2 75.307 224.265 74.1702C222.822 73.733 221.467 73.1208 220.767 71.3719C218.712 66.6498 219.499 57.5553 220.593 52.5271C219.106 52.0024 219.193 49.1166 221.074 48.898C225.402 48.3296 229.731 47.9798 234.409 48.3296C236.683 48.417 236.858 51.9149 234.322 51.7838C231.217 51.7838 228.026 51.8712 224.921 52.1335C223.653 58.1237 222.866 66.0814 224.921 70.2351C226.714 71.5031 234.103 69.929 235.896 68.661C238.301 67.2182 240.312 70.2351 238.082 71.8529ZM236.727 58.7795C239.219 58.2986 240.05 61.709 237.557 62.3211C234.978 62.977 230.255 63.4142 227.326 63.5017C224.965 63.5891 224.79 59.9163 227.151 59.8289C230.212 59.6977 234.54 59.2605 236.727 58.7795Z" fill="white"/>
<path d="M119.116 27.498C117.198 28.3399 114.696 28.527 112.544 28.3166C111.562 28.223 110.86 27.6851 110.72 26.9601C109.995 22.9843 110.346 18.4472 111.141 14.3779C111.375 13.0916 113.76 13.419 113.386 14.869C112.708 18.1198 112.404 22.7037 112.988 26.1416C113.012 26.3053 113.105 26.3287 113.316 26.352C114.625 26.3988 116.917 26.2585 118.321 25.6037C119.513 25.019 120.308 27.0069 119.116 27.498ZM128.62 27.4512C127.918 27.919 126.562 28.527 124.854 28.4101C122.001 28.2698 119.967 26.2351 120.224 23.1948C120.458 20.6222 122.235 18.3771 125.042 18.2601C128.55 18.0731 129.719 20.7158 129.579 22.1658C129.532 22.8206 129.111 23.4988 128.643 23.7093C127.427 24.3174 124.176 24.4811 122.492 24.4811C122.679 25.6037 123.592 26.4456 125.088 26.4924C126.024 26.5158 126.889 26.3053 127.661 25.744C128.713 25.019 129.742 26.7964 128.62 27.4512ZM125.135 20.1779C123.989 20.2714 122.703 21.1134 122.563 22.6803C124.129 22.6803 126.819 22.5166 127.263 22.1892C127.591 21.9553 127.474 20.0609 125.135 20.1779ZM132.56 21.2771H131.391C130.198 21.2771 130.105 19.219 131.321 19.219H132.771C132.935 17.6755 133.192 16.1787 133.473 15.1029C133.777 13.7698 136.022 14.1674 135.694 15.4771C135.437 16.5763 135.203 17.886 135.016 19.1722C136.045 19.1489 137.074 19.0787 137.986 18.9384C139.132 18.7747 139.389 20.7158 138.244 20.9263C137.448 21.09 136.115 21.1601 134.782 21.2069C134.689 22.1892 134.665 23.0779 134.665 23.7561C134.665 24.9254 134.782 26.1182 135.156 26.3287C135.507 26.4924 136.981 25.7206 137.799 25.1125C138.898 24.294 140.068 26.0012 139.039 26.9133C138.056 27.6851 135.554 28.7843 134.221 28.2698C132.958 27.8254 132.444 26.3053 132.444 23.99C132.444 23.265 132.49 22.3061 132.56 21.2771ZM142.626 17.2311C141.901 18.2601 140.241 17.4416 140.872 16.2723C141.293 15.5005 141.551 14.7287 141.644 13.7465C141.41 12.9045 142.042 12.086 143.001 12.1328C143.749 12.1795 144.217 12.7408 144.123 13.6061C144.006 14.869 143.258 16.3892 142.626 17.2311ZM155.234 25.4633C155.117 27.3343 153.433 28.3633 151.351 28.4335C149.551 28.5037 147.89 27.919 146.674 26.9601C145.622 26.1182 147.142 24.4577 147.914 25.2996C148.592 26.048 150.276 26.5391 151.305 26.4924C152.1 26.4456 152.942 26.2351 152.942 25.4166C152.942 24.5045 151.679 24.1303 150.603 24.0601C147.843 23.873 146.627 22.3996 146.931 20.9263C147.399 18.6811 150.79 17.6521 153.105 17.5118C154.392 17.4416 154.555 19.5698 153.269 19.64C151.375 19.7335 149.574 20.1545 149.247 21.1835C149.13 21.5343 149.48 22.0488 151.118 22.1658C153.246 22.3295 155.397 23.2182 155.234 25.4633ZM160.139 23.873C160.022 25.2762 157.917 25.2529 157.917 23.8263C157.94 20.8561 157.987 17.7924 158.104 13.8868C158.151 12.2029 160.747 12.39 160.653 13.9336C160.349 18.611 160.349 20.6924 160.139 23.873ZM160.583 28.0125C160.583 28.8778 159.905 29.5561 159.016 29.5561C158.151 29.5561 157.473 28.8778 157.473 28.0125C157.473 27.1238 158.151 26.4456 159.016 26.4456C159.905 26.4456 160.583 27.1238 160.583 28.0125Z" fill="white"/>
<rect x="96.8023" y="5.80233" width="77.3953" height="30.3953" rx="15.1977" stroke="white" stroke-width="1.60465"/>
<path d="M147.315 50.7174C147.315 49.1596 149.004 48.1786 150.364 48.9609C150.365 48.9611 150.365 48.9613 150.365 48.9615L167.494 58.8575L167.497 58.859C168.786 59.6011 168.845 61.4172 167.673 62.2573L167.494 62.3606L150.365 72.2567C150.365 72.2568 150.365 72.2569 150.365 72.257C149.004 73.0398 147.315 72.0588 147.315 70.5008V50.7174Z" fill="#FF5520" stroke="white" stroke-width="4"/>
</svg>
