<svg width="30" height="30" viewBox="0 0 30 30" fill="none" xmlns="http://www.w3.org/2000/svg">
<path d="M20.7144 9.52496C22.322 11.1326 24.5726 15.4502 20.7144 19.8596" stroke="white" stroke-width="1.92667" stroke-linecap="round"/>
<path d="M24.8477 5.39111C27.6036 8.14703 31.0485 15.7258 24.8477 23.3045" stroke="white" stroke-width="1.92667" stroke-linecap="round"/>
<path d="M28.125 25.625L5 2.5" stroke="white" stroke-width="2" stroke-linecap="round"/>
<path fill-rule="evenodd" clip-rule="evenodd" d="M6.73297 8.14706H2.12328C1.61375 8.14706 1.20068 8.56012 1.20068 9.06966V14.3478V21.004C1.20068 21.5136 1.61375 21.9266 2.12328 21.9266H10.6936C10.8978 21.9266 11.0962 21.9943 11.2577 22.1192L14.8715 24.9116C15.4779 25.3802 16.3582 24.948 16.3582 24.1816V17.7723L14.4315 15.8456V22.1368L12.4358 20.5946C11.9368 20.2091 11.3241 20 10.6936 20H3.12735V14.3478V10.0737H8.65964L6.73297 8.14706ZM14.4315 13.0172V6.55886L10.7884 9.37403L9.41265 7.99831C9.43376 7.9846 9.45438 7.96999 9.47442 7.9545L14.8715 3.78405C15.4779 3.31544 16.3582 3.74769 16.3582 4.51408L16.3582 14.9439L14.4315 13.0172Z" fill="white"/>
</svg>
