<svg width="13" height="16" viewBox="0 0 13 16" fill="none" xmlns="http://www.w3.org/2000/svg">
<path d="M10.8315 15.3581C9.99151 16.2024 9.07439 16.0691 8.19156 15.6691C7.2573 15.2603 6.40018 15.2425 5.41449 15.6691C4.18024 16.2202 3.52883 16.0602 2.79171 15.3581C-1.39104 10.8875 -0.773912 4.07948 3.97453 3.83063C5.13164 3.89284 5.93733 4.48832 6.61446 4.54165C7.62586 4.32834 8.59441 3.71509 9.67438 3.79508C10.9686 3.90173 11.9457 4.435 12.5886 5.39487C9.91437 7.05689 10.5486 10.7098 13 11.7319C12.5114 13.065 11.8772 14.3893 10.8229 15.367L10.8315 15.3581ZM6.52875 3.7773C6.40018 1.79533 7.95157 0.15998 9.73438 0C9.98294 2.29304 7.72871 3.9995 6.52875 3.7773Z" fill="#111111"/>
</svg>
