<svg width="24" height="24" viewBox="0 0 24 24" fill="none" xmlns="http://www.w3.org/2000/svg">
<g clip-path="url(#clip0_1097_1895)">
<path fill-rule="evenodd" clip-rule="evenodd" d="M1 8.81362C1 5.07592 3.79069 1.91669 7.35938 1.91669C9.14996 1.91669 10.7 2.65972 12 4.00419C13.3 2.65972 14.85 1.91669 16.6406 1.91669C20.2093 1.91669 23 5.07593 23 8.81363C23 10.7577 22.6946 12.3585 21.5559 14.043C20.4694 15.6502 18.6627 17.2722 15.8592 19.4121L12 22.0834L8.14047 19.4119C5.33719 17.2721 3.53055 15.6501 2.44411 14.0429C1.30545 12.3585 1 10.7577 1 8.81362Z" fill="#FF5520"/>
<path d="M12 4.00419L11.2811 4.69931L12 5.44281L12.7189 4.69931L12 4.00419ZM21.5559 14.043L20.7274 13.4829L21.5559 14.043ZM15.8592 19.4121L16.4283 20.2344L16.4475 20.2211L16.466 20.207L15.8592 19.4121ZM12 22.0834L11.4309 22.9056L12 23.2995L12.5691 22.9056L12 22.0834ZM8.14047 19.4119L7.53372 20.2068L7.55221 20.2209L7.57134 20.2341L8.14047 19.4119ZM2.44411 14.0429L3.27258 13.4829L3.27258 13.4829L2.44411 14.0429ZM7.35938 0.916687C3.15164 0.916687 0 4.61459 0 8.81362H2C2 5.53725 4.42974 2.91669 7.35938 2.91669V0.916687ZM12.7189 3.30908C11.2593 1.79957 9.45987 0.916687 7.35938 0.916687V2.91669C8.84006 2.91669 10.1407 3.51987 11.2811 4.69931L12.7189 3.30908ZM16.6406 0.916689C14.5401 0.916689 12.7407 1.79957 11.2811 3.30908L12.7189 4.69931C13.8593 3.51988 15.1599 2.91669 16.6406 2.91669V0.916689ZM24 8.81363C24 4.6146 20.8484 0.916689 16.6406 0.916689V2.91669C19.5703 2.91669 22 5.53725 22 8.81363H24ZM22.3844 14.603C23.6683 12.7036 24 10.8876 24 8.81363H22C22 10.6277 21.7208 12.0134 20.7274 13.4829L22.3844 14.603ZM16.466 20.207C19.2733 18.0641 21.1982 16.3577 22.3844 14.603L20.7274 13.4829C19.7406 14.9427 18.052 16.4803 15.2525 18.6172L16.466 20.207ZM12.5691 22.9056L16.4283 20.2344L15.2901 18.5899L11.4309 21.2611L12.5691 22.9056ZM7.57134 20.2341L11.4309 22.9056L12.5691 21.2611L8.70961 18.5896L7.57134 20.2341ZM1.61564 14.603C2.80174 16.3576 4.72655 18.064 7.53372 20.2068L8.74723 18.617C5.94783 16.4802 4.25936 14.9427 3.27258 13.4829L1.61564 14.603ZM0 8.81362C0 10.8876 0.331672 12.7036 1.61564 14.603L3.27258 13.4829C2.27922 12.0134 2 10.6277 2 8.81362H0Z" fill="white"/>
</g>
<defs>
<clipPath id="clip0_1097_1895">
<rect width="24" height="24" fill="white"/>
</clipPath>
</defs>
</svg>
