<svg width="30" height="29" viewBox="0 0 30 29" fill="none" xmlns="http://www.w3.org/2000/svg">
<path d="M20.3143 22.6387L15.8272 19.9463C15.1948 19.5669 14.4046 19.5669 13.7722 19.9463L9.28513 22.6387C9.25288 22.6581 9.23399 22.6584 9.22303 22.6577C9.20702 22.6566 9.1844 22.6499 9.16144 22.6331C9.13847 22.6164 9.12523 22.5969 9.11928 22.582C9.11522 22.5718 9.10981 22.5537 9.1184 22.517L10.3048 17.4613C10.4748 16.7366 10.2278 15.9776 9.66377 15.4918L5.71762 12.0933L5.10256 12.8074L5.71762 12.0933C5.68896 12.0686 5.68273 12.0507 5.68004 12.0402C5.6761 12.0246 5.67534 12.001 5.68415 11.9738C5.69295 11.9467 5.70742 11.928 5.71973 11.9177C5.72812 11.9107 5.74364 11.8999 5.78132 11.8967L10.9868 11.4577C11.7238 11.3955 12.366 10.9312 12.656 10.2509L14.6966 5.46438C14.7113 5.43001 14.7263 5.41858 14.7357 5.4127C14.7493 5.40417 14.7714 5.39628 14.7997 5.39628C14.828 5.39628 14.8501 5.40417 14.8637 5.4127C14.8731 5.41858 14.8881 5.43001 14.9028 5.46438L16.9434 10.2509C17.2334 10.9312 17.8757 11.3955 18.6126 11.4577L23.8181 11.8967C23.8558 11.8999 23.8713 11.9107 23.8797 11.9177C23.892 11.928 23.9065 11.9467 23.9153 11.9738C23.9241 12.001 23.9233 12.0246 23.9194 12.0402C23.9167 12.0507 23.9105 12.0686 23.8818 12.0933L19.9356 15.4918C19.3717 15.9776 19.1246 16.7366 19.2946 17.4613L20.481 22.517C20.4896 22.5537 20.4842 22.5718 20.4801 22.582C20.4742 22.5969 20.4609 22.6164 20.438 22.6331C20.415 22.6499 20.3924 22.6566 20.3764 22.6577C20.3654 22.6584 20.3465 22.6581 20.3143 22.6387Z" fill="#FF5520" stroke="#FF5520" stroke-width="1.885"/>
</svg>
