<svg width="24" height="24" viewBox="0 0 24 24" fill="none" xmlns="http://www.w3.org/2000/svg">
<path fill-rule="evenodd" clip-rule="evenodd" d="M3.6 0C2.64522 0 1.72955 0.379285 1.05442 1.05442C0.379285 1.72955 0 2.64522 0 3.6V20.4C0 21.3548 0.379285 22.2705 1.05442 22.9456C1.72955 23.6207 2.64522 24 3.6 24H20.4C21.3548 24 22.2705 23.6207 22.9456 22.9456C23.6207 22.2705 24 21.3548 24 20.4V3.6C24 2.64522 23.6207 1.72955 22.9456 1.05442C22.2705 0.379285 21.3548 0 20.4 0H3.6ZM16.0104 12.4104L21.6 18V19.2C21.6 19.8365 21.3471 20.447 20.8971 20.8971C20.447 21.3471 19.8365 21.6 19.2 21.6H4.8C4.0176 21.6 3.474 21.3348 3.1056 20.9652L12.708 12.3228C13.165 11.9117 13.7622 11.6917 14.3767 11.708C14.9911 11.7243 15.5759 11.9757 16.0104 12.4104ZM7.2 4.8C6.56348 4.8 5.95303 5.05286 5.50294 5.50294C5.05286 5.95303 4.8 6.56348 4.8 7.2C4.8 7.83652 5.05286 8.44697 5.50294 8.89706C5.95303 9.34714 6.56348 9.6 7.2 9.6C7.83652 9.6 8.44697 9.34714 8.89706 8.89706C9.34714 8.44697 9.6 7.83652 9.6 7.2C9.6 6.56348 9.34714 5.95303 8.89706 5.50294C8.44697 5.05286 7.83652 4.8 7.2 4.8Z" fill="#D0D0D0"/>
</svg>
