<svg width="50" height="50" viewBox="0 0 50 50" fill="none" xmlns="http://www.w3.org/2000/svg">
<rect width="49.0909" height="49.0909" rx="24.5455" fill="black"/>
<path d="M31.3302 35.9167C29.9087 37.3416 28.3567 37.1166 26.8626 36.4417C25.2816 35.7517 23.8311 35.7218 22.163 36.4417C20.0743 37.3715 18.9719 37.1016 17.7244 35.9167C10.6459 28.3727 11.6903 16.8841 19.7261 16.4642C21.6843 16.5692 23.0478 17.574 24.1937 17.664C25.9053 17.3041 27.5444 16.2692 29.372 16.4042C31.5623 16.5842 33.2159 17.4841 34.3038 19.1039C29.7782 21.9085 30.8515 28.0727 35 29.7975C34.1732 32.0472 33.0998 34.2819 31.3157 35.9317L31.3302 35.9167ZM24.0486 16.3742C23.8311 13.0296 26.4565 10.27 29.4736 10C29.8942 13.8695 26.0794 16.7491 24.0486 16.3742Z" fill="white"/>
</svg>
