<svg width="20" height="20" viewBox="0 0 20 20" fill="none" xmlns="http://www.w3.org/2000/svg">
<path d="M2.9125 11.2368C2.9125 15.1462 6.09062 18.3243 10 18.3243C13.9094 18.3243 17.0875 15.1462 17.0875 11.2368C17.0875 7.32744 13.9094 4.14932 10 4.14932C6.09062 4.14932 2.9125 7.32744 2.9125 11.2368ZM4.19276 11.2368C4.19276 8.03567 6.79885 5.42958 10 5.42958C13.2011 5.42958 15.8072 8.03567 15.8072 11.2368C15.8072 14.438 13.2011 17.0441 10 17.0441C6.79885 17.0441 4.19276 14.438 4.19276 11.2368Z" fill="#9A9A9E" stroke="#9A9A9E" stroke-width="0.175"/>
<path d="M9.35977 11.0526C9.35977 11.403 9.64947 11.6927 9.9999 11.6927C10.3503 11.6927 10.64 11.403 10.64 11.0526V7.36837C10.64 7.01794 10.3503 6.72823 9.9999 6.72823C9.64947 6.72823 9.35977 7.01794 9.35977 7.36837V11.0526Z" fill="#9A9A9E" stroke="#9A9A9E" stroke-width="0.175"/>
<path d="M7.78945 3.58748H12.2105C12.5609 3.58748 12.8506 3.29778 12.8506 2.94735C12.8506 2.59692 12.5609 2.30721 12.2105 2.30721H7.78945C7.43902 2.30721 7.14932 2.59692 7.14932 2.94735C7.14932 3.29778 7.43902 3.58748 7.78945 3.58748Z" fill="#9A9A9E" stroke="#9A9A9E" stroke-width="0.175"/>
</svg>
