<svg width="38" height="38" viewBox="0 0 38 38" fill="none" xmlns="http://www.w3.org/2000/svg">
<path d="M27.1811 31.8985L20.417 27.9917C19.5401 27.4853 18.4597 27.4853 17.5828 27.9917L10.8187 31.8985C10.5647 32.0452 10.2587 31.8159 10.3281 31.5309L12.0727 24.3748C12.3294 23.3216 11.9627 22.2143 11.1282 21.5225L5.37542 16.7534C5.14528 16.5626 5.26323 16.1888 5.56118 16.1646L13.2687 15.5388C14.3035 15.4548 15.2095 14.8115 15.63 13.8622L18.6951 6.9416C18.8123 6.67714 19.1876 6.67713 19.3047 6.9416L22.3698 13.8622C22.7903 14.8115 23.6963 15.4548 24.7312 15.5388L32.4387 16.1646C32.7366 16.1888 32.8546 16.5626 32.6244 16.7534L26.8716 21.5225C26.0371 22.2143 25.6704 23.3216 25.9272 24.3748L27.6717 31.5309C27.7412 31.8159 27.4352 32.0452 27.1811 31.8985Z" stroke="#FF5520" stroke-width="2.5"/>
</svg>
