<svg width="20" height="20" viewBox="0 0 20 20" fill="none" xmlns="http://www.w3.org/2000/svg">
<path d="M10.7086 13.7562C10.2725 13.4945 9.72754 13.4945 9.29137 13.7562L6.19685 15.613C6.1746 15.6263 6.16158 15.6266 6.15402 15.6261C6.14297 15.6253 6.12738 15.6207 6.11154 15.6092C6.0957 15.5976 6.08657 15.5841 6.08247 15.5739C6.07966 15.5668 6.07593 15.5543 6.08186 15.5291L6.90005 12.0423C7.01732 11.5426 6.84693 11.0191 6.45798 10.6841L3.73649 8.34028C3.71673 8.32326 3.71243 8.31095 3.71058 8.30365C3.70785 8.29293 3.70734 8.27663 3.71341 8.2579C3.71948 8.23917 3.72946 8.22628 3.73795 8.21919C3.74373 8.21437 3.75443 8.20692 3.78042 8.20473L7.37042 7.90193C7.87865 7.85907 8.32158 7.53884 8.52161 7.06966L9.92892 3.76863C9.93902 3.74492 9.94938 3.73704 9.95585 3.73298C9.96524 3.7271 9.98049 3.72166 10 3.72166C10.0195 3.72166 10.0348 3.7271 10.0442 3.73298C10.0506 3.73704 10.061 3.74492 10.0711 3.76863L11.4784 7.06966C11.6784 7.53884 12.1213 7.85907 12.6296 7.90193L16.2196 8.20473C16.2456 8.20692 16.2563 8.21437 16.2621 8.21919C16.2705 8.22628 16.2805 8.23917 16.2866 8.2579C16.2927 8.27664 16.2921 8.29293 16.2894 8.30365C16.2876 8.31095 16.2833 8.32326 16.2635 8.34028L13.542 10.6841C13.1531 11.0191 12.9827 11.5426 13.1 12.0423L13.9181 15.5291C13.9241 15.5543 13.9203 15.5668 13.9175 15.5739C13.9134 15.5841 13.9043 15.5976 13.8885 15.6091C13.8726 15.6207 13.857 15.6253 13.846 15.6261C13.8384 15.6266 13.8254 15.6263 13.8032 15.613L10.7086 13.7562Z" stroke="#FF5520" stroke-width="1.3"/>
</svg>
