<svg width="24" height="24" viewBox="0 0 24 24" fill="none" xmlns="http://www.w3.org/2000/svg">
<path fill-rule="evenodd" clip-rule="evenodd" d="M6.9375 1C3.04439 1 0 4.44644 0 8.52393C0 10.6447 0.333214 12.3911 1.57539 14.2286C2.7606 15.9819 4.73148 17.7513 7.78961 20.0857L12 23L16.21 20.0859C19.2684 17.7515 21.2393 15.982 22.4246 14.2287C23.6668 12.3911 24 10.6447 24 8.52393C24 4.44644 20.9556 1 17.0625 1C15.1091 1 13.4182 1.81058 12 3.27728C10.5818 1.81058 8.89087 1 6.9375 1ZM6.9375 3.44444C4.53061 3.44444 2.4 5.62672 2.4 8.52393C2.4 9.19491 2.43728 9.78469 2.53023 10.3286C2.68592 11.2398 2.99777 12.0223 3.55217 12.8424C4.49439 14.2363 6.17833 15.8011 9.22988 18.1303L12 20.2493L14.7701 18.1303C17.8217 15.8011 19.5056 14.2363 20.4478 12.8424C21.3332 11.5327 21.6 10.3188 21.6 8.52393C21.6 5.62672 19.4694 3.44445 17.0625 3.44445C15.5797 3.44445 14.2201 4.161 12.964 5.88682C12.7377 6.19779 12.3801 6.38117 12 6.38117C11.6199 6.38117 11.2623 6.19779 11.036 5.88682C9.77986 4.161 8.42027 3.44444 6.9375 3.44444Z" fill="white"/>
</svg>
