<?xml version="1.0" encoding="UTF-8"?><svg id="_레이어_2" xmlns="http://www.w3.org/2000/svg" viewBox="0 0 36.92 43.78"><defs><style>.cls-1{stroke:#000;stroke-miterlimit:10;stroke-width:1.2px;}.cls-1,.cls-2{fill:#ffd503;}.cls-3,.cls-4,.cls-2,.cls-5,.cls-6,.cls-7{stroke-width:0px;}.cls-4{fill:#fff;}.cls-5{fill:#ff5520;}.cls-6{fill:#040000;}.cls-7{fill:#060001;}</style></defs><g id="_레이어_1-2"><path class="cls-4" d="m6.36,32.7l1.83,9.45c.16.81,1.04,1.27,1.81.93l8.87-3.92"/><path class="cls-3" d="m9.24,43.55c-.19-.03-.37-.08-.55-.17-.45-.24-.77-.66-.87-1.15l-1.83-9.45.73-.14,1.83,9.44c.05.28.23.52.48.64.25.13.55.14.81.02l8.87-3.92.3.67-8.87,3.92c-.29.13-.61.17-.91.13h0Z"/><path class="cls-5" d="m7.61,37.87l.92,4.73c.08.41.52.63.91.47l4.44-1.96"/><path class="cls-3" d="m8.65,43.47c.19.09.38.16.58.18.32.04.66,0,.97-.14l8.87-3.92.1-.04-.04-.1-.3-.67-.04-.1-.1.04-8.87,3.92c-.23.1-.49.1-.72-.02h0c-.22-.11-.38-.32-.43-.57l-1.83-9.44-.02-.1-.11.02-.73.14-.11.02.02.1,1.83,9.45c.1.53.44.98.92,1.23h0Z"/><path class="cls-3" d="m9.21,43.76c-.21-.03-.42-.09-.61-.19l.05-.1-.05.09c-.51-.26-.87-.74-.98-1.3l-1.87-9.65,1.15-.22.04.21,1.83,9.45c.04.22.18.4.37.49.2.1.43.11.62.02l9.07-4.01.48,1.06-.2.09-8.87,3.92c-.32.14-.68.19-1.03.15h0Zm-3.21-10.98l1.83,9.45c.1.5.41.92.87,1.15h.01c.43.22.98.25,1.44.04l8.87-3.92-.3-.67-8.87,3.92c-.26.12-.56.11-.81-.02-.25-.13-.43-.36-.48-.64l-1.83-9.44-.73.14Z"/><path class="cls-5" d="m28.25,1.66l3.79,1.96c2.36,1.22,3.28,4.12,2.05,6.46l-15.23,28.92-12.36-6.38L21.73,3.69c1.23-2.34,4.16-3.25,6.52-2.03Z"/><path class="cls-3" d="m18.97,39.59l.06.03.05-.04h0s.02-.02.02-.02v-.02s16.12-30.61,16.12-30.61c.96-1.82.24-4.08-1.6-5.03l-6.53-3.37c-1.84-.95-4.12-.24-5.08,1.58L5.91,32.72l-.05.09.09.05,13.02,6.72h0Zm-11.82-7.17L22.87,2.55c.72-1.36,2.41-1.89,3.79-1.18l6.53,3.37c1.37.71,1.91,2.39,1.19,3.75l-15.72,29.86-11.51-5.94h0Z"/><path class="cls-3" d="m19.04,39.74l-.12-.06-13.21-6.82L21.93,2.06c.99-1.87,3.33-2.6,5.22-1.63l6.53,3.37c.91.47,1.59,1.27,1.9,2.25.31.98.22,2.02-.26,2.92l-16.12,30.63-.05.05-.11.08h0Zm-13.04-6.97l13.02,6.72,16.12-30.61c.45-.86.54-1.84.24-2.76-.29-.92-.93-1.68-1.8-2.12l-6.53-3.37c-1.79-.92-4-.23-4.93,1.54L6,32.77h0Zm12.7,5.73l-11.7-6.04L22.78,2.5c.36-.68.97-1.19,1.71-1.42.74-.23,1.53-.16,2.22.19l6.53,3.37c.69.36,1.2.96,1.43,1.69.23.74.16,1.52-.2,2.2l-15.77,29.96Zm-11.42-6.13l11.32,5.85,15.67-29.77c.33-.63.4-1.36.18-2.04-.22-.68-.69-1.24-1.33-1.57l-6.53-3.37c-.64-.33-1.37-.39-2.06-.18-.69.21-1.25.68-1.58,1.31l-15.67,29.77h0Z"/><path class="cls-2" d="m26.91,1.33l6.16,3.18c1.55.8,2.16,2.7,1.35,4.24l-1.29,2.45-11.79-6.09,1.29-2.45c.81-1.54,2.73-2.14,4.28-1.33Z"/><path class="cls-3" d="m33.27,11.63l-12.36-6.38,1.44-2.73c.43-.82,1.16-1.42,2.05-1.7.89-.28,1.84-.19,2.67.23l6.16,3.18c.83.43,1.44,1.15,1.72,2.03.28.88.2,1.82-.23,2.64l-1.44,2.73h0Zm-11.5-6.65l11.22,5.79,1.14-2.17c.35-.67.42-1.43.19-2.15-.23-.72-.73-1.31-1.4-1.66l-6.16-3.18c-.68-.35-1.45-.42-2.18-.19-.73.23-1.32.72-1.67,1.39l-1.14,2.17h0Z"/><path class="cls-3" d="m24.75,7.18l-.04-.02-.02.04-14.4,27.37-.02.04.04.02.73.38.04.02.02-.04L25.5,7.61l.02-.04-.04-.02-.73-.38Z"/><path class="cls-3" d="m11.09,35.08l-.08-.04-.8-.42.04-.07L24.7,7.1l.88.45-.04.08-14.44,27.45Zm-.77-.49l.73.38L25.46,7.59l-.73-.38-14.4,27.37h0Z"/><path class="cls-3" d="m29.09,9.42l-.04-.02-.02.04-14.4,27.37-.02.04.04.02.73.38.04.02.02-.04,14.4-27.37.02-.04-.04-.02-.73-.38Z"/><path class="cls-3" d="m15.43,37.32l-.08-.04-.8-.42.04-.07,14.44-27.45.88.45-.04.08-14.44,27.45Zm-.77-.49l.73.38,14.4-27.37-.73-.38-14.4,27.37h0Z"/><path class="cls-1" d="m8.2,9.55l3.14,3.38c.2.22.5.32.79.28l4.59-.65c.74-.1,1.28.67.91,1.32l-2.28,4c-.15.25-.15.57-.02.83l2.04,4.13c.33.66-.25,1.41-.99,1.27l-4.55-.91c-.29-.06-.59.03-.8.23l-3.33,3.2c-.54.51-1.43.2-1.52-.54l-.54-4.56c-.03-.29-.21-.55-.47-.68l-4.1-2.15c-.66-.34-.63-1.29.04-1.6l4.22-1.91c.27-.12.46-.37.51-.66l.8-4.53c.13-.73,1.04-.99,1.55-.45h0Z"/><path class="cls-4" d="m35.47,17.94c1.61-2.97,1.33-6.22-.64-7.26-1.96-1.05-4.86.51-6.47,3.48-1.61,2.97-1.33,6.22.64,7.26,1.96,1.05,4.86-.51,6.47-3.48Z"/><path class="cls-6" d="m29.86,22.1c-.37-.05-.72-.16-1.05-.34-2.16-1.15-2.51-4.65-.8-7.81,1.71-3.16,4.86-4.79,7.02-3.64,1.07.57,1.74,1.72,1.87,3.23.13,1.45-.25,3.07-1.07,4.58-1.45,2.67-3.94,4.26-5.97,3.98Zm3.99-11.34c-1.7-.23-3.83,1.2-5.12,3.57-1.5,2.77-1.29,5.78.47,6.72,1.76.94,4.42-.55,5.93-3.32.74-1.37,1.09-2.83.97-4.13-.11-1.23-.62-2.16-1.45-2.6-.25-.13-.52-.22-.8-.26h0Z"/><path class="cls-3" d="m33.47,17.91c.91-1.68.75-3.51-.36-4.11-1.11-.59-2.75.29-3.66,1.97-.91,1.68-.75,3.51.36,4.1,1.11.59,2.75-.29,3.66-1.97h0Z"/><path class="cls-4" d="m31.62,18.32l1.42.75c.41.22.92.07,1.15-.34l.07-.12c.22-.41.07-.92-.34-1.13l-1.42-.75c-.41-.22-.92-.07-1.15.34l-.07.12c-.22.41-.07.92.34,1.13Z"/><path class="cls-4" d="m29.92,14.98c1.61-2.97,1.33-6.22-.64-7.26-1.96-1.05-4.86.51-6.47,3.48-1.61,2.97-1.33,6.22.64,7.26,1.96,1.05,4.86-.51,6.47-3.48Z"/><path class="cls-6" d="m24.31,19.15c-.37-.05-.72-.16-1.05-.34-2.16-1.15-2.51-4.65-.8-7.81,1.71-3.16,4.86-4.79,7.02-3.64,1.07.57,1.74,1.72,1.87,3.23.13,1.45-.25,3.07-1.07,4.58-1.45,2.67-3.94,4.26-5.97,3.98Zm3.99-11.34c-1.7-.23-3.83,1.2-5.12,3.57-1.5,2.77-1.29,5.78.47,6.73,1.76.94,4.42-.55,5.93-3.32.74-1.37,1.09-2.83.97-4.13-.11-1.23-.62-2.16-1.45-2.6-.25-.13-.52-.22-.8-.26h0Z"/><path class="cls-3" d="m27.92,14.96c.91-1.68.75-3.51-.36-4.11-1.11-.59-2.75.29-3.66,1.97-.91,1.68-.75,3.51.36,4.11,1.11.59,2.75-.29,3.66-1.97Z"/><path class="cls-4" d="m26.07,15.37l1.41.75c.41.22.92.07,1.15-.34l.07-.12c.22-.41.07-.92-.34-1.13l-1.41-.75c-.41-.22-.92-.07-1.15.34l-.07.12c-.22.41-.07.92.34,1.13Z"/><path class="cls-4" d="m28.58,23.39l-4.4.13c-1.07.03-1.78-1.1-1.27-2.04l2.08-3.84c.51-.94,1.85-.98,2.42-.07l2.31,3.7c.56.9-.07,2.08-1.14,2.11h0Z"/><path class="cls-7" d="m23.88,23.9c-.52-.07-.98-.37-1.27-.82-.34-.55-.37-1.21-.06-1.78l2.08-3.84c.31-.57.88-.92,1.53-.94.65-.02,1.24.3,1.59.84l2.31,3.7c.34.55.36,1.21.05,1.78-.32.59-.88.87-1.52.94l-4.4.13c-.11,0-.21,0-.31-.02Zm2.48-6.58c-.06,0-.11-.01-.17,0-.36.01-.67.2-.84.52l-2.08,3.84c-.17.31-.16.68.03.99.19.3.52.47.87.46l3.59-.11h0s.81-.03.81-.03c.36-.01.67-.2.84-.52.17-.31.16-.68-.03-.98l-2.31-3.7c-.16-.25-.42-.42-.71-.46h0Z"/></g></svg>