<svg width="211" height="170" viewBox="0 0 211 170" fill="none" xmlns="http://www.w3.org/2000/svg">
<path d="M138.836 62.184C138.992 58.1348 139.431 53.6075 140.534 52.1635L148.203 44.3481C154.282 38.1524 154.282 28.0246 148.203 21.8288C143.237 16.7649 135.694 15.8478 129.782 19.0578C129.05 11.3986 122.669 5.36871 114.98 5.36871H111.77C104.072 5.36871 97.6908 11.4083 96.9688 19.0578C91.056 15.8478 83.5138 16.7747 78.5475 21.8288C72.4688 28.0246 72.4688 38.1524 78.5475 44.3481L86.2165 52.1635C87.5922 53.9588 87.924 60.5253 87.9923 65.0037C81.0062 70.2238 75.7374 77.6098 73.1713 86.157C72.3322 88.528 71.7078 90.9282 71.2687 93.3284C71.1321 93.0552 70.976 92.7918 70.8004 92.5381L61.7263 74.2827C59.0334 70.214 53.5011 69.0919 49.4422 71.7849L36.1629 80.5857C32.0942 83.2787 30.9721 88.8109 33.6651 92.8698L46.9347 108.345C49.5886 112.355 55.0135 113.496 59.0627 110.93C58.1553 112.96 58.2333 115.389 59.5017 117.409L61.5897 120.736L62.3215 123.78C62.663 125.214 63.8339 126.239 65.1998 126.483L65.5413 127.029C67.5513 130.23 71.8151 131.205 75.0154 129.195L75.0837 129.147L79.2792 135.498C79.7476 136.211 80.5281 136.591 81.3185 136.591C81.777 136.591 82.2454 136.464 82.6649 136.191C83.7187 135.498 84.0407 134.132 83.4748 133.04C88.1484 137.821 93.9441 141.655 100.667 144.055C124.269 152.485 150.223 140.182 158.653 116.579C166.107 95.6896 157.326 72.9655 138.846 62.1742L138.836 62.184ZM70.576 102.949C70.4784 102.968 70.3808 102.988 70.2833 103.007C70.3808 102.881 70.4686 102.754 70.5662 102.627C70.5662 102.734 70.5662 102.842 70.576 102.949ZM39.0802 85.874C44.1344 88.2743 47.7933 93.0552 48.7495 98.5777C43.6758 96.1872 40.0462 91.3868 39.0802 85.874ZM46.7005 81.2102C51.579 83.9519 54.9159 88.967 55.4818 94.5383C50.5838 91.8161 47.2859 86.7717 46.7005 81.2102ZM53.7548 76.517C58.4772 79.5222 61.5312 84.713 61.7946 90.3037C57.0527 87.3181 54.0378 82.1078 53.7548 76.517Z" fill="white" stroke="white" stroke-width="10.6699" stroke-miterlimit="10"/>
<path d="M148.203 21.8385C143.237 16.7746 135.694 15.8575 129.782 19.0675C129.05 11.4083 122.669 5.37842 114.98 5.37842H111.77C104.072 5.37842 97.6908 11.418 96.9688 19.0675C91.056 15.8575 83.5138 16.7844 78.5475 21.8385C72.4689 28.0343 72.4689 38.1621 78.5475 44.3578L86.2165 52.1732C88.3631 54.9637 87.9728 69.3651 87.9728 69.3651C87.9728 72.9557 90.8511 75.8828 94.3734 75.8828H132.377C135.899 75.8828 138.778 72.9459 138.778 69.3651C138.778 69.3651 138.397 54.9637 140.534 52.1732L148.203 44.3578C154.282 38.1621 154.282 28.0343 148.203 21.8385Z" fill="white" stroke="#040000" stroke-width="2.55655" stroke-miterlimit="10"/>
<path d="M115.917 146.709C140.974 146.709 161.287 126.396 161.287 101.339C161.287 76.2817 140.974 55.9688 115.917 55.9688C90.8594 55.9688 70.5465 76.2817 70.5465 101.339C70.5465 126.396 90.8594 146.709 115.917 146.709Z" fill="white"/>
<path d="M112.589 139.177C135.324 139.177 153.754 120.747 153.754 98.0119C153.754 75.2771 135.324 56.8469 112.589 56.8469C89.8542 56.8469 71.4241 75.2771 71.4241 98.0119C71.4241 120.747 89.8542 139.177 112.589 139.177Z" fill="#FF5520"/>
<path d="M115.917 146.709C140.974 146.709 161.287 126.396 161.287 101.339C161.287 76.2817 140.974 55.9688 115.917 55.9688C90.8594 55.9688 70.5465 76.2817 70.5465 101.339C70.5465 126.396 90.8594 146.709 115.917 146.709Z" stroke="black" stroke-width="2.55655" stroke-miterlimit="10"/>
<path d="M139.646 77.6099C160.907 99.1047 146.251 135.459 115.917 136.142C96.8516 136.572 80.6646 120.395 81.1037 101.329C81.7867 70.9947 118.151 56.3396 139.646 77.6002V77.6099ZM139.646 77.6099C122.971 60.8864 94.3538 66.9552 85.8554 88.8793C75.63 115.555 101.701 141.626 128.377 131.41C150.281 122.961 156.369 94.2262 139.646 77.6099Z" fill="black"/>
<path d="M117.322 75.4438C117.322 75.4438 106.023 73.0436 98.3348 80.7712C92.4415 85.9912 90.8511 94.997 90.9194 100.324C90.9194 100.324 98.4031 78.1173 117.322 75.4438Z" fill="white"/>
<path d="M122.356 93.6502C127.756 93.6502 132.133 86.9709 132.133 78.7317C132.133 70.4924 127.756 63.8132 122.356 63.8132C116.957 63.8132 112.58 70.4924 112.58 78.7317C112.58 86.9709 116.957 93.6502 122.356 93.6502Z" fill="white" stroke="#040000" stroke-width="1.95141" stroke-miterlimit="10"/>
<path d="M121.918 91.1138C124.968 91.1138 127.44 87.3395 127.44 82.6837C127.44 78.0279 124.968 74.2537 121.918 74.2537C118.868 74.2537 116.395 78.0279 116.395 82.6837C116.395 87.3395 118.868 91.1138 121.918 91.1138Z" fill="black"/>
<path d="M119.868 79.6588H115.975C114.844 79.6588 113.926 80.5761 113.926 81.7077V82.0492C113.926 83.1808 114.844 84.0982 115.975 84.0982H119.868C121 84.0982 121.917 83.1808 121.917 82.0492V81.7077C121.917 80.5761 121 79.6588 119.868 79.6588Z" fill="white"/>
<path d="M107.096 93.6502C112.496 93.6502 116.873 86.9709 116.873 78.7317C116.873 70.4924 112.496 63.8132 107.096 63.8132C101.697 63.8132 97.3199 70.4924 97.3199 78.7317C97.3199 86.9709 101.697 93.6502 107.096 93.6502Z" fill="white" stroke="#040000" stroke-width="1.95141" stroke-miterlimit="10"/>
<path d="M106.52 91.1138C109.57 91.1138 112.042 87.3395 112.042 82.6837C112.042 78.0279 109.57 74.2537 106.52 74.2537C103.47 74.2537 100.997 78.0279 100.997 82.6837C100.997 87.3395 103.47 91.1138 106.52 91.1138Z" fill="black"/>
<path d="M104.47 79.6588H100.577C99.4458 79.6588 98.5284 80.5761 98.5284 81.7077V82.0492C98.5284 83.1808 99.4458 84.0982 100.577 84.0982H104.47C105.602 84.0982 106.519 83.1808 106.519 82.0492V81.7077C106.519 80.5761 105.602 79.6588 104.47 79.6588Z" fill="white"/>
<path d="M125.518 98.3731L116.288 103.7C114.034 104.998 111.214 103.378 111.214 100.773V90.1187C111.214 87.5135 114.034 85.8939 116.288 87.1916L125.518 92.5189C127.772 93.8166 127.772 97.0754 125.518 98.3731Z" fill="white" stroke="#060001" stroke-width="1.95141" stroke-miterlimit="10"/>
<path d="M114.999 29.8392C117.653 35.5276 117.673 42.4648 114.999 48.1532C112.326 42.4648 112.345 35.5373 114.999 29.8392Z" fill="#040000"/>
<path d="M104.12 29.8392C106.774 35.5276 106.794 42.4648 104.12 48.1532C101.447 42.4648 101.466 35.5373 104.12 29.8392Z" fill="#040000"/>
<path d="M125.83 29.8392C128.484 35.5276 128.504 42.4648 125.83 48.1532C123.157 42.4648 123.176 35.5373 125.83 29.8392Z" fill="#040000"/>
<path d="M68.0905 103.913L61.6614 107.949C58.4439 109.969 57.473 114.215 59.4929 117.433L65.5263 127.043C67.5462 130.261 71.792 131.232 75.0095 129.212L81.4386 125.176C84.6561 123.156 85.627 118.91 83.607 115.692L77.5737 106.082C75.5538 102.864 71.308 101.893 68.0905 103.913Z" fill="white" stroke="#040000" stroke-width="1.95141" stroke-miterlimit="10"/>
<path d="M83.3479 132.825L65.9121 106.412L68.3026 104.822C72.3713 102.129 73.4933 96.5968 70.8004 92.5379L61.7263 74.2825C59.0334 70.2138 53.5011 69.0917 49.4422 71.7847L36.1629 80.5855C32.0942 83.2784 30.9721 88.8107 33.6651 92.8696L46.9347 108.344C49.6276 112.413 55.1598 113.535 59.2188 110.842L61.8434 109.105L79.2792 135.508C79.7476 136.22 80.5281 136.601 81.3185 136.601C81.777 136.601 82.2454 136.474 82.6649 136.201C83.787 135.459 84.0992 133.947 83.3577 132.825H83.3479ZM61.8044 90.3133C57.0625 87.3276 54.0475 82.1174 53.7646 76.5266C58.487 79.5317 61.5409 84.7225 61.8044 90.3133ZM39.09 85.8836C44.1441 88.2838 47.803 93.0648 48.7592 98.5872C43.6856 96.1968 40.0559 91.3963 39.09 85.8836ZM46.7102 81.2197C51.5888 83.9614 54.9257 88.9766 55.4916 94.5478C50.5935 91.8256 47.2957 86.7812 46.7102 81.2197Z" fill="#040000"/>
<path d="M72.0018 112.796L63.8412 114.749C61.9074 115.212 60.7149 117.155 61.1778 119.088L62.3042 123.795C62.7671 125.729 64.7099 126.921 66.6437 126.458L74.8043 124.505C76.7381 124.042 77.9306 122.099 77.4677 120.166L76.3412 115.459C75.8784 113.525 73.9356 112.333 72.0018 112.796Z" fill="white" stroke="#040000" stroke-width="1.95141" stroke-miterlimit="10"/>
<path d="M47.4965 38.8654C47.4965 38.8654 45.8618 14.0242 29.0214 16.9487C12.1876 19.8707 22.764 38.0916 31.435 32.2852C40.1061 26.4787 28.167 2.9638 5.0343 15.0328" stroke="#080808" stroke-width="8.29121" stroke-linecap="round" stroke-linejoin="round"/>
<path d="M47.4965 38.8654C47.4965 38.8654 45.8618 14.0242 29.0214 16.9487C12.1876 19.8707 22.764 38.0916 31.435 32.2852C40.1061 26.4787 28.167 2.9638 5.0343 15.0328" stroke="#06B24B" stroke-width="3.51061" stroke-linecap="round" stroke-linejoin="round"/>
<path d="M7.8557 58.1282C7.56263 61.1001 9.73426 63.7469 12.7062 64.0399C15.6781 64.333 18.3249 62.1614 18.6179 59.1895C18.911 56.2176 16.7394 53.5708 13.7674 53.2777C10.7955 52.9846 8.14876 55.1563 7.8557 58.1282Z" fill="#FF5520" stroke="black" stroke-width="2.36892" stroke-miterlimit="10"/>
<path d="M171.746 85.5304C171.541 87.6081 173.059 89.4585 175.137 89.6634C177.214 89.8683 179.065 88.3501 179.27 86.2724C179.475 84.1947 177.956 82.3443 175.879 82.1394C173.801 81.9345 171.951 83.4527 171.746 85.5304Z" fill="#6A87EC" stroke="black" stroke-width="2.36892" stroke-miterlimit="10"/>
<path d="M188.918 146.528C188.713 148.606 190.232 150.456 192.309 150.661C194.387 150.866 196.237 149.348 196.442 147.27C196.647 145.192 195.129 143.342 193.051 143.137C190.974 142.932 189.123 144.45 188.918 146.528Z" fill="#FF5520" stroke="black" stroke-width="2.36892" stroke-miterlimit="10"/>
<path d="M166.711 138.884C166.342 142.628 169.077 145.962 172.821 146.331C176.565 146.7 179.899 143.965 180.268 140.221C180.637 136.477 177.901 133.143 174.158 132.774C170.414 132.405 167.08 135.141 166.711 138.884Z" fill="#06B24B" stroke="black" stroke-width="2.36892" stroke-miterlimit="10"/>
<rect x="205.866" y="37.8064" width="6.31988" height="37.286" rx="3.15994" transform="rotate(56.4508 205.866 37.8064)" fill="#FF5520" stroke="black" stroke-width="2.36892"/>
<rect x="177.711" y="17.6572" width="6.31988" height="19.2484" rx="3.15994" transform="rotate(31.439 177.711 17.6572)" fill="#FFD503" stroke="black" stroke-width="2.36892"/>
<rect x="59.7598" y="149.164" width="6.31988" height="19.2484" rx="3.15994" transform="rotate(37.3862 59.7598 149.164)" fill="#FFD503" stroke="black" stroke-width="2.36892"/>
<rect x="38.5679" y="138.459" width="6.31988" height="34.0809" rx="3.15994" transform="rotate(60.3813 38.5679 138.459)" fill="#6A87EC" stroke="black" stroke-width="2.36892"/>
</svg>
