<svg width="16" height="16" viewBox="0 0 16 16" fill="none" xmlns="http://www.w3.org/2000/svg">
<g clip-path="url(#clip0_1110_3864)">
<path fill-rule="evenodd" clip-rule="evenodd" d="M4.625 0.666748C2.02959 0.666748 0 2.96437 0 5.6827C0 7.09656 0.222143 8.2608 1.05026 9.48585C1.8404 10.6547 3.15432 11.8343 5.19307 13.3905L8 15.3334L10.8067 13.3907C12.8456 11.8344 14.1596 10.6548 14.9497 9.48585C15.7779 8.2608 16 7.09656 16 5.6827C16 2.96438 13.9704 0.66675 11.375 0.66675C10.0728 0.66675 8.94544 1.20714 8 2.18493C7.05456 1.20714 5.92725 0.666748 4.625 0.666748ZM4.625 2.29638C3.02041 2.29638 1.6 3.75123 1.6 5.6827C1.6 6.13002 1.62486 6.52321 1.68682 6.88585C1.79061 7.49326 1.99851 8.01495 2.36811 8.5617C2.99626 9.49092 4.11888 10.5341 6.15325 12.087L8 13.4996L9.84675 12.087C11.8811 10.5341 13.0037 9.49093 13.6319 8.5617C14.2221 7.68853 14.4 6.87927 14.4 5.6827C14.4 3.75123 12.9796 2.29638 11.375 2.29638C10.3865 2.29638 9.48009 2.77408 8.64266 3.92463C8.49177 4.13194 8.25338 4.25419 8 4.25419C7.74663 4.25419 7.50823 4.13194 7.35734 3.92463C6.51991 2.77408 5.61352 2.29638 4.625 2.29638Z" fill="#D0D0D0"/>
</g>
<defs>
<clipPath id="clip0_1110_3864">
<rect width="16" height="16" fill="white"/>
</clipPath>
</defs>
</svg>
