<svg width="240" height="82" viewBox="0 0 240 82" fill="none" xmlns="http://www.w3.org/2000/svg">
<path d="M38.8017 72.9387C58.4831 72.9387 74.4381 56.9838 74.4381 37.3023C74.4381 17.6209 58.4831 1.66589 38.8017 1.66589C19.1202 1.66589 3.16527 17.6209 3.16527 37.3023C3.16527 56.9838 19.1202 72.9387 38.8017 72.9387Z" fill="#FF5520"/>
<path d="M4.69411 26.9716C16.8911 -6.34198 62.4945 -8.98578 78.4925 22.7398C88.4849 42.7331 79.5314 67.845 59.1328 76.9927C26.6554 91.428 -6.96227 60.471 4.70255 26.9716H4.69411ZM4.69411 26.9716C-2.57846 47.1253 8.43597 69.7032 28.7671 76.3676C48.1268 83.0996 70.4935 72.1612 77.0903 52.8184C84.2447 33.6698 73.8722 11.0328 54.6138 3.97983C34.6544 -3.73196 11.8315 6.76722 4.70255 26.9716H4.69411Z" fill="black"/>
<path d="M69.9216 48.6774C62.9517 73.9356 29.0025 78.6955 15.4157 56.1356C6.73212 41.8253 12.0271 22.4249 26.7853 14.5263C49.9524 2.00308 76.7763 23.3877 69.9289 48.6732L69.9216 48.6774ZM69.9216 48.6774C74.1605 33.5269 64.6596 17.3587 49.3359 13.8216C34.8986 10.0996 19.1318 19.4686 15.5103 33.8096C11.3284 48.0036 20.1326 64.0929 34.4681 68.2329C49.4686 72.9757 65.867 63.8783 69.9216 48.6774Z" fill="black"/>
<path d="M51.4465 42.7162L39.0046 49.9043C37.0534 51.0277 34.6123 49.6256 34.6123 47.3703V33.0026C34.6123 30.7473 37.0534 29.3452 39.0046 30.4686L51.4465 37.6567C53.3977 38.7801 53.3977 41.6013 51.4465 42.7247V42.7162Z" fill="white"/>
<path d="M42.8985 17.7735C42.8985 17.7735 33.1173 15.6956 26.4614 22.3853C21.3596 26.9043 19.9828 34.7006 20.0419 39.3124C20.0419 39.3124 26.5205 20.0879 42.8985 17.7735Z" fill="white"/>
<path d="M108.172 62.2337C113.113 60.7034 116.786 56.3747 115.912 53.4453C115.125 50.7781 110.053 50.9093 105.637 52.3084C104.237 58.8232 104.543 65.7753 106.686 72.2464C107.56 74.5637 103.8 75.8317 102.969 73.6892C100.302 66.7809 100.04 55.5003 102.532 48.0673C103.144 46.3183 106.38 46.7556 106.511 48.5482C111.408 47.3677 118.71 47.63 120.065 52.221C121.552 58.0362 115.824 64.1575 109.003 66.1251C106.861 66.7372 105.549 62.977 108.172 62.2337Z" fill="#FF5520"/>
<path d="M139.811 72.9897C136.226 74.5637 131.547 74.9135 127.525 74.52C125.688 74.3451 124.376 73.3395 124.114 71.984C122.759 64.551 123.415 56.0687 124.901 48.4608C125.338 46.056 129.798 46.6681 129.099 49.379C127.831 55.4565 127.262 64.0263 128.355 70.4537C128.399 70.7598 128.574 70.8035 128.967 70.8472C131.416 70.9347 135.701 70.6723 138.324 69.4481C140.554 68.355 142.041 72.0715 139.811 72.9897Z" fill="#FF5520"/>
<path d="M176.185 48.6357C176.71 53.2704 178.547 57.5553 180.733 60.135C182.307 62.0588 179.202 64.8571 177.497 62.8458C174.437 59.2605 172.425 53.7513 171.944 49.2041C171.682 46.5369 175.967 45.9685 176.185 48.6357ZM181.083 72.771C180.383 62.8021 183.05 53.0955 191.838 47.7175C194.2 46.0997 196.648 49.685 194.2 51.2154C186.46 56.331 184.843 63.8077 185.236 72.6836C185.367 75.3945 181.214 75.1758 181.083 72.771Z" fill="#FF5520"/>
<path d="M209.556 51.0842C209.993 58.2548 209.818 65.3818 209.163 73.1208C208.988 75.4382 204.615 75.2196 204.878 72.6399C205.577 65.6878 205.534 58.4735 205.096 51.2154C202.823 51.3465 200.462 51.5651 198.101 51.8712C195.958 52.1335 195.696 48.5045 197.838 48.2422C202.385 47.4989 211.13 47.1053 215.94 47.5426C218.301 47.6737 218.038 51.3465 215.59 51.2154C213.622 51.1279 211.611 51.0405 209.556 51.0842Z" fill="#FF5520"/>
<path d="M238.364 71.8529C235.959 73.5143 228.482 75.307 224.547 74.1702C223.104 73.733 221.749 73.1208 221.049 71.3719C218.994 66.6498 219.781 57.5553 220.874 52.5271C219.388 52.0024 219.475 49.1166 221.355 48.898C225.684 48.3296 230.013 47.9798 234.691 48.3296C236.965 48.417 237.139 51.9149 234.604 51.7838C231.499 51.7838 228.307 51.8712 225.203 52.1335C223.935 58.1237 223.148 66.0814 225.203 70.2351C226.996 71.5031 234.385 69.929 236.178 68.661C238.582 67.2182 240.594 70.2351 238.364 71.8529ZM237.008 58.7795C239.501 58.2986 240.331 61.709 237.839 62.3211C235.259 62.977 230.537 63.4142 227.608 63.5017C225.247 63.5891 225.072 59.9163 227.433 59.8289C230.494 59.6977 234.822 59.2605 237.008 58.7795Z" fill="#FF5520"/>
<path d="M119.397 27.498C117.48 28.3399 114.977 28.527 112.826 28.3166C111.843 28.223 111.142 27.6851 111.001 26.9601C110.277 22.9843 110.627 18.4472 111.422 14.3779C111.656 13.0916 114.042 13.419 113.668 14.869C112.989 18.1198 112.685 22.7037 113.27 26.1416C113.293 26.3053 113.387 26.3287 113.597 26.352C114.907 26.3988 117.199 26.2585 118.602 25.6037C119.795 25.019 120.59 27.0069 119.397 27.498ZM128.902 27.4512C128.2 27.919 126.843 28.527 125.136 28.4101C122.283 28.2698 120.248 26.2351 120.506 23.1948C120.739 20.6222 122.517 18.3771 125.323 18.2601C128.831 18.0731 130.001 20.7158 129.86 22.1658C129.814 22.8206 129.393 23.4988 128.925 23.7093C127.709 24.3174 124.458 24.4811 122.774 24.4811C122.961 25.6037 123.873 26.4456 125.37 26.4924C126.306 26.5158 127.171 26.3053 127.943 25.744C128.995 25.019 130.024 26.7964 128.902 27.4512ZM125.417 20.1779C124.271 20.2714 122.985 21.1134 122.844 22.6803C124.411 22.6803 127.101 22.5166 127.545 22.1892C127.872 21.9553 127.756 20.0609 125.417 20.1779ZM132.842 21.2771H131.673C130.48 21.2771 130.387 19.219 131.603 19.219H133.053C133.216 17.6755 133.474 16.1787 133.754 15.1029C134.058 13.7698 136.303 14.1674 135.976 15.4771C135.719 16.5763 135.485 17.886 135.298 19.1722C136.327 19.1489 137.356 19.0787 138.268 18.9384C139.414 18.7747 139.671 20.7158 138.525 20.9263C137.73 21.09 136.397 21.1601 135.064 21.2069C134.97 22.1892 134.947 23.0779 134.947 23.7561C134.947 24.9254 135.064 26.1182 135.438 26.3287C135.789 26.4924 137.262 25.7206 138.081 25.1125C139.18 24.294 140.349 26.0012 139.32 26.9133C138.338 27.6851 135.836 28.7843 134.503 28.2698C133.24 27.8254 132.725 26.3053 132.725 23.99C132.725 23.265 132.772 22.3061 132.842 21.2771ZM142.908 17.2311C142.183 18.2601 140.523 17.4416 141.154 16.2723C141.575 15.5005 141.832 14.7287 141.926 13.7465C141.692 12.9045 142.323 12.086 143.282 12.1328C144.031 12.1795 144.498 12.7408 144.405 13.6061C144.288 14.869 143.54 16.3892 142.908 17.2311ZM155.515 25.4633C155.398 27.3343 153.715 28.3633 151.633 28.4335C149.832 28.5037 148.172 27.919 146.956 26.9601C145.903 26.1182 147.423 24.4577 148.195 25.2996C148.873 26.048 150.557 26.5391 151.586 26.4924C152.382 26.4456 153.223 26.2351 153.223 25.4166C153.223 24.5045 151.961 24.1303 150.885 24.0601C148.125 23.873 146.909 22.3996 147.213 20.9263C147.681 18.6811 151.072 17.6521 153.387 17.5118C154.673 17.4416 154.837 19.5698 153.551 19.64C151.657 19.7335 149.856 20.1545 149.528 21.1835C149.411 21.5343 149.762 22.0488 151.399 22.1658C153.527 22.3295 155.679 23.2182 155.515 25.4633ZM160.42 23.873C160.303 25.2762 158.199 25.2529 158.199 23.8263C158.222 20.8561 158.269 17.7924 158.386 13.8868C158.433 12.2029 161.028 12.39 160.935 13.9336C160.631 18.611 160.631 20.6924 160.42 23.873ZM160.865 28.0125C160.865 28.8778 160.187 29.5561 159.298 29.5561C158.433 29.5561 157.754 28.8778 157.754 28.0125C157.754 27.1238 158.433 26.4456 159.298 26.4456C160.187 26.4456 160.865 27.1238 160.865 28.0125Z" fill="#FF5520"/>
<rect x="97.8023" y="5.80233" width="77.3953" height="30.3953" rx="15.1977" stroke="#FF5520" stroke-width="1.60465"/>
<path d="M147.597 50.7174C147.597 49.1596 149.285 48.1786 150.646 48.9609C150.646 48.9611 150.647 48.9613 150.647 48.9615L167.776 58.8575L167.779 58.859C169.068 59.6011 169.126 61.4172 167.955 62.2573L167.776 62.3606L150.647 72.2567C150.647 72.2568 150.647 72.2569 150.646 72.257C149.286 73.0398 147.597 72.0588 147.597 70.5008V50.7174Z" fill="white" stroke="#FF5520" stroke-width="4"/>
</svg>
