<svg width="20" height="20" viewBox="0 0 20 20" fill="none" xmlns="http://www.w3.org/2000/svg">
<g clip-path="url(#clip0_1029_1567)">
<path fill-rule="evenodd" clip-rule="evenodd" d="M5.31429 16.0201C5.22529 15.4625 4.96982 14.9579 4.59833 14.5548C2.89381 13.2219 1.81818 11.2685 1.81818 9.09175C1.81818 5.07476 5.48131 1.81835 10 1.81835C14.5187 1.81835 18.1818 5.07476 18.1818 9.09175C18.1818 13.1087 14.5187 16.3651 10 16.3651C9.23148 16.3651 8.4877 16.2709 7.78249 16.0948C7.68536 16.0706 7.58352 16.1106 7.52841 16.1942C7.41689 16.3633 7.29392 16.5335 7.16108 16.6992C6.95213 16.9599 6.71877 17.2097 6.4672 17.4275C5.99585 17.8357 5.46056 18.1317 4.90211 18.1774C4.88333 18.1789 4.86452 18.1801 4.84568 18.1811C4.80787 18.183 4.78635 18.1397 4.80867 18.1092C4.81917 18.0948 4.82954 18.0803 4.83978 18.0657C5.1613 17.6074 5.34906 17.0548 5.34906 16.46C5.34906 16.4483 5.34899 16.4366 5.34884 16.425C5.34714 16.2875 5.33539 16.1523 5.31429 16.0201ZM3.3293 15.8683C1.32375 14.2357 0 11.8287 0 9.09175C0 3.87509 4.68439 0 10 0C15.3156 0 20 3.87509 20 9.09175C20 14.3084 15.3156 18.1835 10 18.1835C9.45258 18.1835 8.91428 18.1434 8.38874 18.0661C8.12369 18.3729 7.82513 18.6711 7.49563 18.9376C6.86838 19.4448 5.99532 19.943 4.93855 19.9971L4.93853 19.9971C3.22851 20.0845 2.50153 18.1862 3.34002 17.0372C3.46393 16.8674 3.53088 16.6709 3.53088 16.46C3.53088 16.2455 3.46101 16.0423 3.3293 15.8683Z" fill="white"/>
<circle cx="10" cy="9.58337" r="1.25" fill="white"/>
<circle cx="5.83325" cy="9.58337" r="1.25" fill="white"/>
<circle cx="14.1665" cy="9.58337" r="1.25" fill="white"/>
</g>
<defs>
<clipPath id="clip0_1029_1567">
<rect width="20" height="20" fill="white"/>
</clipPath>
</defs>
</svg>
