<svg width="24" height="24" viewBox="0 0 24 24" fill="none" xmlns="http://www.w3.org/2000/svg">
<g clip-path="url(#clip0_1094_2303)">
<path fill-rule="evenodd" clip-rule="evenodd" d="M6.37715 19.2241C6.27035 18.555 5.96378 17.9495 5.518 17.4658C3.47257 15.8663 2.18182 13.5222 2.18182 10.9101C2.18182 6.08972 6.57757 2.18202 12 2.18202C17.4224 2.18202 21.8182 6.08972 21.8182 10.9101C21.8182 15.7305 17.4224 19.6382 12 19.6382C11.0778 19.6382 10.1852 19.5251 9.33898 19.3138C9.22243 19.2847 9.10022 19.3327 9.03409 19.433C8.90027 19.636 8.75271 19.8402 8.5933 20.039C8.34256 20.3519 8.06253 20.6516 7.76064 20.913C7.19502 21.4028 6.55267 21.7581 5.88253 21.8128C5.85999 21.8147 5.83742 21.8162 5.81482 21.8173C5.76945 21.8196 5.74362 21.7677 5.7704 21.731C5.78301 21.7137 5.79545 21.6963 5.80774 21.6788C6.19356 21.1289 6.41887 20.4658 6.41887 19.752C6.41887 19.738 6.41879 19.724 6.41861 19.71C6.41656 19.545 6.40247 19.3827 6.37715 19.2241ZM3.99516 19.042C1.5885 17.0829 0 14.1944 0 10.9101C0 4.65011 5.62127 0 12 0C18.3787 0 24 4.65011 24 10.9101C24 17.1701 18.3787 21.8202 12 21.8202C11.3431 21.8202 10.6971 21.7721 10.0665 21.6793C9.74843 22.0475 9.39015 22.4053 8.99475 22.7251C8.24205 23.3337 7.19438 23.9316 5.92627 23.9965L5.92623 23.9965C3.87421 24.1014 3.00184 21.8234 4.00802 20.4447C4.15672 20.2409 4.23706 20.0051 4.23706 19.752C4.23706 19.4946 4.15321 19.2507 3.99516 19.042Z" fill="white"/>
<circle cx="12" cy="11.5" r="1.5" fill="white"/>
<circle cx="7" cy="11.5" r="1.5" fill="white"/>
<circle cx="17" cy="11.5" r="1.5" fill="white"/>
</g>
<defs>
<clipPath id="clip0_1094_2303">
<rect width="24" height="24" fill="white"/>
</clipPath>
</defs>
</svg>
