<svg width="174" height="80" viewBox="0 0 174 80" fill="none" xmlns="http://www.w3.org/2000/svg">
<rect x="0.5" y="0.5" width="173" height="79" rx="7.5" fill="#FFEDB3" fill-opacity="0.25" stroke="#FDE598"/>
<mask id="mask0_1783_3540" style="mask-type:alpha" maskUnits="userSpaceOnUse" x="0" y="0" width="174" height="80">
<rect width="174" height="80" rx="8" fill="#FFDAD2"/>
</mask>
<g mask="url(#mask0_1783_3540)">
<path d="M195.5 39.5C195.5 65.9815 173.59 87.5 146.5 87.5C119.41 87.5 97.5 65.9815 97.5 39.5C97.5 13.0185 119.41 -8.5 146.5 -8.5C173.59 -8.5 195.5 13.0185 195.5 39.5Z" fill="#FFD503" stroke="white" stroke-width="3"/>
</g>
<path d="M156.663 28.6598H145.638C145.013 26.0094 143.357 24.1104 141.404 24.1104C139.977 24.1104 138.713 25.1229 137.885 26.6978C137.057 25.1229 135.792 24.1104 134.366 24.1104C132.413 24.1104 130.757 26.0094 130.131 28.6598H119.678C117.581 28.6598 115.866 30.6848 115.866 33.1598V55.2728C115.866 57.1763 117.581 58.7333 119.678 58.7333H156.663C158.76 58.7333 160.475 57.1763 160.475 55.2728V33.1598C160.475 30.6848 158.76 28.6598 156.663 28.6598Z" fill="white" stroke="white" stroke-width="4.5" stroke-miterlimit="10"/>
<path d="M160.475 33.1599C160.475 30.6849 158.76 28.6599 156.663 28.6599H119.678C117.581 28.6599 115.866 30.6849 115.866 33.1599V40.5174H130.55C130.415 41.1969 130.343 41.8989 130.343 42.6279C130.343 47.7309 133.848 51.8709 138.173 51.8709C142.497 51.8709 146.003 47.7309 146.003 42.6279C146.003 41.9034 145.931 41.1969 145.796 40.5174H160.479V33.1599H160.475Z" fill="#FFC9BB" stroke="black" stroke-width="1.3" stroke-miterlimit="10"/>
<path d="M160.475 37.0884C160.475 34.6134 158.76 32.5884 156.663 32.5884H119.678C117.581 32.5884 115.866 34.6134 115.866 37.0884V44.4459H130.55C130.415 45.1254 130.343 45.8274 130.343 46.5564C130.343 51.6594 133.848 55.7994 138.173 55.7994C142.497 55.7994 146.003 51.6594 146.003 46.5564C146.003 45.8319 145.931 45.1254 145.796 44.4459H160.479V37.0884H160.475Z" fill="#FFC9BB" stroke="black" stroke-width="1.3" stroke-miterlimit="10"/>
<path d="M152.58 31.7688L120.378 38.0975C118.356 38.4948 117.039 40.4557 117.436 42.4774L119.206 51.4806C119.603 53.5023 121.564 54.819 123.586 54.4217L155.788 48.0931C157.81 47.6958 159.127 45.7348 158.729 43.7132L156.96 34.7099C156.563 32.6883 154.602 31.3715 152.58 31.7688Z" fill="#06B24B" stroke="black" stroke-width="1.125" stroke-miterlimit="10"/>
<path d="M144.185 40.9223C143.609 40.9223 143.123 41.2823 142.961 41.7863C142.322 43.7258 140.342 45.1433 137.997 45.1433C135.653 45.1433 133.655 43.7168 133.029 41.7593C132.867 41.2508 132.377 40.8908 131.796 40.8863C128.093 40.8773 115.866 40.8728 115.866 40.8728V55.2728C115.866 57.1763 117.581 58.7333 119.678 58.7333H156.663C158.76 58.7333 160.475 57.1763 160.475 55.2728V40.8728C160.475 40.8728 147.924 40.8998 144.185 40.9223Z" fill="#FF5520" stroke="black" stroke-width="1.3" stroke-miterlimit="10"/>
<path d="M134.366 37.8713C136.856 37.8713 138.875 34.7908 138.875 30.9908C138.875 27.1909 136.856 24.1104 134.366 24.1104C131.876 24.1104 129.857 27.1909 129.857 30.9908C129.857 34.7908 131.876 37.8713 134.366 37.8713Z" fill="white" stroke="#040000" stroke-width="0.899999" stroke-miterlimit="10"/>
<path d="M132.912 36.1569C134.319 36.1569 135.459 34.4161 135.459 32.2689C135.459 30.1216 134.319 28.3809 132.912 28.3809C131.506 28.3809 130.365 30.1216 130.365 32.2689C130.365 34.4161 131.506 36.1569 132.912 36.1569Z" fill="black"/>
<path d="M133.862 33.6638H135.657C136.179 33.6638 136.602 33.2407 136.602 32.7188V32.5613C136.602 32.0394 136.179 31.6163 135.657 31.6163H133.862C133.34 31.6163 132.917 32.0394 132.917 32.5613V32.7188C132.917 33.2407 133.34 33.6638 133.862 33.6638Z" fill="white"/>
<path d="M141.404 37.8713C143.894 37.8713 145.913 34.7908 145.913 30.9908C145.913 27.1909 143.894 24.1104 141.404 24.1104C138.914 24.1104 136.895 27.1909 136.895 30.9908C136.895 34.7908 138.914 37.8713 141.404 37.8713Z" fill="white" stroke="#040000" stroke-width="0.899999" stroke-miterlimit="10"/>
<path d="M139.95 36.1569C141.357 36.1569 142.497 34.4161 142.497 32.2689C142.497 30.1216 141.357 28.3809 139.95 28.3809C138.544 28.3809 137.403 30.1216 137.403 32.2689C137.403 34.4161 138.544 36.1569 139.95 36.1569Z" fill="black"/>
<path d="M140.895 33.6638H142.691C143.213 33.6638 143.636 33.2407 143.636 32.7188V32.5613C143.636 32.0394 143.213 31.6163 142.691 31.6163H140.895C140.374 31.6163 139.95 32.0394 139.95 32.5613V32.7188C139.95 33.2407 140.374 33.6638 140.895 33.6638Z" fill="white"/>
<path d="M133.839 36.5213L138.096 34.0643C139.136 33.4658 140.436 34.2128 140.436 35.4143V40.3283C140.436 41.5298 139.136 42.2768 138.096 41.6783L133.839 39.2213C132.8 38.6228 132.8 37.1198 133.839 36.5213Z" fill="white" stroke="#060001" stroke-width="0.899999" stroke-miterlimit="10"/>
<path d="M157.639 46.7993C154.921 52.8165 147.637 54.8993 144.617 54.8993H154.242C158.117 54.8993 157.639 49.6922 157.639 46.7993Z" fill="white"/>
<path d="M160.911 11.9815C159.586 11.3676 157.991 11.8472 157.007 12.8159C157.112 11.4403 156.447 9.91327 155.121 9.29858C153.415 8.50828 151.39 9.25095 150.6 10.9564C148.404 15.6955 152.985 21.4972 152.985 21.4972C152.985 21.4972 160.372 21.2418 162.568 16.5027C163.359 14.7955 162.616 12.7718 160.911 11.9815Z" fill="white" stroke="white" stroke-width="3.67184" stroke-miterlimit="10"/>
<path d="M160.911 11.9815C159.586 11.3676 157.991 11.8472 157.007 12.8159C157.112 11.4403 156.447 9.91327 155.121 9.29858C153.415 8.50828 151.39 9.25095 150.6 10.9564C148.404 15.6955 152.985 21.4972 152.985 21.4972C152.985 21.4972 160.372 21.2418 162.568 16.5027C163.359 14.7955 162.616 12.7718 160.911 11.9815Z" fill="#FF5520" stroke="black" stroke-width="1.08527" stroke-miterlimit="10"/>
</svg>
