<svg width="55" height="58" viewBox="0 0 55 58" fill="none" xmlns="http://www.w3.org/2000/svg">
<path d="M44.6634 25.6598H33.6384C33.0129 23.0094 31.3569 21.1104 29.4039 21.1104C27.9774 21.1104 26.7129 22.1229 25.8849 23.6978C25.0569 22.1229 23.7924 21.1104 22.3659 21.1104C20.4129 21.1104 18.7569 23.0094 18.1314 25.6598H7.67795C5.58095 25.6598 3.86646 27.6848 3.86646 30.1598V52.2728C3.86646 54.1763 5.58095 55.7333 7.67795 55.7333H44.6634C46.7604 55.7333 48.4749 54.1763 48.4749 52.2728V30.1598C48.4749 27.6848 46.7604 25.6598 44.6634 25.6598Z" fill="white" stroke="white" stroke-width="4.5" stroke-miterlimit="10"/>
<path d="M48.4749 30.1599C48.4749 27.6849 46.7604 25.6599 44.6634 25.6599H7.67795C5.58095 25.6599 3.86646 27.6849 3.86646 30.1599V37.5174H18.5499C18.4149 38.1969 18.3429 38.8989 18.3429 39.6279C18.3429 44.7309 21.8484 48.8709 26.1729 48.8709C30.4974 48.8709 34.0029 44.7309 34.0029 39.6279C34.0029 38.9034 33.9309 38.1969 33.7959 37.5174H48.4794V30.1599H48.4749Z" fill="#FFC9BB" stroke="black" stroke-width="1.3" stroke-miterlimit="10"/>
<path d="M48.4749 34.0884C48.4749 31.6134 46.7604 29.5884 44.6634 29.5884H7.67795C5.58095 29.5884 3.86646 31.6134 3.86646 34.0884V41.4459H18.5499C18.4149 42.1254 18.3429 42.8274 18.3429 43.5564C18.3429 48.6594 21.8484 52.7994 26.1729 52.7994C30.4974 52.7994 34.0029 48.6594 34.0029 43.5564C34.0029 42.8319 33.9309 42.1254 33.7959 41.4459H48.4794V34.0884H48.4749Z" fill="#FFC9BB" stroke="black" stroke-width="1.3" stroke-miterlimit="10"/>
<path d="M40.58 28.7688L8.37752 35.0975C6.35589 35.4948 5.03912 37.4557 5.43643 39.4774L7.20582 48.4806C7.60312 50.5023 9.56406 51.819 11.5857 51.4217L43.7882 45.0931C45.8098 44.6958 47.1266 42.7348 46.7292 40.7132L44.9599 31.7099C44.5625 29.6883 42.6016 28.3715 40.58 28.7688Z" fill="#06B24B" stroke="black" stroke-width="1.125" stroke-miterlimit="10"/>
<path d="M32.1849 37.9223C31.6089 37.9223 31.1229 38.2823 30.9609 38.7863C30.3219 40.7258 28.3419 42.1433 25.9974 42.1433C23.6529 42.1433 21.6549 40.7168 21.0294 38.7593C20.8674 38.2508 20.3769 37.8908 19.7964 37.8863C16.0929 37.8773 3.86646 37.8728 3.86646 37.8728V52.2728C3.86646 54.1763 5.58095 55.7333 7.67795 55.7333H44.6634C46.7604 55.7333 48.4749 54.1763 48.4749 52.2728V37.8728C48.4749 37.8728 35.9244 37.8998 32.1849 37.9223Z" fill="#FF5520" stroke="black" stroke-width="1.3" stroke-miterlimit="10"/>
<path d="M22.3659 34.8713C24.8562 34.8713 26.8749 31.7908 26.8749 27.9908C26.8749 24.1909 24.8562 21.1104 22.3659 21.1104C19.8757 21.1104 17.8569 24.1909 17.8569 27.9908C17.8569 31.7908 19.8757 34.8713 22.3659 34.8713Z" fill="white" stroke="#040000" stroke-width="0.899999" stroke-miterlimit="10"/>
<path d="M20.9125 33.1569C22.3191 33.1569 23.4595 31.4161 23.4595 29.2689C23.4595 27.1216 22.3191 25.3809 20.9125 25.3809C19.5058 25.3809 18.3655 27.1216 18.3655 29.2689C18.3655 31.4161 19.5058 33.1569 20.9125 33.1569Z" fill="black"/>
<path d="M21.8618 30.6638H23.6573C24.1792 30.6638 24.6023 30.2407 24.6023 29.7188V29.5613C24.6023 29.0394 24.1792 28.6163 23.6573 28.6163H21.8618C21.3399 28.6163 20.9168 29.0394 20.9168 29.5613V29.7188C20.9168 30.2407 21.3399 30.6638 21.8618 30.6638Z" fill="white"/>
<path d="M29.404 34.8713C31.8943 34.8713 33.913 31.7908 33.913 27.9908C33.913 24.1909 31.8943 21.1104 29.404 21.1104C26.9138 21.1104 24.895 24.1909 24.895 27.9908C24.895 31.7908 26.9138 34.8713 29.404 34.8713Z" fill="white" stroke="#040000" stroke-width="0.899999" stroke-miterlimit="10"/>
<path d="M27.9503 33.1569C29.357 33.1569 30.4973 31.4161 30.4973 29.2689C30.4973 27.1216 29.357 25.3809 27.9503 25.3809C26.5436 25.3809 25.4033 27.1216 25.4033 29.2689C25.4033 31.4161 26.5436 33.1569 27.9503 33.1569Z" fill="black"/>
<path d="M28.8955 30.6638H30.691C31.2129 30.6638 31.636 30.2407 31.636 29.7188V29.5613C31.636 29.0394 31.2129 28.6163 30.691 28.6163H28.8955C28.3736 28.6163 27.9505 29.0394 27.9505 29.5613V29.7188C27.9505 30.2407 28.3736 30.6638 28.8955 30.6638Z" fill="white"/>
<path d="M21.8394 33.5213L26.0964 31.0643C27.1359 30.4658 28.4364 31.2128 28.4364 32.4143V37.3283C28.4364 38.5298 27.1359 39.2768 26.0964 38.6783L21.8394 36.2213C20.7999 35.6228 20.7999 34.1198 21.8394 33.5213Z" fill="white" stroke="#060001" stroke-width="0.899999" stroke-miterlimit="10"/>
<path d="M45.639 43.7993C42.9213 49.8165 35.6365 51.8993 32.6169 51.8993H42.2419C46.1169 51.8993 45.639 46.6922 45.639 43.7993Z" fill="white"/>
<path d="M48.9105 8.98154C47.5858 8.36764 45.9906 8.84723 45.0074 9.8159C45.1125 8.44032 44.4472 6.91327 43.1207 6.29858C41.4153 5.50828 39.3899 6.25095 38.5996 7.95643C36.4035 12.6955 40.9845 18.4972 40.9845 18.4972C40.9845 18.4972 48.3723 18.2418 50.5684 13.5027C51.3595 11.7955 50.616 9.77184 48.9105 8.98154Z" fill="white" stroke="white" stroke-width="3.67184" stroke-miterlimit="10"/>
<path d="M48.9105 8.98154C47.5858 8.36764 45.9906 8.84723 45.0074 9.8159C45.1125 8.44032 44.4472 6.91327 43.1207 6.29858C41.4153 5.50828 39.3899 6.25095 38.5996 7.95643C36.4035 12.6955 40.9845 18.4972 40.9845 18.4972C40.9845 18.4972 48.3723 18.2418 50.5684 13.5027C51.3595 11.7955 50.616 9.77184 48.9105 8.98154Z" fill="#FF5520" stroke="black" stroke-width="1.08527" stroke-miterlimit="10"/>
</svg>
