<svg width="49" height="54" viewBox="0 0 49 54" fill="none" xmlns="http://www.w3.org/2000/svg">
<g clip-path="url(#clip0_1258_4732)">
<path d="M31.4304 3.97616C26.5348 2.22907 21.4243 2.34585 16.8791 3.95747C10.5493 5.84938 5.55564 10.8384 3.65906 17.1634C0.00136971 27.4638 4.58866 38.6938 13.9968 43.6407V48.0412C13.9968 48.0412 13.9968 48.0832 13.9968 48.1066C14.0435 50.9888 17.9862 51.8063 19.2381 49.2137L20.6068 45.8643C23.3489 46.3174 26.0957 46.2334 28.7163 45.6634L30.1691 49.2137C31.421 51.8063 35.3637 50.9888 35.4104 48.1066C35.4104 48.0832 35.4104 48.0645 35.4104 48.0412V42.9914C36.9286 42.0712 38.3347 40.9641 39.5913 39.6888C40.1892 39.3431 40.6797 38.8152 40.9693 38.1566C42.4922 36.288 43.7301 34.1345 44.585 31.7381C48.621 20.4381 42.7304 8.01222 31.4304 3.97616Z" fill="white" stroke="white" stroke-width="4.67137" stroke-miterlimit="10"/>
<path d="M24.1245 46.1537C36.1212 46.1537 45.8464 36.4285 45.8464 24.4318C45.8464 12.4352 36.1212 2.70996 24.1245 2.70996C12.1278 2.70996 2.40259 12.4352 2.40259 24.4318C2.40259 36.4285 12.1278 46.1537 24.1245 46.1537Z" fill="white"/>
<path d="M22.5318 42.5479C33.4165 42.5479 42.2403 33.7241 42.2403 22.8394C42.2403 11.9547 33.4165 3.13086 22.5318 3.13086C11.6471 3.13086 2.82324 11.9547 2.82324 22.8394C2.82324 33.7241 11.6471 42.5479 22.5318 42.5479Z" fill="#FF5520"/>
<path d="M24.1245 46.1537C36.1212 46.1537 45.8464 36.4285 45.8464 24.4318C45.8464 12.4352 36.1212 2.70996 24.1245 2.70996C12.1278 2.70996 2.40259 12.4352 2.40259 24.4318C2.40259 36.4285 12.1278 46.1537 24.1245 46.1537Z" stroke="black" stroke-width="1.65" stroke-miterlimit="10"/>
<path d="M35.4853 13.0718C45.6642 23.3628 38.6478 40.7683 24.1245 41.0953C14.9967 41.3008 7.24685 33.5557 7.45706 24.4279C7.78406 9.90457 25.1943 2.88817 35.4853 13.0671V13.0718ZM35.4853 13.0718C27.5019 5.06503 13.8008 7.97062 9.73202 18.4672C4.83642 31.2387 17.3183 43.7206 30.0899 38.8297C40.5771 34.7843 43.4921 21.0271 35.4853 13.0718Z" fill="black"/>
<path d="M24.797 12.0388C24.797 12.0388 19.3876 10.8897 15.7065 14.5894C12.885 17.0886 12.1236 21.4003 12.1563 23.9508C12.1563 23.9508 15.7392 13.3188 24.797 12.0388Z" fill="white"/>
<path d="M19.9063 20.7518C22.4914 20.7518 24.587 17.554 24.587 13.6093C24.587 9.66461 22.4914 6.4668 19.9063 6.4668C17.3212 6.4668 15.2256 9.66461 15.2256 13.6093C15.2256 17.554 17.3212 20.7518 19.9063 20.7518Z" fill="white" stroke="#040000" stroke-width="0.934274" stroke-miterlimit="10"/>
<path d="M19.883 19.9432C21.3433 19.9432 22.527 18.1362 22.527 15.9072C22.527 13.6781 21.3433 11.8711 19.883 11.8711C18.4228 11.8711 17.239 13.6781 17.239 15.9072C17.239 18.1362 18.4228 19.9432 19.883 19.9432Z" fill="black"/>
<path d="M20.8592 17.3555H22.7231C23.2649 17.3555 23.7041 16.9163 23.7041 16.3745V16.211C23.7041 15.6692 23.2649 15.23 22.7231 15.23H20.8592C20.3174 15.23 19.8782 15.6692 19.8782 16.211V16.3745C19.8782 16.9163 20.3174 17.3555 20.8592 17.3555Z" fill="white"/>
<path d="M27.2125 20.7518C29.7975 20.7518 31.8932 17.554 31.8932 13.6093C31.8932 9.66461 29.7975 6.4668 27.2125 6.4668C24.6274 6.4668 22.5317 9.66461 22.5317 13.6093C22.5317 17.554 24.6274 20.7518 27.2125 20.7518Z" fill="white" stroke="#040000" stroke-width="0.934274" stroke-miterlimit="10"/>
<path d="M27.1889 19.9432C28.6492 19.9432 29.8329 18.1362 29.8329 15.9072C29.8329 13.6781 28.6492 11.8711 27.1889 11.8711C25.7287 11.8711 24.5449 13.6781 24.5449 15.9072C24.5449 18.1362 25.7287 19.9432 27.1889 19.9432Z" fill="black"/>
<path d="M28.1654 17.3555H30.0293C30.5711 17.3555 31.0103 16.9163 31.0103 16.3745V16.211C31.0103 15.6692 30.5711 15.23 30.0293 15.23H28.1654C27.6236 15.23 27.1844 15.6692 27.1844 16.211V16.3745C27.1844 16.9163 27.6236 17.3555 28.1654 17.3555Z" fill="white"/>
<path d="M20.3686 20.2146L24.7878 17.6641C25.8669 17.0428 27.2169 17.8182 27.2169 19.0655V24.1666C27.2169 25.4139 25.8669 26.1893 24.7878 25.568L20.3686 23.0175C19.2896 22.3962 19.2896 20.8359 20.3686 20.2146Z" fill="white" stroke="#060001" stroke-width="0.934274" stroke-miterlimit="10"/>
<path d="M12.6595 26.4686L8.54485 29.0517C7.0044 30.0188 6.53958 32.0515 7.50665 33.592L10.8622 38.937C11.8293 40.4774 13.862 40.9423 15.4025 39.9752L19.5171 37.3921C21.0575 36.425 21.5223 34.3923 20.5553 32.8518L17.1997 27.5068C16.2327 25.9664 14.1999 25.5015 12.6595 26.4686Z" fill="white" stroke="#040000" stroke-width="0.999999" stroke-miterlimit="10"/>
<path d="M31.5999 38.4173L36.3359 39.5003C38.109 39.9057 39.8751 38.797 40.2805 37.0239L41.6873 30.8717C42.0927 29.0986 40.984 27.3326 39.2109 26.9271L34.475 25.8442C32.7019 25.4387 30.9358 26.5474 30.5304 28.3205L29.1236 34.4728C28.7182 36.2458 29.8269 38.0119 31.5999 38.4173Z" fill="white" stroke="#040000" stroke-width="0.999999" stroke-miterlimit="10"/>
<path d="M30.1598 49.214L25.8575 38.6801C25.3903 37.7085 24.0076 37.7085 23.5358 38.6801L19.2335 49.214C17.9815 51.8066 14.0389 50.9892 13.9922 48.1069C13.9922 48.0836 13.9922 48.0649 13.9922 48.0415V27.7818C13.9922 25.6283 15.7533 23.8672 17.9068 23.8672H31.4865C33.64 23.8672 35.4011 25.6283 35.4011 27.7818V48.0415C35.4011 48.0415 35.4011 48.0836 35.4011 48.1069C35.3544 50.9892 31.4117 51.8066 30.1598 49.214Z" fill="#FFD503" stroke="black" stroke-width="1.25" stroke-miterlimit="10"/>
<path d="M13.8372 29.5837L9.41223 30.6427C8.48639 30.8643 7.91548 31.7945 8.13707 32.7203L8.6666 34.9328C8.88819 35.8586 9.81838 36.4296 10.7442 36.208L15.1692 35.1489C16.095 34.9273 16.6659 33.9971 16.4443 33.0713L15.9148 30.8588C15.6932 29.933 14.763 29.3621 13.8372 29.5837Z" fill="white" stroke="#040000" stroke-width="0.999999" stroke-miterlimit="10"/>
<path d="M33.1318 33.9346L36.9738 36.2927C37.7851 36.7906 38.8466 36.5366 39.3445 35.7252L40.5346 33.7864C41.0325 32.975 40.7785 31.9136 39.9671 31.4156L36.1252 29.0575C35.3138 28.5596 34.2524 28.8136 33.7544 29.625L32.5644 31.5638C32.0664 32.3752 32.3205 33.4366 33.1318 33.9346Z" fill="white" stroke="#040000" stroke-width="0.999999" stroke-miterlimit="10"/>
</g>
<defs>
<clipPath id="clip0_1258_4732">
<rect width="48.1245" height="52.7397" fill="white" transform="translate(0.0622559 0.370117)"/>
</clipPath>
</defs>
</svg>
