<svg width="24" height="24" viewBox="0 0 24 24" fill="none" xmlns="http://www.w3.org/2000/svg">
<mask id="path-1-inside-1_1029_1583" fill="white">
<path fill-rule="evenodd" clip-rule="evenodd" d="M0.960693 11.4783V7.44025C0.960693 6.93072 1.37375 6.51765 1.88329 6.51765H7.0654C7.26957 6.51765 7.46797 6.44993 7.62952 6.32509L11.6 3.25701C12.2064 2.7884 13.0867 3.22065 13.0867 3.98705L13.0867 18.9695C13.0867 19.7359 12.2064 20.1682 11.6 19.6995L9.05616 17.7339C8.8946 17.609 8.6962 17.5413 8.49204 17.5413H1.88329C1.37376 17.5413 0.960693 17.1282 0.960693 16.6187V11.4783Z"/>
</mask>
<path d="M9.05616 17.7339L7.8781 19.2584L9.05616 17.7339ZM13.0867 18.9695H11.16H13.0867ZM11.6 19.6995L10.4219 21.2241L11.6 19.6995ZM2.88736 11.4783V7.44025H-0.965973V11.4783H2.88736ZM1.88329 8.44432H7.0654V4.59099H1.88329V8.44432ZM8.80758 7.84964L12.778 4.78155L10.4219 1.73246L6.45147 4.80055L8.80758 7.84964ZM11.16 3.98705V18.9695H15.0134V3.98705L11.16 3.98705ZM12.778 18.175L10.2342 16.2093L7.8781 19.2584L10.4219 21.2241L12.778 18.175ZM8.49204 15.6146H1.88329V19.468H8.49204V15.6146ZM2.88736 16.6187V11.4783H-0.965973V16.6187H2.88736ZM1.88329 15.6146C2.43782 15.6146 2.88736 16.0642 2.88736 16.6187H-0.965973C-0.965973 18.1923 0.309686 19.468 1.88329 19.468V15.6146ZM10.2342 16.2093C9.73529 15.8238 9.12257 15.6146 8.49204 15.6146V19.468C8.26984 19.468 8.05392 19.3943 7.8781 19.2584L10.2342 16.2093ZM11.16 18.9695C11.16 18.1355 12.118 17.665 12.778 18.175L10.4219 21.2241C12.2948 22.6713 15.0134 21.3363 15.0134 18.9695H11.16ZM12.778 4.78155C12.1181 5.29154 11.16 4.82112 11.16 3.98705L15.0134 3.98705C15.0134 1.62019 12.2948 0.285262 10.4219 1.73246L12.778 4.78155ZM7.0654 8.44432C7.69593 8.44432 8.30865 8.23517 8.80758 7.84964L6.45147 4.80055C6.62729 4.66469 6.84321 4.59099 7.0654 4.59099V8.44432ZM2.88736 7.44025C2.88736 7.99478 2.43783 8.44432 1.88329 8.44432V4.59099C0.309683 4.59099 -0.965973 5.86665 -0.965973 7.44025H2.88736Z" fill="white" mask="url(#path-1-inside-1_1029_1583)"/>
<path d="M16.5713 7.61993C17.8574 8.90603 19.6579 12.3601 16.5713 15.8877" stroke="white" stroke-width="1.92667" stroke-linecap="round"/>
<path d="M19.8784 4.31287C22.0831 6.5176 24.8391 12.5806 19.8784 18.6436" stroke="white" stroke-width="1.92667" stroke-linecap="round"/>
</svg>
