<svg width="24" height="24" viewBox="0 0 24 24" fill="none" xmlns="http://www.w3.org/2000/svg">
<path fill-rule="evenodd" clip-rule="evenodd" d="M10.8885 4.22226C10.5938 4.22226 10.3112 4.33932 10.1029 4.5477C9.89447 4.75608 9.77741 5.0387 9.77741 5.33338H14.2219C14.2219 5.0387 14.1049 4.75608 13.8965 4.5477C13.6881 4.33932 13.4055 4.22226 13.1108 4.22226H10.8885ZM10.8885 2C10.0045 2 9.15661 2.3512 8.53148 2.97633C7.90635 3.60146 7.55515 4.44932 7.55515 5.33338H3.11064C2.81595 5.33338 2.53333 5.45045 2.32495 5.65883C2.11658 5.8672 1.99951 6.14982 1.99951 6.44451C1.99951 6.7392 2.11658 7.02182 2.32495 7.2302C2.53333 7.43858 2.81595 7.55564 3.11064 7.55564H4.22177V18.6669C4.22177 19.551 4.57296 20.3989 5.19809 21.024C5.82323 21.6491 6.67108 22.0003 7.55515 22.0003H16.4442C17.3282 22.0003 18.1761 21.6491 18.8012 21.024C19.4264 20.3989 19.7776 19.551 19.7776 18.6669V7.55564H20.8887C21.1834 7.55564 21.466 7.43858 21.6744 7.2302C21.8828 7.02182 21.9998 6.7392 21.9998 6.44451C21.9998 6.14982 21.8828 5.8672 21.6744 5.65883C21.466 5.45045 21.1834 5.33338 20.8887 5.33338H16.4442C16.4442 4.44932 16.093 3.60146 15.4679 2.97633C14.8427 2.3512 13.9949 2 13.1108 2H10.8885ZM10.8885 10.889C10.8885 10.5943 10.7715 10.3117 10.5631 10.1033C10.3547 9.89496 10.0721 9.7779 9.77741 9.7779C9.48272 9.7779 9.2001 9.89496 8.99172 10.1033C8.78335 10.3117 8.66628 10.5943 8.66628 10.889V16.4447C8.66628 16.7394 8.78335 17.022 8.99172 17.2304C9.2001 17.4387 9.48272 17.5558 9.77741 17.5558C10.0721 17.5558 10.3547 17.4387 10.5631 17.2304C10.7715 17.022 10.8885 16.7394 10.8885 16.4447V10.889ZM15.3331 10.889C15.3331 10.5943 15.216 10.3117 15.0076 10.1033C14.7992 9.89496 14.5166 9.7779 14.2219 9.7779C13.9272 9.7779 13.6446 9.89496 13.4362 10.1033C13.2279 10.3117 13.1108 10.5943 13.1108 10.889V16.4447C13.1108 16.7394 13.2279 17.022 13.4362 17.2304C13.6446 17.4387 13.9272 17.5558 14.2219 17.5558C14.5166 17.5558 14.7992 17.4387 15.0076 17.2304C15.216 17.022 15.3331 16.7394 15.3331 16.4447V10.889Z" fill="#FF5520"/>
</svg>
