<svg width="58" height="65" viewBox="0 0 58 65" fill="none" xmlns="http://www.w3.org/2000/svg">
<path d="M35.625 14.0597L35.3724 8.84736C35.2538 6.43762 33.3917 4.41561 31.2346 4.35178C29.0733 4.28937 27.4068 6.21006 27.5211 8.6212L27.6422 11.1249L26.9249 8.94011C26.2609 6.91782 24.0617 5.80218 22.0351 6.46755C20.0085 7.13291 18.8972 9.33075 19.5625 11.3573L20.1816 13.2428L18.2302 11.1222C16.6187 9.37311 14.123 9.30207 12.6782 10.9605C11.2335 12.6189 11.3689 15.4115 12.9804 17.1606L16.0491 20.4916L15.5403 20.6586C11.4658 21.9964 9.92077 26.9416 12.5066 30.36L32.1595 56.3467C35.7497 61.0931 43.313 58.6099 43.3911 52.6591L43.8158 20.0805C43.8736 15.7989 39.698 12.7319 35.6306 14.0625L35.625 14.0597Z" fill="white" stroke="white" stroke-width="4.5" stroke-miterlimit="10"/>
<path d="M22.3503 21.4636C20.9055 23.122 18.4098 23.0509 16.7983 21.3019L12.9791 17.1564C11.3676 15.4073 11.2336 12.6189 12.6784 10.9605C14.1232 9.30209 16.6188 9.37314 18.2304 11.1222L22.0496 15.2677C23.6611 17.0168 23.7951 19.8051 22.3503 21.4636Z" fill="#06B24B" stroke="black" stroke-width="1.35" stroke-miterlimit="10"/>
<path d="M31.9394 18.8316C29.7781 18.7692 27.9202 16.7458 27.8016 14.336L27.5215 8.62126C27.4029 6.21152 29.0737 4.28943 31.235 4.35184C33.3963 4.41426 35.2542 6.43768 35.3728 8.84742L35.6529 14.5622C35.7715 16.9719 34.1007 18.894 31.9394 18.8316Z" fill="#06B24B" stroke="black" stroke-width="1.35" stroke-miterlimit="10"/>
<path d="M26.9238 8.93577C26.2564 6.90272 24.0681 5.7954 22.0362 6.46251C20.0043 7.12961 18.8983 9.31853 19.5658 11.3516L22.7185 20.9543C23.386 22.9873 25.5743 24.0946 27.6062 23.4275C29.638 22.7604 30.7441 20.5715 30.0766 18.5384L26.9238 8.93577Z" fill="#06B24B" stroke="black" stroke-width="1.35" stroke-miterlimit="10"/>
<path d="M43.39 52.6548L43.8147 20.0762C43.871 15.7903 39.6912 12.7247 35.621 14.061L15.5477 20.6515C11.4732 21.9892 9.92819 26.9344 12.5141 30.3529L32.1669 56.3395C35.7571 61.0859 43.3204 58.6027 43.3986 52.652L43.39 52.6548Z" fill="#FF5520" stroke="black" stroke-width="1.35" stroke-miterlimit="10"/>
<path d="M34.9482 23.4514L30.2024 25.0095C29.487 25.2444 29.0974 26.0148 29.3323 26.7303C29.5672 27.4457 30.3376 27.8353 31.0531 27.6004L35.7989 26.0423C36.5143 25.8074 36.9039 25.037 36.669 24.3215C36.4341 23.606 35.6637 23.2165 34.9482 23.4514Z" fill="white"/>
<path d="M38.9709 33.2372L34.2252 34.7954C33.5097 35.0303 33.1201 35.8007 33.355 36.5162C33.5899 37.2316 34.3603 37.6212 35.0758 37.3863L39.8216 35.8282C40.537 35.5933 40.9266 34.8228 40.6917 34.1074C40.4568 33.3919 39.6864 33.0023 38.9709 33.2372Z" fill="white"/>
<path d="M37.7312 41.8383L32.9854 43.3964C32.2699 43.6314 31.8804 44.4018 32.1153 45.1172C32.3502 45.8327 33.1206 46.2223 33.8361 45.9874L38.5818 44.4292C39.2973 44.1943 39.6869 43.4239 39.452 42.7085C39.2171 41.993 38.4466 41.6034 37.7312 41.8383Z" fill="white"/>
<path d="M43.39 52.6548L43.8147 20.0762C43.871 15.7903 39.6912 12.7247 35.621 14.061L15.5477 20.6515C11.4732 21.9892 9.92819 26.9344 12.5141 30.3529L32.1669 56.3395C35.7571 61.0859 43.3204 58.6027 43.3986 52.652L43.39 52.6548Z" stroke="black" stroke-width="1.35" stroke-miterlimit="10"/>
<path d="M23.3742 36.151C25.7402 35.3742 26.6973 31.8177 25.5119 28.2073C24.3265 24.5969 21.4476 22.2998 19.0816 23.0766C16.7156 23.8534 15.7585 27.4099 16.9439 31.0203C18.1293 34.6307 21.0082 36.9278 23.3742 36.151Z" fill="white" stroke="#040000" stroke-width="0.899999" stroke-miterlimit="10"/>
<path d="M20.494 32.0239C21.8305 31.5851 22.3709 29.5755 21.7011 27.5354C21.0312 25.4953 19.4048 24.1971 18.0683 24.6359C16.7319 25.0747 16.1914 27.0843 16.8613 29.1244C17.5311 31.1646 19.1575 32.4627 20.494 32.0239Z" fill="black"/>
<path d="M20.6143 29.3607L22.3202 28.8006C22.816 28.6378 23.086 28.1039 22.9232 27.608L22.8741 27.4584C22.7113 26.9625 22.1773 26.6925 21.6815 26.8553L19.9756 27.4154C19.4797 27.5782 19.2097 28.1122 19.3725 28.608L19.4216 28.7577C19.5844 29.2535 20.1184 29.5235 20.6143 29.3607Z" fill="white"/>
<path d="M30.061 33.9557C32.427 33.1789 33.384 29.6223 32.1987 26.012C31.0133 22.4016 28.1344 20.1045 25.7684 20.8813C23.4024 21.6581 22.4453 25.2146 23.6307 28.825C24.816 32.4354 27.695 34.7325 30.061 33.9557Z" fill="white" stroke="#040000" stroke-width="0.899999" stroke-miterlimit="10"/>
<path d="M27.1807 29.8286C28.5172 29.3898 29.0577 27.3802 28.3878 25.3401C27.718 23.3 26.0916 22.0018 24.7551 22.4406C23.4186 22.8794 22.8782 24.889 23.548 26.9291C24.2178 28.9692 25.8443 30.2674 27.1807 29.8286Z" fill="black"/>
<path d="M27.2966 27.1666L29.0025 26.6065C29.4984 26.4437 29.7684 25.9098 29.6056 25.4139L29.5565 25.2643C29.3937 24.7684 28.8597 24.4984 28.3639 24.6612L26.6579 25.2213C26.1621 25.3841 25.8921 25.9181 26.0549 26.4139L26.104 26.5636C26.2668 27.0594 26.8008 27.3294 27.2966 27.1666Z" fill="white"/>
<path d="M21.2343 35.4326L24.5124 31.7702C25.3134 30.8773 26.782 31.1814 27.1568 32.3229L28.6896 36.9917C29.0644 38.1333 28.0618 39.2487 26.8875 39.0043L22.0765 37.9978C20.9022 37.7534 20.4333 36.3254 21.2343 35.4326Z" fill="white" stroke="#060001" stroke-width="0.899999" stroke-miterlimit="10"/>
<g clip-path="url(#clip0_1258_4720)">
<path d="M18.0662 51.5872C14.2819 52.9063 11.241 51.9548 9.39548 50.0704C8.0125 50.1071 6.80038 49.6898 5.78555 48.8293C2.84486 46.3422 2.65566 40.9812 2.64748 40.7542C2.63734 40.3833 2.92712 40.0752 3.29553 40.0659C3.66647 40.0558 3.97457 40.3455 3.98383 40.714C3.98452 40.7648 4.16553 45.7117 6.6502 47.8102C7.14815 48.2296 7.69837 48.5059 8.31274 48.6407C8.29192 48.6054 8.27364 48.5692 8.25282 48.5339C7.02763 46.2886 7.33839 43.9164 8.99345 42.8941C10.126 42.1958 11.4586 42.259 12.5609 43.0691C13.8565 44.0189 14.5038 45.6969 14.1356 47.1473C13.9353 47.932 13.282 49.232 11.1406 49.8111C12.8463 51.0095 15.4572 51.4356 18.8848 49.8012C19.2181 49.6424 19.6191 49.7835 19.7778 50.1169C19.9365 50.4502 19.7954 50.8511 19.4621 51.0099C18.9848 51.2358 18.519 51.4294 18.0636 51.5881L18.0662 51.5872ZM9.95606 48.6835C9.95606 48.6835 9.96364 48.6809 9.96617 48.68C11.572 48.4607 12.5924 47.7986 12.8424 46.815C13.0715 45.9096 12.6119 44.762 11.7733 44.1465C11.3882 43.8637 10.6051 43.4728 9.7011 44.029C8.69043 44.6537 8.57413 46.3141 9.43179 47.8875C9.58037 48.1591 9.75512 48.4245 9.95429 48.6784L9.95606 48.6835Z" fill="white" stroke="white" stroke-width="2.14308" stroke-miterlimit="10"/>
<path d="M3.31814 40.7334C3.31814 40.7334 3.5976 50.2276 10.0565 49.3465C16.5155 48.4654 12.7351 41.3717 9.34855 43.4656C5.96202 45.5595 10.1888 54.6906 19.176 50.4091" stroke="#FF5520" stroke-width="1.33943" stroke-linecap="round" stroke-linejoin="round"/>
</g>
<g clip-path="url(#clip1_1258_4720)">
<path d="M49.8338 17.8532C49.6504 17.8532 49.467 17.7982 49.3066 17.6859C48.8939 17.3948 48.7931 16.8217 49.0865 16.4091L53.4166 10.2704C53.7077 9.85779 54.2808 9.75922 54.6934 10.0503C55.106 10.3415 55.2068 10.9145 54.9134 11.3271L50.5811 17.4658C50.4023 17.718 50.118 17.8532 49.8315 17.8532H49.8338Z" fill="white"/>
<path d="M49.834 18.77C49.4535 18.77 49.089 18.6531 48.7773 18.433C48.3784 18.1511 48.1102 17.7293 48.0277 17.2479C47.9452 16.7642 48.0552 16.2783 48.3372 15.8794L52.6695 9.74075C53.2541 8.91553 54.4002 8.7184 55.2254 9.30063C55.6266 9.58258 55.8925 10.0044 55.975 10.488C56.0575 10.9717 55.9475 11.4577 55.6655 11.8565L51.3332 17.9952C50.9893 18.4811 50.43 18.7723 49.834 18.7723V18.77Z" fill="white"/>
<path d="M49.8338 17.8532C49.6504 17.8532 49.467 17.7982 49.3066 17.6859C48.8939 17.3948 48.7931 16.8217 49.0865 16.4091L53.4166 10.2704C53.7077 9.85779 54.2808 9.75922 54.6934 10.0503C55.106 10.3415 55.2068 10.9145 54.9134 11.3271L50.5811 17.4658C50.4023 17.718 50.118 17.8532 49.8315 17.8532H49.8338Z" fill="#FF5520"/>
</g>
<g clip-path="url(#clip2_1258_4720)">
<path d="M47.9683 9.89373C47.8465 9.95293 47.7069 9.97558 47.5641 9.95277C47.196 9.89258 46.9441 9.54447 47.0058 9.17568L47.9005 3.70023C47.9607 3.33217 48.3095 3.08171 48.6776 3.1419C49.0456 3.20208 49.2976 3.55019 49.2359 3.91898L48.3397 9.39518C48.3023 9.62039 48.1571 9.80198 47.9668 9.89447L47.9683 9.89373Z" fill="white"/>
<path d="M48.2644 10.5027C48.0117 10.6255 47.7318 10.6655 47.4537 10.62C47.0978 10.5614 46.7835 10.3678 46.5732 10.0747C46.3623 9.78007 46.2785 9.42174 46.3371 9.06579L47.2333 3.58959C47.3552 2.85275 48.0529 2.35182 48.789 2.4722C49.1465 2.52999 49.4593 2.72433 49.6702 3.01897C49.8811 3.31362 49.9649 3.67194 49.9064 4.02789L49.0101 9.50409C48.9386 9.93788 48.6611 10.3118 48.2652 10.5042L48.2644 10.5027Z" fill="white"/>
<path d="M47.9683 9.89373C47.8465 9.95293 47.7069 9.97558 47.5641 9.95277C47.196 9.89258 46.9441 9.54447 47.0058 9.17568L47.9005 3.70023C47.9607 3.33217 48.3095 3.08171 48.6776 3.1419C49.0456 3.20208 49.2976 3.55019 49.2359 3.91898L48.3397 9.39518C48.3023 9.62039 48.1571 9.80198 47.9668 9.89447L47.9683 9.89373Z" fill="#FF5520"/>
</g>
<defs>
<clipPath id="clip0_1258_4720">
<rect width="15.9124" height="17.9162" fill="white" transform="translate(0.496094 39.8728) rotate(-19.2165)"/>
</clipPath>
<clipPath id="clip1_1258_4720">
<rect width="8" height="9.80401" fill="white" transform="translate(48 8.96606)"/>
</clipPath>
<clipPath id="clip2_1258_4720">
<rect width="5.90834" height="7.24068" fill="white" transform="translate(43.8813 4.58228) rotate(-25.9179)"/>
</clipPath>
</defs>
</svg>
