<svg width="174" height="80" viewBox="0 0 174 80" fill="none" xmlns="http://www.w3.org/2000/svg">
<rect width="174" height="80" rx="8" fill="#53B175" fill-opacity="0.1"/>
<rect x="0.5" y="0.5" width="173" height="79" rx="7.5" stroke="#53B175" stroke-opacity="0.7"/>
<mask id="mask0_1783_3539" style="mask-type:alpha" maskUnits="userSpaceOnUse" x="0" y="0" width="174" height="80">
<rect width="174" height="80" rx="8" fill="#FFDAD2"/>
</mask>
<g mask="url(#mask0_1783_3539)">
<circle cx="146.5" cy="39.5" r="49" fill="#06B24B" stroke="white" stroke-width="3"/>
</g>
<path d="M145.625 21.0597L145.372 15.8474C145.254 13.4376 143.392 11.4156 141.235 11.3518C139.073 11.2894 137.407 13.2101 137.521 15.6212L137.642 18.1249L136.925 15.9401C136.261 13.9178 134.062 12.8022 132.035 13.4675C130.009 14.1329 128.897 16.3308 129.563 18.3573L130.182 20.2428L128.23 18.1222C126.619 16.3731 124.123 16.3021 122.678 17.9605C121.233 19.6189 121.369 22.4115 122.98 24.1606L126.049 27.4916L125.54 27.6586C121.466 28.9964 119.921 33.9416 122.507 37.36L142.159 63.3467C145.75 68.0931 153.313 65.6099 153.391 59.6591L153.816 27.0805C153.874 22.7989 149.698 19.7319 145.631 21.0625L145.625 21.0597Z" fill="white" stroke="white" stroke-width="4.5" stroke-miterlimit="10"/>
<path d="M132.35 28.4636C130.906 30.122 128.41 30.0509 126.798 28.3019L122.979 24.1564C121.368 22.4073 121.234 19.6189 122.678 17.9605C124.123 16.3021 126.619 16.3731 128.23 18.1222L132.05 22.2677C133.661 24.0168 133.795 26.8051 132.35 28.4636Z" fill="#06B24B" stroke="black" stroke-width="1.35" stroke-miterlimit="10"/>
<path d="M141.939 25.8316C139.778 25.7692 137.92 23.7458 137.802 21.336L137.521 15.6213C137.403 13.2115 139.074 11.2894 141.235 11.3518C143.396 11.4143 145.254 13.4377 145.373 15.8474L145.653 21.5622C145.772 23.9719 144.101 25.894 141.939 25.8316Z" fill="#06B24B" stroke="black" stroke-width="1.35" stroke-miterlimit="10"/>
<path d="M136.924 15.9358C136.256 13.9027 134.068 12.7954 132.036 13.4625C130.004 14.1296 128.898 16.3185 129.566 18.3516L132.719 27.9543C133.386 29.9873 135.574 31.0946 137.606 30.4275C139.638 29.7604 140.744 27.5715 140.077 25.5384L136.924 15.9358Z" fill="#06B24B" stroke="black" stroke-width="1.35" stroke-miterlimit="10"/>
<path d="M153.39 59.6548L153.815 27.0762C153.871 22.7903 149.691 19.7247 145.621 21.061L125.548 27.6515C121.473 28.9892 119.928 33.9344 122.514 37.3529L142.167 63.3395C145.757 68.0859 153.32 65.6027 153.399 59.652L153.39 59.6548Z" fill="#FF5520" stroke="black" stroke-width="1.35" stroke-miterlimit="10"/>
<path d="M144.948 30.4514L140.202 32.0095C139.487 32.2444 139.097 33.0148 139.332 33.7303C139.567 34.4457 140.338 34.8353 141.053 34.6004L145.799 33.0423C146.514 32.8074 146.904 32.037 146.669 31.3215C146.434 30.606 145.664 30.2165 144.948 30.4514Z" fill="white"/>
<path d="M148.971 40.2372L144.225 41.7954C143.51 42.0303 143.12 42.8007 143.355 43.5162C143.59 44.2316 144.36 44.6212 145.076 44.3863L149.822 42.8282C150.537 42.5933 150.927 41.8228 150.692 41.1074C150.457 40.3919 149.686 40.0023 148.971 40.2372Z" fill="white"/>
<path d="M147.731 48.8383L142.985 50.3964C142.27 50.6314 141.88 51.4018 142.115 52.1172C142.35 52.8327 143.121 53.2223 143.836 52.9874L148.582 51.4292C149.297 51.1943 149.687 50.4239 149.452 49.7085C149.217 48.993 148.447 48.6034 147.731 48.8383Z" fill="white"/>
<path d="M153.39 59.6548L153.815 27.0762C153.871 22.7903 149.691 19.7247 145.621 21.061L125.548 27.6515C121.473 28.9892 119.928 33.9344 122.514 37.3529L142.167 63.3395C145.757 68.0859 153.32 65.6027 153.399 59.652L153.39 59.6548Z" stroke="black" stroke-width="1.35" stroke-miterlimit="10"/>
<path d="M133.374 43.151C135.74 42.3742 136.697 38.8177 135.512 35.2073C134.327 31.5969 131.448 29.2998 129.082 30.0766C126.716 30.8534 125.759 34.4099 126.944 38.0203C128.129 41.6307 131.008 43.9278 133.374 43.151Z" fill="white" stroke="#040000" stroke-width="0.899999" stroke-miterlimit="10"/>
<path d="M130.494 39.0239C131.83 38.5851 132.371 36.5755 131.701 34.5354C131.031 32.4953 129.405 31.1971 128.068 31.6359C126.732 32.0747 126.191 34.0843 126.861 36.1244C127.531 38.1646 129.157 39.4627 130.494 39.0239Z" fill="black"/>
<path d="M130.614 36.3607L132.32 35.8006C132.816 35.6378 133.086 35.1039 132.923 34.608L132.874 34.4584C132.711 33.9625 132.177 33.6925 131.681 33.8553L129.976 34.4154C129.48 34.5782 129.21 35.1122 129.373 35.608L129.422 35.7577C129.584 36.2535 130.118 36.5235 130.614 36.3607Z" fill="white"/>
<path d="M140.061 40.9557C142.427 40.1789 143.384 36.6223 142.199 33.012C141.013 29.4016 138.134 27.1045 135.768 27.8813C133.402 28.6581 132.445 32.2146 133.631 35.825C134.816 39.4354 137.695 41.7325 140.061 40.9557Z" fill="white" stroke="#040000" stroke-width="0.899999" stroke-miterlimit="10"/>
<path d="M137.181 36.8286C138.517 36.3898 139.058 34.3802 138.388 32.3401C137.718 30.3 136.092 29.0018 134.755 29.4406C133.419 29.8794 132.878 31.889 133.548 33.9291C134.218 35.9692 135.844 37.2674 137.181 36.8286Z" fill="black"/>
<path d="M137.297 34.1666L139.003 33.6065C139.498 33.4437 139.768 32.9098 139.606 32.4139L139.556 32.2643C139.394 31.7684 138.86 31.4984 138.364 31.6612L136.658 32.2213C136.162 32.3841 135.892 32.9181 136.055 33.4139L136.104 33.5636C136.267 34.0594 136.801 34.3294 137.297 34.1666Z" fill="white"/>
<path d="M131.234 42.4325L134.512 38.7702C135.313 37.8773 136.782 38.1814 137.157 39.3229L138.69 43.9917C139.064 45.1333 138.062 46.2487 136.888 46.0043L132.077 44.9978C130.902 44.7534 130.433 43.3254 131.234 42.4325Z" fill="white" stroke="#060001" stroke-width="0.899999" stroke-miterlimit="10"/>
<g clip-path="url(#clip0_1783_3539)">
<path d="M128.066 58.5872C124.282 59.9063 121.241 58.9548 119.395 57.0704C118.012 57.1071 116.8 56.6898 115.786 55.8293C112.845 53.3422 112.656 47.9812 112.647 47.7542C112.637 47.3833 112.927 47.0752 113.296 47.0659C113.666 47.0558 113.975 47.3455 113.984 47.714C113.985 47.7648 114.166 52.7117 116.65 54.8102C117.148 55.2296 117.698 55.5059 118.313 55.6407C118.292 55.6054 118.274 55.5692 118.253 55.5339C117.028 53.2886 117.338 50.9164 118.993 49.8941C120.126 49.1958 121.459 49.259 122.561 50.0691C123.857 51.0189 124.504 52.6969 124.136 54.1473C123.935 54.932 123.282 56.232 121.141 56.8111C122.846 58.0095 125.457 58.4356 128.885 56.8012C129.218 56.6424 129.619 56.7835 129.778 57.1169C129.937 57.4502 129.795 57.8511 129.462 58.0099C128.985 58.2358 128.519 58.4294 128.064 58.5881L128.066 58.5872ZM119.956 55.6835C119.956 55.6835 119.964 55.6809 119.966 55.68C121.572 55.4607 122.592 54.7986 122.842 53.815C123.072 52.9096 122.612 51.762 121.773 51.1465C121.388 50.8637 120.605 50.4728 119.701 51.029C118.69 51.6537 118.574 53.3141 119.432 54.8875C119.58 55.1591 119.755 55.4245 119.954 55.6784L119.956 55.6835Z" fill="white" stroke="white" stroke-width="2.14308" stroke-miterlimit="10"/>
<path d="M113.318 47.7334C113.318 47.7334 113.598 57.2276 120.057 56.3465C126.515 55.4654 122.735 48.3717 119.349 50.4656C115.962 52.5595 120.189 61.6906 129.176 57.4091" stroke="#FF5520" stroke-width="1.33943" stroke-linecap="round" stroke-linejoin="round"/>
</g>
<g clip-path="url(#clip1_1783_3539)">
<path d="M159.834 24.8532C159.65 24.8532 159.467 24.7982 159.307 24.6859C158.894 24.3948 158.793 23.8217 159.086 23.4091L163.417 17.2704C163.708 16.8578 164.281 16.7592 164.693 17.0503C165.106 17.3415 165.207 17.9145 164.913 18.3271L160.581 24.4658C160.402 24.718 160.118 24.8532 159.831 24.8532H159.834Z" fill="white"/>
<path d="M159.834 25.77C159.453 25.77 159.089 25.6531 158.777 25.433C158.378 25.1511 158.11 24.7293 158.028 24.2479C157.945 23.7642 158.055 23.2783 158.337 22.8794L162.67 16.7407C163.254 15.9155 164.4 15.7184 165.225 16.3006C165.627 16.5826 165.892 17.0044 165.975 17.488C166.058 17.9717 165.947 18.4577 165.666 18.8565L161.333 24.9952C160.989 25.4811 160.43 25.7723 159.834 25.7723V25.77Z" fill="white"/>
<path d="M159.834 24.8532C159.65 24.8532 159.467 24.7982 159.307 24.6859C158.894 24.3948 158.793 23.8217 159.086 23.4091L163.417 17.2704C163.708 16.8578 164.281 16.7592 164.693 17.0503C165.106 17.3415 165.207 17.9145 164.913 18.3271L160.581 24.4658C160.402 24.718 160.118 24.8532 159.831 24.8532H159.834Z" fill="#FF5520"/>
</g>
<g clip-path="url(#clip2_1783_3539)">
<path d="M157.968 16.8937C157.847 16.9529 157.707 16.9756 157.564 16.9528C157.196 16.8926 156.944 16.5445 157.006 16.1757L157.9 10.7002C157.961 10.3322 158.31 10.0817 158.678 10.1419C159.046 10.2021 159.298 10.5502 159.236 10.919L158.34 16.3952C158.302 16.6204 158.157 16.802 157.967 16.8945L157.968 16.8937Z" fill="white"/>
<path d="M158.264 17.5027C158.012 17.6255 157.732 17.6655 157.454 17.62C157.098 17.5614 156.783 17.3678 156.573 17.0747C156.362 16.7801 156.279 16.4217 156.337 16.0658L157.233 10.5896C157.355 9.85275 158.053 9.35182 158.789 9.4722C159.146 9.52999 159.459 9.72433 159.67 10.019C159.881 10.3136 159.965 10.6719 159.906 11.0279L159.01 16.5041C158.939 16.9379 158.661 17.3118 158.265 17.5042L158.264 17.5027Z" fill="white"/>
<path d="M157.968 16.8937C157.847 16.9529 157.707 16.9756 157.564 16.9528C157.196 16.8926 156.944 16.5445 157.006 16.1757L157.9 10.7002C157.961 10.3322 158.31 10.0817 158.678 10.1419C159.046 10.2021 159.298 10.5502 159.236 10.919L158.34 16.3952C158.302 16.6204 158.157 16.802 157.967 16.8945L157.968 16.8937Z" fill="#FF5520"/>
</g>
<defs>
<clipPath id="clip0_1783_3539">
<rect width="15.9124" height="17.9162" fill="white" transform="translate(110.496 46.8728) rotate(-19.2165)"/>
</clipPath>
<clipPath id="clip1_1783_3539">
<rect width="8" height="9.80401" fill="white" transform="translate(158 15.9661)"/>
</clipPath>
<clipPath id="clip2_1783_3539">
<rect width="5.90834" height="7.24068" fill="white" transform="translate(153.881 11.5823) rotate(-25.9179)"/>
</clipPath>
</defs>
</svg>
