<svg width="28" height="28" viewBox="0 0 28 28" fill="none" xmlns="http://www.w3.org/2000/svg">
<path d="M19.2524 22.752C23.1887 22.752 26.3797 17.8826 26.3797 11.876C26.3797 5.86935 23.1887 1 19.2524 1C15.316 1 12.125 5.86935 12.125 11.876C12.125 17.8826 15.316 22.752 19.2524 22.752Z" fill="white" stroke="#4F4F4F" stroke-width="1.8" stroke-miterlimit="10"/>
<path fill-rule="evenodd" clip-rule="evenodd" d="M23.669 12.3544C22.5835 12.7673 21.3556 13 20.0552 13C18.7732 13 17.5617 12.7738 16.4876 12.3718C16.211 13.2051 16.0552 14.1476 16.0552 15.1457C16.0552 18.5399 17.8577 21.2914 20.0812 21.2914C22.3047 21.2914 24.1073 18.5399 24.1073 15.1457C24.1073 14.1406 23.9492 13.192 23.669 12.3544Z" fill="#4F4F4F"/>
<path d="M18.3871 15H15.5489C14.724 15 14.0552 15.6688 14.0552 16.4938V16.7427C14.0552 17.5677 14.724 18.2365 15.5489 18.2365H18.3871C19.2121 18.2365 19.8808 17.5677 19.8808 16.7427V16.4938C19.8808 15.6688 19.2121 15 18.3871 15Z" fill="white"/>
<path d="M8.12736 22.752C12.0637 22.752 15.2547 17.8826 15.2547 11.876C15.2547 5.86935 12.0637 1 8.12736 1C4.19103 1 1 5.86935 1 11.876C1 17.8826 4.19103 22.752 8.12736 22.752Z" fill="white" stroke="#4F4F4F" stroke-width="1.8" stroke-miterlimit="10"/>
<path fill-rule="evenodd" clip-rule="evenodd" d="M11.3929 12.3551C10.24 12.7676 8.93598 13.0001 7.55505 13.0001C6.35134 13.0001 5.20607 12.8234 4.16841 12.5049C3.91862 13.305 3.77881 14.2004 3.77881 15.1457C3.77881 18.5399 5.58133 21.2915 7.80485 21.2915C10.0284 21.2915 11.8309 18.5399 11.8309 15.1457C11.8309 14.141 11.6729 13.1925 11.3929 12.3551Z" fill="#4F4F4F"/>
<path d="M7.38708 15H4.54894C3.72396 15 3.05518 15.6688 3.05518 16.4938V16.7427C3.05518 17.5677 3.72396 18.2365 4.54894 18.2365H7.38708C8.21206 18.2365 8.88084 17.5677 8.88084 16.7427V16.4938C8.88084 15.6688 8.21206 15 7.38708 15Z" fill="white"/>
<path d="M19.0906 23.3079L13.4198 26.5809C12.0351 27.3781 10.3027 26.3831 10.3027 24.7826V18.2367C10.3027 16.6361 12.0351 15.6411 13.4198 16.4383L19.0906 19.7113C20.4753 20.5085 20.4753 22.5107 19.0906 23.3079Z" fill="white" stroke="#4F4F4F" stroke-width="1.8" stroke-miterlimit="10"/>
</svg>
