<svg width="30" height="30" viewBox="0 0 30 30" fill="none" xmlns="http://www.w3.org/2000/svg">
<mask id="path-1-inside-1_1348_3516" fill="white">
<path fill-rule="evenodd" clip-rule="evenodd" d="M1.20068 14.3478V9.06966C1.20068 8.56012 1.61375 8.14706 2.12328 8.14706H8.9103C9.11446 8.14706 9.31287 8.07934 9.47442 7.9545L14.8715 3.78405C15.4779 3.31544 16.3582 3.74769 16.3582 4.51408L16.3582 24.1816C16.3582 24.948 15.4779 25.3802 14.8715 24.9116L11.2577 22.1192C11.0962 21.9943 10.8978 21.9266 10.6936 21.9266H2.12328C1.61375 21.9266 1.20068 21.5136 1.20068 21.004V14.3478Z"/>
</mask>
<path d="M11.2577 22.1192L10.0797 23.6437L10.0797 23.6437L11.2577 22.1192ZM16.3582 24.1816L18.2849 24.1816L16.3582 24.1816ZM14.8715 24.9116L13.6934 26.4362L14.8715 24.9116ZM14.8715 3.78405L13.6934 2.2595L14.8715 3.78405ZM9.47442 7.9545L10.6525 9.47905L9.47442 7.9545ZM3.12735 14.3478V9.06966H-0.725983V14.3478H3.12735ZM2.12328 10.0737H8.9103V6.2204H2.12328V10.0737ZM10.6525 9.47905L16.0495 5.30859L13.6934 2.2595L8.29636 6.42996L10.6525 9.47905ZM14.4315 4.51408L14.4315 24.1816L18.2849 24.1816L18.2849 4.51408L14.4315 4.51408ZM16.0495 23.3871L12.4358 20.5946L10.0797 23.6437L13.6934 26.4362L16.0495 23.3871ZM10.6936 20H2.12328V23.8533H10.6936V20ZM3.12735 21.004V14.3478H-0.725983V21.004H3.12735ZM2.12328 20C2.67781 20 3.12735 20.4495 3.12735 21.004H-0.725983C-0.725983 22.5776 0.549679 23.8533 2.12328 23.8533V20ZM12.4358 20.5946C11.9368 20.2091 11.3241 20 10.6936 20V23.8533C10.4714 23.8533 10.2555 23.7796 10.0797 23.6437L12.4358 20.5946ZM14.4315 24.1816C14.4315 23.3475 15.3895 22.8771 16.0495 23.3871L13.6934 26.4362C15.5663 27.8834 18.2849 26.5484 18.2849 24.1816L14.4315 24.1816ZM16.0495 5.30859C15.3895 5.81858 14.4315 5.34815 14.4315 4.51408L18.2849 4.51408C18.2849 2.14724 15.5663 0.812295 13.6934 2.2595L16.0495 5.30859ZM8.9103 10.0737C9.54083 10.0737 10.1535 9.86458 10.6525 9.47905L8.29636 6.42996C8.47218 6.2941 8.6881 6.2204 8.9103 6.2204V10.0737ZM3.12735 9.06966C3.12735 9.62419 2.67782 10.0737 2.12328 10.0737V6.2204C0.549675 6.2204 -0.725983 7.49606 -0.725983 9.06966H3.12735Z" fill="white" mask="url(#path-1-inside-1_1348_3516)"/>
<path d="M20.7144 9.52496C22.322 11.1326 24.5726 15.4502 20.7144 19.8596" stroke="white" stroke-width="1.92667" stroke-linecap="round"/>
<path d="M24.8477 5.39111C27.6036 8.14703 31.0485 15.7258 24.8477 23.3045" stroke="white" stroke-width="1.92667" stroke-linecap="round"/>
</svg>
