<svg width="24" height="27" viewBox="0 0 24 27" fill="none" xmlns="http://www.w3.org/2000/svg">
<path d="M21.5302 4.43762V16.8126C21.5302 17.8689 20.6739 18.7251 19.6177 18.7251C17.6364 18.7251 16.0302 20.3313 16.0302 22.3126C16.0302 23.3689 15.1739 24.2251 14.1177 24.2251H4.49268C3.43643 24.2251 2.58018 23.3689 2.58018 22.3126V4.43762C2.58018 3.38138 3.43643 2.52512 4.49268 2.52512H19.6177C20.6739 2.52512 21.5302 3.38138 21.5302 4.43762ZM19.6177 20.4001C19.9926 20.4001 20.3542 20.3426 20.6942 20.2358C19.9917 21.5825 18.8876 22.6866 17.5408 23.3891C17.6476 23.0492 17.7052 22.6875 17.7052 22.3126C17.7052 21.2564 18.5614 20.4001 19.6177 20.4001ZM4.49268 0.850122C2.51135 0.850122 0.905176 2.4563 0.905176 4.43762V22.3126C0.905176 24.2939 2.51135 25.9001 4.49268 25.9001H14.1177C19.1366 25.9001 23.2052 21.8315 23.2052 16.8126V4.43762C23.2052 2.4563 21.599 0.850122 19.6177 0.850122H4.49268ZM6.40518 8.56262C6.40518 9.02516 6.78014 9.40012 7.24268 9.40012H16.8677C17.3302 9.40012 17.7052 9.02516 17.7052 8.56262C17.7052 8.10008 17.3302 7.72512 16.8677 7.72512H7.24268C6.78014 7.72512 6.40518 8.10008 6.40518 8.56262ZM6.40518 12.6876C6.40518 13.1502 6.78014 13.5251 7.24268 13.5251H16.8677C17.3302 13.5251 17.7052 13.1502 17.7052 12.6876C17.7052 12.2251 17.3302 11.8501 16.8677 11.8501H7.24268C6.78014 11.8501 6.40518 12.2251 6.40518 12.6876ZM6.40518 16.8126C6.40518 17.2752 6.78014 17.6501 7.24268 17.6501H14.1177C14.5802 17.6501 14.9552 17.2752 14.9552 16.8126C14.9552 16.3501 14.5802 15.9751 14.1177 15.9751H7.24268C6.78014 15.9751 6.40518 16.3501 6.40518 16.8126Z" fill="#4F4F4F" stroke="#4F4F4F" stroke-width="0.3"/>
</svg>
