<svg width="174" height="80" viewBox="0 0 174 80" fill="none" xmlns="http://www.w3.org/2000/svg">
<rect x="0.5" y="0.5" width="173" height="79" rx="7.5" fill="#FFDAD2" fill-opacity="0.25" stroke="#F7A593"/>
<mask id="mask0_1783_3538" style="mask-type:alpha" maskUnits="userSpaceOnUse" x="0" y="0" width="174" height="80">
<rect width="174" height="80" rx="8" fill="#FFDAD2"/>
</mask>
<g mask="url(#mask0_1783_3538)">
<circle cx="145.5" cy="39.5" r="50" fill="#FF5520" stroke="white" stroke-width="3"/>
</g>
<path d="M154.428 31.9908C154.495 30.2658 154.682 28.3371 155.151 27.722L158.419 24.3926C161.008 21.7531 161.008 17.4386 158.419 14.7992C156.303 12.642 153.09 12.2513 150.571 13.6188C150.259 10.3559 147.541 7.78711 144.265 7.78711H142.898C139.618 7.78711 136.9 10.36 136.592 13.6188C134.074 12.2513 130.861 12.6461 128.745 14.7992C126.155 17.4386 126.155 21.7531 128.745 24.3926L132.012 27.722C132.598 28.4868 132.739 31.2841 132.768 33.192C129.792 35.4158 127.548 38.5623 126.455 42.2034C126.097 43.2135 125.831 44.236 125.644 45.2585C125.586 45.1421 125.519 45.0299 125.445 44.9218L121.579 37.1449C120.432 35.4116 118.075 34.9336 116.346 36.0808L110.689 39.83C108.955 40.9772 108.477 43.334 109.625 45.0631L115.278 51.6554C116.408 53.3638 118.719 53.8501 120.444 52.7569C120.058 53.6215 120.091 54.6565 120.631 55.5169L121.521 56.9343L121.832 58.2311C121.978 58.8421 122.477 59.2786 123.059 59.3825L123.204 59.6153C124.06 60.9786 125.877 61.3943 127.24 60.538L127.269 60.5172L129.057 63.2231C129.256 63.5266 129.589 63.6887 129.925 63.6887C130.121 63.6887 130.32 63.6346 130.499 63.5183C130.948 63.2231 131.085 62.6412 130.844 62.1757C132.835 64.2124 135.304 65.8459 138.168 66.8685C148.222 70.4597 159.279 65.2183 162.87 55.1636C166.046 46.2644 162.305 36.5838 154.432 31.9866L154.428 31.9908ZM125.349 49.3569C125.307 49.3652 125.266 49.3735 125.224 49.3818C125.266 49.3278 125.303 49.2737 125.345 49.2197C125.345 49.2654 125.345 49.3111 125.349 49.3569ZM111.932 42.0829C114.085 43.1054 115.643 45.1421 116.051 47.4947C113.889 46.4764 112.343 44.4313 111.932 42.0829ZM115.178 40.0961C117.256 41.264 118.678 43.4005 118.919 45.7739C116.832 44.6142 115.427 42.4653 115.178 40.0961ZM118.183 38.0967C120.195 39.377 121.496 41.5883 121.608 43.97C119.588 42.6981 118.304 40.4785 118.183 38.0967Z" fill="white" stroke="white" stroke-width="4.54546" stroke-miterlimit="10"/>
<path d="M158.418 14.8034C156.303 12.6461 153.09 12.2554 150.571 13.6229C150.259 10.36 147.541 7.79126 144.265 7.79126H142.898C139.618 7.79126 136.9 10.3642 136.592 13.6229C134.073 12.2554 130.86 12.6503 128.745 14.8034C126.155 17.4428 126.155 21.7573 128.745 24.3967L132.012 27.7261C132.926 28.9149 132.76 35.05 132.76 35.05C132.76 36.5796 133.986 37.8266 135.487 37.8266H151.676C153.177 37.8266 154.403 36.5754 154.403 35.05C154.403 35.05 154.241 28.9149 155.151 27.7261L158.418 24.3967C161.008 21.7573 161.008 17.4428 158.418 14.8034Z" fill="white" stroke="#040000" stroke-width="1.5" stroke-miterlimit="10"/>
<path d="M144.664 67.999C155.339 67.999 163.992 59.3456 163.992 48.671C163.992 37.9965 155.339 29.343 144.664 29.343C133.99 29.343 125.336 37.9965 125.336 48.671C125.336 59.3456 133.99 67.999 144.664 67.999Z" fill="white"/>
<path d="M143.247 64.7901C152.932 64.7901 160.783 56.9387 160.783 47.2536C160.783 37.5684 152.932 29.717 143.247 29.717C133.562 29.717 125.71 37.5684 125.71 47.2536C125.71 56.9387 133.562 64.7901 143.247 64.7901Z" fill="#FF5520"/>
<path d="M144.664 67.999C155.339 67.999 163.992 59.3456 163.992 48.671C163.992 37.9965 155.339 29.343 144.664 29.343C133.99 29.343 125.336 37.9965 125.336 48.671C125.336 59.3456 133.99 67.999 144.664 67.999Z" stroke="black" stroke-width="1.5" stroke-miterlimit="10"/>
<path d="M154.773 38.5623C163.83 47.7192 157.587 63.2066 144.664 63.4975C136.542 63.6804 129.647 56.7889 129.834 48.6669C130.125 35.7442 145.616 29.501 154.773 38.5582V38.5623ZM154.773 38.5623C147.669 31.438 135.478 34.0234 131.858 43.3632C127.502 54.7272 138.608 65.8335 149.972 61.4816C159.304 57.882 161.897 45.641 154.773 38.5623Z" fill="black"/>
<path d="M145.263 37.6396C145.263 37.6396 140.45 36.6171 137.174 39.9091C134.664 42.1329 133.986 45.9694 134.015 48.2389C134.015 48.2389 137.203 38.7785 145.263 37.6396Z" fill="white"/>
<path d="M147.408 45.3958C149.708 45.3958 151.572 42.5504 151.572 39.0404C151.572 35.5305 149.708 32.6851 147.408 32.6851C145.107 32.6851 143.243 35.5305 143.243 39.0404C143.243 42.5504 145.107 45.3958 147.408 45.3958Z" fill="white" stroke="#040000" stroke-width="0.831312" stroke-miterlimit="10"/>
<path d="M148.751 44.3151C150.05 44.3151 151.103 42.7072 151.103 40.7238C151.103 38.7404 150.05 37.1326 148.751 37.1326C147.451 37.1326 146.398 38.7404 146.398 40.7238C146.398 42.7072 147.451 44.3151 148.751 44.3151Z" fill="black"/>
<path d="M147.877 39.4353H146.219C145.737 39.4353 145.346 39.8261 145.346 40.3082V40.4537C145.346 40.9357 145.737 41.3265 146.219 41.3265H147.877C148.359 41.3265 148.75 40.9357 148.75 40.4537V40.3082C148.75 39.8261 148.359 39.4353 147.877 39.4353Z" fill="white"/>
<path d="M140.907 45.3958C143.207 45.3958 145.072 42.5504 145.072 39.0404C145.072 35.5305 143.207 32.6851 140.907 32.6851C138.607 32.6851 136.742 35.5305 136.742 39.0404C136.742 42.5504 138.607 45.3958 140.907 45.3958Z" fill="white" stroke="#040000" stroke-width="0.831312" stroke-miterlimit="10"/>
<path d="M142.25 44.3151C143.549 44.3151 144.602 42.7072 144.602 40.7238C144.602 38.7404 143.549 37.1326 142.25 37.1326C140.95 37.1326 139.897 38.7404 139.897 40.7238C139.897 42.7072 140.95 44.3151 142.25 44.3151Z" fill="black"/>
<path d="M141.376 39.4353H139.718C139.236 39.4353 138.845 39.8261 138.845 40.3082V40.4537C138.845 40.9357 139.236 41.3265 139.718 41.3265H141.376C141.858 41.3265 142.249 40.9357 142.249 40.4537V40.3082C142.249 39.8261 141.858 39.4353 141.376 39.4353Z" fill="white"/>
<path d="M148.755 47.4075L144.823 49.677C143.862 50.2298 142.661 49.5399 142.661 48.4301V43.8911C142.661 42.7813 143.862 42.0913 144.823 42.6441L148.755 44.9136C149.715 45.4664 149.715 46.8547 148.755 47.4075Z" fill="white" stroke="#060001" stroke-width="0.831312" stroke-miterlimit="10"/>
<path d="M144.273 18.2119C145.404 20.6352 145.412 23.5905 144.273 26.0138C143.135 23.5905 143.143 20.6393 144.273 18.2119Z" fill="#040000"/>
<path d="M139.639 18.2119C140.769 20.6352 140.778 23.5905 139.639 26.0138C138.5 23.5905 138.508 20.6393 139.639 18.2119Z" fill="#040000"/>
<path d="M148.887 18.2119C150.018 20.6352 150.026 23.5905 148.887 26.0138C147.748 23.5905 147.757 20.6393 148.887 18.2119Z" fill="#040000"/>
<path d="M124.29 49.7677L121.551 51.4871C120.18 52.3476 119.767 54.1563 120.627 55.527L123.198 59.6212C124.058 60.9918 125.867 61.4054 127.238 60.5449L129.976 58.8256C131.347 57.9651 131.761 56.1563 130.9 54.7856L128.33 50.6915C127.469 49.3208 125.661 48.9072 124.29 49.7677Z" fill="white" stroke="#040000" stroke-width="0.831312" stroke-miterlimit="10"/>
<path d="M130.79 62.0842L123.362 50.8324L124.38 50.1548C126.114 49.0076 126.592 46.6509 125.445 44.9217L121.579 37.1448C120.432 35.4115 118.075 34.9335 116.346 36.0807L110.689 39.8299C108.955 40.9772 108.477 43.3339 109.625 45.0631L115.278 51.6554C116.425 53.3886 118.782 53.8666 120.511 52.7194L121.629 51.9796L129.057 63.2272C129.256 63.5307 129.589 63.6928 129.925 63.6928C130.121 63.6928 130.32 63.6387 130.499 63.5223C130.977 63.2064 131.11 62.5622 130.794 62.0842H130.79ZM121.612 43.974C119.592 42.7021 118.308 40.4825 118.187 38.1008C120.199 39.381 121.5 41.5923 121.612 43.974ZM111.936 42.087C114.089 43.1095 115.648 45.1462 116.055 47.4988C113.893 46.4804 112.347 44.4354 111.936 42.087ZM115.182 40.1001C117.26 41.2681 118.682 43.4046 118.923 45.778C116.836 44.6183 115.431 42.4694 115.182 40.1001Z" fill="#040000"/>
<path d="M130.953 61.7887L131.041 61.9213C131.447 62.536 131.275 63.3634 130.662 63.7688L130.66 63.7699C130.431 63.9189 130.175 63.9882 129.925 63.9882C129.495 63.9882 129.067 63.7811 128.81 63.39L130.953 61.7887ZM130.953 61.7887H130.949L123.771 50.9153L124.544 50.4012C124.544 50.4011 124.544 50.401 124.544 50.4009C126.408 49.1669 126.925 46.6377 125.701 44.774L121.844 37.0133L121.835 36.997L121.825 36.9817C120.588 35.1124 118.048 34.597 116.183 35.8345C116.183 35.8345 116.183 35.8345 116.182 35.8345L110.526 39.5836C108.656 40.8208 108.141 43.3611 109.378 45.2264L109.389 45.2416L109.4 45.2554L115.042 51.834C116.283 53.6906 118.814 54.1997 120.674 52.9657C120.674 52.9657 120.674 52.9657 120.674 52.9656L121.545 52.3892L128.81 63.3895L130.953 61.7887Z" stroke="black" stroke-width="0.59091"/>
<path d="M125.956 53.5517L122.48 54.3837C121.656 54.5809 121.148 55.4086 121.345 56.2324L121.825 58.2374C122.022 59.0612 122.85 59.5692 123.674 59.372L127.15 58.54C127.974 58.3428 128.482 57.5151 128.285 56.6913L127.805 54.6863C127.608 53.8625 126.78 53.3545 125.956 53.5517Z" fill="white" stroke="#040000" stroke-width="0.831312" stroke-miterlimit="10"/>
<path d="M107.202 21.8659C107.195 21.635 107.258 21.4022 107.394 21.1963C107.746 20.6668 108.464 20.52 108.994 20.8752L116.872 26.118C117.402 26.4703 117.546 27.1884 117.193 27.7179C116.841 28.2475 116.123 28.3942 115.593 28.039L107.715 22.7962C107.392 22.5798 107.211 22.2266 107.202 21.8659Z" fill="white"/>
<path d="M106.047 21.8975C106.034 21.4184 106.169 20.9555 106.435 20.5554C106.776 20.0435 107.298 19.6913 107.901 19.5708C108.507 19.4502 109.123 19.572 109.635 19.9132L117.513 25.156C118.572 25.8635 118.86 27.2997 118.155 28.3587C117.814 28.8735 117.292 29.2228 116.686 29.3434C116.08 29.464 115.465 29.3422 114.953 29.001L107.074 23.7582C106.451 23.3421 106.065 22.6479 106.044 21.8975L106.047 21.8975ZM116.234 27.077L108.356 21.8342L116.231 27.0771L116.234 27.077Z" fill="white"/>
<path d="M107.202 21.8659C107.195 21.635 107.258 21.4022 107.394 21.1963C107.746 20.6668 108.464 20.52 108.994 20.8752L116.872 26.118C117.402 26.4703 117.546 27.1884 117.193 27.7179C116.841 28.2475 116.123 28.3942 115.593 28.039L107.715 22.7962C107.392 22.5798 107.211 22.2266 107.202 21.8659Z" fill="#FF5520"/>
<path d="M114.044 15.202C114.102 15.0252 114.212 14.8656 114.371 14.7463C114.782 14.4401 115.367 14.5235 115.672 14.9366L120.227 21.051C120.533 21.4619 120.448 22.0457 120.037 22.3519C119.626 22.6581 119.042 22.5747 118.736 22.1616L114.181 16.0472C113.994 15.7952 113.953 15.4784 114.044 15.202Z" fill="white"/>
<path d="M113.16 14.9131C113.279 14.546 113.507 14.2314 113.818 14C114.215 13.7042 114.707 13.5785 115.197 13.6507C115.69 13.7236 116.124 13.983 116.42 14.3807L120.975 20.4951C121.586 21.3191 121.415 22.4868 120.593 23.0992C120.195 23.3972 119.704 23.5207 119.212 23.4478C118.719 23.3749 118.285 23.1155 117.989 22.7178L113.434 16.6034C113.074 16.1185 112.969 15.4872 113.157 14.9123L113.16 14.9131ZM119.483 21.6057L114.928 15.4913L119.481 21.605L119.483 21.6057Z" fill="white"/>
<path d="M114.044 15.202C114.102 15.0252 114.212 14.8656 114.371 14.7463C114.782 14.4401 115.367 14.5235 115.672 14.9366L120.227 21.051C120.533 21.4619 120.448 22.0457 120.037 22.3519C119.626 22.6581 119.042 22.5747 118.736 22.1616L114.181 16.0472C113.994 15.7952 113.953 15.4784 114.044 15.202Z" fill="#FF5520"/>
</svg>
