<svg width="62" height="66" viewBox="0 0 62 66" fill="none" xmlns="http://www.w3.org/2000/svg">
<path d="M49.4282 26.9908C49.4947 25.2658 49.6818 23.3371 50.1515 22.722L53.4185 19.3926C56.0081 16.7532 56.0081 12.4386 53.4185 9.79923C51.3028 7.64197 48.0898 7.25125 45.5709 8.61876C45.2592 5.35586 42.5408 2.78711 39.2654 2.78711H37.8979C34.6184 2.78711 31.9 5.36002 31.5924 8.61876C29.0736 7.25125 25.8605 7.64613 23.7449 9.79923C21.1553 12.4386 21.1553 16.7532 23.7449 19.3926L27.0119 22.722C27.598 23.4868 27.7393 26.2841 27.7684 28.192C24.7923 30.4158 22.5478 33.5623 21.4546 37.2034C21.0971 38.2135 20.8311 39.236 20.6441 40.2585C20.5859 40.1421 20.5194 40.0299 20.4445 39.9218L16.5789 32.1449C15.4317 30.4116 13.075 29.9336 11.3458 31.0808L5.68876 34.83C3.95547 35.9772 3.47747 38.334 4.62468 40.0631L10.2776 46.6554C11.4082 48.3638 13.7192 48.8501 15.4442 47.7569C15.0576 48.6215 15.0909 49.6565 15.6312 50.5169L16.5208 51.9343L16.8325 53.2311C16.978 53.8421 17.4768 54.2786 18.0587 54.3825L18.2042 54.6153C19.0604 55.9786 20.8768 56.3943 22.2402 55.538L22.2693 55.5172L24.0566 58.2231C24.2561 58.5266 24.5886 58.6887 24.9253 58.6887C25.1207 58.6887 25.3202 58.6346 25.4989 58.5183C25.9478 58.2231 26.085 57.6412 25.8439 57.1757C27.8349 59.2124 30.3039 60.8459 33.1678 61.8684C43.2225 65.4597 54.2789 60.2183 57.8702 50.1636C61.0458 41.2644 57.3049 31.5838 49.4324 26.9866L49.4282 26.9908ZM20.3489 44.3569C20.3074 44.3652 20.2658 44.3735 20.2242 44.3818C20.2658 44.3278 20.3032 44.2737 20.3448 44.2197C20.3448 44.2654 20.3448 44.3111 20.3489 44.3569ZM6.93157 37.0829C9.08467 38.1054 10.6434 40.1421 11.0507 42.4947C8.88931 41.4764 7.34307 39.4313 6.93157 37.0829ZM10.1778 35.096C12.2561 36.264 13.6777 38.4005 13.9187 40.7739C11.8322 39.6142 10.4272 37.4653 10.1778 35.096ZM13.183 33.0967C15.1948 34.377 16.4958 36.5883 16.608 38.97C14.588 37.6981 13.3036 35.4785 13.183 33.0967Z" fill="white" stroke="white" stroke-width="4.54546" stroke-miterlimit="10"/>
<path d="M53.4183 9.80338C51.3026 7.64612 48.0896 7.25541 45.5707 8.62291C45.259 5.36001 42.5406 2.79126 39.2652 2.79126H37.8977C34.6182 2.79126 31.8998 5.36417 31.5922 8.62291C29.0734 7.25541 25.8603 7.65028 23.7446 9.80338C21.1551 12.4428 21.1551 16.7573 23.7446 19.3967L27.0117 22.7261C27.9261 23.9149 27.7599 30.05 27.7599 30.05C27.7599 31.5796 28.9861 32.8266 30.4866 32.8266H46.6764C48.1769 32.8266 49.4031 31.5754 49.4031 30.05C49.4031 30.05 49.241 23.9149 50.1513 22.7261L53.4183 19.3967C56.0079 16.7573 56.0079 12.4428 53.4183 9.80338Z" fill="white" stroke="#040000" stroke-width="1.5" stroke-miterlimit="10"/>
<path d="M39.6642 62.999C50.3387 62.999 58.9922 54.3456 58.9922 43.671C58.9922 32.9965 50.3387 24.343 39.6642 24.343C28.9896 24.343 20.3362 32.9965 20.3362 43.671C20.3362 54.3456 28.9896 62.999 39.6642 62.999Z" fill="white"/>
<path d="M38.2467 59.7901C47.9319 59.7901 55.7833 51.9387 55.7833 42.2536C55.7833 32.5684 47.9319 24.717 38.2467 24.717C28.5616 24.717 20.7102 32.5684 20.7102 42.2536C20.7102 51.9387 28.5616 59.7901 38.2467 59.7901Z" fill="#FF5520"/>
<path d="M39.6642 62.999C50.3387 62.999 58.9922 54.3456 58.9922 43.671C58.9922 32.9965 50.3387 24.343 39.6642 24.343C28.9896 24.343 20.3362 32.9965 20.3362 43.671C20.3362 54.3456 28.9896 62.999 39.6642 62.999Z" stroke="black" stroke-width="1.5" stroke-miterlimit="10"/>
<path d="M49.7729 33.5623C58.8301 42.7192 52.5869 58.2066 39.6642 58.4975C31.5422 58.6804 24.6465 51.7889 24.8336 43.6669C25.1245 30.7442 40.616 24.501 49.7729 33.5582V33.5623ZM49.7729 33.5623C42.6693 26.438 30.4782 29.0234 26.8578 38.3632C22.5017 49.7272 33.6081 60.8335 44.9721 56.4816C54.3036 52.882 56.8973 40.641 49.7729 33.5623Z" fill="black"/>
<path d="M40.2629 32.6396C40.2629 32.6396 35.4496 31.6171 32.1743 34.9091C29.6637 37.1329 28.9862 40.9694 29.0153 43.2389C29.0153 43.2389 32.2034 33.7785 40.2629 32.6396Z" fill="white"/>
<path d="M42.4076 40.3958C44.7077 40.3958 46.5724 37.5504 46.5724 34.0404C46.5724 30.5305 44.7077 27.6851 42.4076 27.6851C40.1074 27.6851 38.2427 30.5305 38.2427 34.0404C38.2427 37.5504 40.1074 40.3958 42.4076 40.3958Z" fill="white" stroke="#040000" stroke-width="0.831312" stroke-miterlimit="10"/>
<path d="M43.7506 39.3151C45.0499 39.3151 46.1032 37.7072 46.1032 35.7238C46.1032 33.7404 45.0499 32.1326 43.7506 32.1326C42.4512 32.1326 41.3979 33.7404 41.3979 35.7238C41.3979 37.7072 42.4512 39.3151 43.7506 39.3151Z" fill="black"/>
<path d="M42.8773 34.4353H41.2188C40.7368 34.4353 40.3459 34.8261 40.3459 35.3082V35.4537C40.3459 35.9357 40.7368 36.3265 41.2188 36.3265H42.8773C43.3594 36.3265 43.7502 35.9357 43.7502 35.4537V35.3082C43.7502 34.8261 43.3594 34.4353 42.8773 34.4353Z" fill="white"/>
<path d="M35.9068 40.3958C38.207 40.3958 40.0717 37.5504 40.0717 34.0404C40.0717 30.5305 38.207 27.6851 35.9068 27.6851C33.6066 27.6851 31.7419 30.5305 31.7419 34.0404C31.7419 37.5504 33.6066 40.3958 35.9068 40.3958Z" fill="white" stroke="#040000" stroke-width="0.831312" stroke-miterlimit="10"/>
<path d="M37.2496 39.3151C38.5489 39.3151 39.6022 37.7072 39.6022 35.7238C39.6022 33.7404 38.5489 32.1326 37.2496 32.1326C35.9503 32.1326 34.897 33.7404 34.897 35.7238C34.897 37.7072 35.9503 39.3151 37.2496 39.3151Z" fill="black"/>
<path d="M36.3763 34.4353H34.7179C34.2358 34.4353 33.845 34.8261 33.845 35.3082V35.4537C33.845 35.9357 34.2358 36.3265 34.7179 36.3265H36.3763C36.8584 36.3265 37.2492 35.9357 37.2492 35.4537V35.3082C37.2492 34.8261 36.8584 34.4353 36.3763 34.4353Z" fill="white"/>
<path d="M43.7547 42.4075L39.8225 44.677C38.8624 45.2298 37.6611 44.5399 37.6611 43.4301V38.8911C37.6611 37.7813 38.8624 37.0913 39.8225 37.6441L43.7547 39.9136C44.7148 40.4664 44.7148 41.8547 43.7547 42.4075Z" fill="white" stroke="#060001" stroke-width="0.831312" stroke-miterlimit="10"/>
<path d="M39.2734 13.2119C40.404 15.6352 40.4123 18.5905 39.2734 21.0138C38.1345 18.5905 38.1428 15.6393 39.2734 13.2119Z" fill="#040000"/>
<path d="M34.6389 13.2119C35.7695 15.6352 35.7778 18.5905 34.6389 21.0138C33.5 18.5905 33.5083 15.6393 34.6389 13.2119Z" fill="#040000"/>
<path d="M43.8872 13.2119C45.0178 15.6352 45.0261 18.5905 43.8872 21.0138C42.7483 18.5905 42.7566 15.6393 43.8872 13.2119Z" fill="#040000"/>
<path d="M19.29 44.7677L16.5512 46.4871C15.1805 47.3476 14.7669 49.1563 15.6274 50.527L18.1977 54.6212C19.0581 55.9918 20.8669 56.4054 22.2376 55.5449L24.9764 53.8256C26.3471 52.9651 26.7607 51.1563 25.9002 49.7856L23.3299 45.6915C22.4694 44.3208 20.6607 43.9072 19.29 44.7677Z" fill="white" stroke="#040000" stroke-width="0.831312" stroke-miterlimit="10"/>
<path d="M25.7899 57.0842L18.3621 45.8324L19.3805 45.1548C21.1137 44.0076 21.5918 41.6509 20.4445 39.9217L16.5789 32.1448C15.4317 30.4115 13.075 29.9335 11.3458 31.0807L5.68876 34.8299C3.95547 35.9772 3.47747 38.3339 4.62468 40.0631L10.2776 46.6554C11.4248 48.3886 13.7816 48.8666 15.5107 47.7194L16.6288 46.9796L24.0566 58.2272C24.2561 58.5307 24.5886 58.6928 24.9253 58.6928C25.1207 58.6928 25.3202 58.6387 25.4989 58.5223C25.9769 58.2064 26.1099 57.5622 25.794 57.0842H25.7899ZM16.6122 38.974C14.5921 37.7021 13.3077 35.4825 13.1872 33.1008C15.199 34.381 16.5 36.5923 16.6122 38.974ZM6.93573 37.087C9.08882 38.1095 10.6475 40.1462 11.0549 42.4988C8.89346 41.4804 7.34722 39.4354 6.93573 37.087ZM10.182 35.1001C12.2603 36.2681 13.6818 38.4046 13.9229 40.778C11.8363 39.6183 10.4314 37.4694 10.182 35.1001Z" fill="#040000"/>
<path d="M16.5452 47.3892L23.8097 58.3895L16.5452 47.3892ZM16.5452 47.3892L15.6741 47.9656C15.674 47.9657 15.674 47.9657 15.6739 47.9657C13.8138 49.1997 11.2826 48.6906 10.0416 46.834L4.40039 40.2554L4.38854 40.2416L4.37848 40.2264C3.1409 38.3611 3.65635 35.8208 5.52569 34.5836L11.1825 30.8345C11.1825 30.8345 11.1826 30.8345 11.1826 30.8345C13.0479 29.597 15.5881 30.1124 16.8253 31.9817L16.8354 31.997L16.8435 32.0133L20.7011 39.774C21.9253 41.6377 21.4077 44.1669 19.5441 45.4009C19.5439 45.401 19.5437 45.4011 19.5435 45.4012L18.7709 45.9153L25.9489 56.7887H25.9529L26.0405 56.9213C26.4468 57.536 26.2753 58.3634 25.6618 58.7688L25.6601 58.7699C25.4314 58.9189 25.1754 58.9882 24.9253 58.9882C24.4953 58.9882 24.0674 58.7811 23.81 58.39L16.5452 47.3892Z" stroke="black" stroke-width="0.59091"/>
<path d="M20.9564 48.5517L17.4799 49.3837C16.6561 49.5809 16.1481 50.4086 16.3453 51.2324L16.8252 53.2374C17.0223 54.0612 17.85 54.5692 18.6738 54.372L22.1503 53.54C22.9741 53.3428 23.4821 52.5151 23.2849 51.6913L22.805 49.6863C22.6079 48.8625 21.7802 48.3545 20.9564 48.5517Z" fill="white" stroke="#040000" stroke-width="0.831312" stroke-miterlimit="10"/>
<path d="M2.20159 16.8659C2.19527 16.635 2.2582 16.4022 2.39408 16.1963C2.74637 15.6668 3.4644 15.52 3.994 15.8752L11.8722 21.118C12.4017 21.4703 12.5455 22.1884 12.1933 22.7179C11.841 23.2475 11.123 23.3942 10.5933 23.039L2.71518 17.7962C2.39156 17.5798 2.21148 17.2266 2.20159 16.8659Z" fill="white"/>
<path d="M1.0473 16.8975C1.03417 16.4184 1.16879 15.9555 1.43509 15.5554C1.77631 15.0435 2.29808 14.6913 2.90129 14.5708C3.5074 14.4502 4.12302 14.572 4.63491 14.9132L12.5131 20.156C13.5722 20.8635 13.8599 22.2997 13.1554 23.3587C12.8142 23.8735 12.2924 24.2228 11.6863 24.3434C11.0802 24.464 10.4645 24.3422 9.95264 24.001L2.07448 18.7582C1.45078 18.3421 1.06497 17.6479 1.04441 16.8975L1.0473 16.8975ZM11.2343 22.077L3.3561 16.8342L11.2314 22.0771L11.2343 22.077Z" fill="white"/>
<path d="M2.20159 16.8659C2.19527 16.635 2.2582 16.4022 2.39408 16.1963C2.74637 15.6668 3.4644 15.52 3.994 15.8752L11.8722 21.118C12.4017 21.4703 12.5455 22.1884 12.1933 22.7179C11.841 23.2475 11.123 23.3942 10.5933 23.039L2.71518 17.7962C2.39156 17.5798 2.21148 17.2266 2.20159 16.8659Z" fill="#FF5520"/>
<path d="M9.04372 10.202C9.10155 10.0252 9.21243 9.86562 9.37136 9.74627C9.78226 9.44008 10.3668 9.52349 10.6723 9.9366L15.2273 16.051C15.5335 16.4619 15.4478 17.0457 15.037 17.3519C14.6261 17.6581 14.0415 17.5747 13.736 17.1616L9.18103 11.0472C8.9942 10.7952 8.95338 10.4784 9.04372 10.202Z" fill="white"/>
<path d="M8.1595 9.91307C8.27949 9.54604 8.50717 9.23136 8.81773 9.00005C9.21544 8.70424 9.70683 8.57854 10.1972 8.65073C10.6897 8.72364 11.1237 8.983 11.4196 9.38071L15.9746 15.4951C16.5862 16.3191 16.415 17.4868 15.5932 18.0992C15.1947 18.3972 14.7041 18.5207 14.2115 18.4478C13.719 18.3749 13.2849 18.1155 12.9891 17.7178L8.43412 11.6034C8.07381 11.1185 7.96937 10.4872 8.15729 9.91235L8.1595 9.91307ZM14.4833 16.6057L9.92831 10.4913L14.4811 16.605L14.4833 16.6057Z" fill="white"/>
<path d="M9.04372 10.202C9.10155 10.0252 9.21243 9.86562 9.37136 9.74627C9.78226 9.44008 10.3668 9.52349 10.6723 9.9366L15.2273 16.051C15.5335 16.4619 15.4478 17.0457 15.037 17.3519C14.6261 17.6581 14.0415 17.5747 13.736 17.1616L9.18103 11.0472C8.9942 10.7952 8.95338 10.4784 9.04372 10.202Z" fill="#FF5520"/>
</svg>
