<svg width="24" height="24" viewBox="0 0 24 24" fill="none" xmlns="http://www.w3.org/2000/svg">
<path d="M16.8213 19.504C20.2335 19.504 22.9996 15.3617 22.9996 10.252C22.9996 5.14226 20.2335 1 16.8213 1C13.4092 1 10.6431 5.14226 10.6431 10.252C10.6431 15.3617 13.4092 19.504 16.8213 19.504Z" fill="white" stroke="#FF5520" stroke-width="1.7" stroke-miterlimit="10"/>
<path fill-rule="evenodd" clip-rule="evenodd" d="M20.6503 10.6589C19.7093 11.0103 18.6447 11.2083 17.5174 11.2083C16.4062 11.2083 15.356 11.0159 14.4251 10.6739C14.1854 11.3828 14.0503 12.1844 14.0503 13.0333C14.0503 15.9207 15.6128 18.2614 17.5402 18.2614C19.4676 18.2614 21.0301 15.9207 21.0301 13.0333C21.0301 12.1784 20.8931 11.3714 20.6503 10.6589Z" fill="#FF5520"/>
<path d="M16.0719 12.9094H13.6117C12.8966 12.9094 12.3169 13.4783 12.3169 14.1801V14.3919C12.3169 15.0937 12.8966 15.6626 13.6117 15.6626H16.0719C16.7871 15.6626 17.3668 15.0937 17.3668 14.3919V14.1801C17.3668 13.4783 16.7871 12.9094 16.0719 12.9094Z" fill="white"/>
<path d="M7.17825 19.504C10.5904 19.504 13.3565 15.3617 13.3565 10.252C13.3565 5.14226 10.5904 1 7.17825 1C3.76609 1 1 5.14226 1 10.252C1 15.3617 3.76609 19.504 7.17825 19.504Z" fill="white" stroke="#FF5520" stroke-width="1.7" stroke-miterlimit="10"/>
<path fill-rule="evenodd" clip-rule="evenodd" d="M10.0088 10.6597C9.00958 11.0105 7.87932 11.2082 6.6824 11.2082C5.63887 11.2082 4.64601 11.0579 3.74645 10.7869C3.5299 11.4675 3.40869 12.2293 3.40869 13.0335C3.40869 15.9209 4.97118 18.2616 6.8986 18.2616C8.82603 18.2616 10.3885 15.9209 10.3885 13.0335C10.3885 12.1788 10.2516 11.372 10.0088 10.6597Z" fill="#FF5520"/>
<path d="M6.53727 12.9094H4.07707C3.36195 12.9094 2.78223 13.4783 2.78223 14.1801V14.3919C2.78223 15.0937 3.36195 15.6626 4.07707 15.6626H6.53727C7.25239 15.6626 7.83211 15.0937 7.83211 14.3919V14.1801C7.83211 13.4783 7.25239 12.9094 6.53727 12.9094Z" fill="white"/>
<path d="M16.6811 19.9769L11.7655 22.7612C10.5652 23.4394 9.06348 22.5929 9.06348 21.2314V15.6629C9.06348 14.3014 10.5652 13.4549 11.7655 14.1331L16.6811 16.9173C17.8814 17.5956 17.8814 19.2987 16.6811 19.9769Z" fill="white" stroke="#FF5520" stroke-width="1.7" stroke-miterlimit="10"/>
</svg>
