<svg width="24" height="24" viewBox="0 0 24 24" fill="none" xmlns="http://www.w3.org/2000/svg">
<path d="M3.67755 20.6066C3.94792 20.6066 4.1671 20.3874 4.1671 20.1171V14.4044C4.1671 12.2112 4.99235 10.1078 6.4613 8.55691C7.93026 7.00606 9.92259 6.1348 12 6.1348C14.0774 6.1348 16.0697 7.00606 17.5387 8.55691C19.0077 10.1078 19.8329 12.2112 19.8329 14.4044V20.1171C19.8329 20.3874 20.0521 20.6066 20.3225 20.6066V20.6066C20.5928 20.6066 20.812 20.8258 20.812 21.0962V21.6403C20.812 22.2112 20.3492 22.674 19.7783 22.674H4.22169C3.65079 22.674 3.18799 22.2112 3.18799 21.6403V21.0962C3.18799 20.8258 3.40717 20.6066 3.67755 20.6066V20.6066ZM6.12533 18.4335C6.12533 19.6337 7.09827 20.6066 8.29845 20.6066H15.7016C16.9017 20.6066 17.8747 19.6337 17.8747 18.4335V14.4044C17.8747 12.7595 17.2557 11.1819 16.154 10.0188C15.0523 8.85565 13.5581 8.20221 12 8.20221C10.4419 8.20221 8.94769 8.85565 7.84598 10.0188C6.74426 11.1819 6.12533 12.7595 6.12533 14.4044V18.4335ZM11.0209 2.97911C11.0209 2.43836 11.4593 2 12 2V2C12.5407 2 12.9791 2.43836 12.9791 2.97911V4.12199C12.9791 4.66274 12.5407 5.1011 12 5.1011V5.1011C11.4593 5.1011 11.0209 4.66274 11.0209 4.12199V2.97911ZM18.8857 5.67316C19.2822 5.25454 19.9489 5.25454 20.3454 5.67316V5.67316C20.7125 6.0608 20.7126 6.66784 20.3455 7.05557L19.6539 7.78607C19.2575 8.2048 18.5909 8.20499 18.1942 7.7865V7.7865C17.8267 7.39878 17.8266 6.79134 18.1939 6.40349L18.8857 5.67316ZM3.65479 7.05559C3.28756 6.66788 3.28756 6.06069 3.65479 5.67298V5.67298C4.05125 5.25443 4.71776 5.25435 5.11432 5.67281L5.80667 6.40342C6.17382 6.79086 6.17421 7.39767 5.80756 7.78558V7.78558C5.41115 8.20498 4.74383 8.20534 4.34697 7.78636L3.65479 7.05559ZM8.08355 14.4044C7.5428 14.4044 7.09542 13.9625 7.19211 13.4305C7.37539 12.4221 7.84071 11.4862 8.53832 10.7497C9.21084 10.0397 10.0589 9.5576 10.9748 9.35049C11.5316 9.22458 12 9.69871 12 10.2696V10.2696C12 10.8405 11.5222 11.2866 10.9897 11.4925C10.5926 11.6461 10.2278 11.8898 9.92299 12.2116C9.59363 12.5593 9.35057 12.9811 9.20835 13.4399C9.04823 13.9564 8.6243 14.4044 8.08355 14.4044V14.4044Z" fill="#FF5520"/>
</svg>
