<svg width="16" height="17" viewBox="0 0 16 17" fill="none" xmlns="http://www.w3.org/2000/svg">
<g clip-path="url(#clip0_2319_5819)">
<path d="M15.3396 8.64577C15.3396 8.00392 15.2874 7.53553 15.1744 7.0498H7.82629V9.94682H12.1394C12.0525 10.6668 11.5829 11.751 10.5394 12.4796L10.5248 12.5765L12.8481 14.3718L13.0091 14.3878C14.4873 13.026 15.3396 11.0224 15.3396 8.64577Z" fill="#4285F4"/>
<path d="M7.82627 16.2791C9.93935 16.2791 11.7133 15.5851 13.009 14.3882L10.5394 12.4799C9.8785 12.9396 8.99149 13.2606 7.82627 13.2606C5.75665 13.2606 4.00008 11.8988 3.37392 10.0166L3.28213 10.0244L0.86631 11.8892L0.834717 11.9768C2.1217 14.5269 4.76527 16.2791 7.82627 16.2791Z" fill="#34A853"/>
<path d="M3.37399 10.0168C3.20877 9.5311 3.11315 9.01063 3.11315 8.47289C3.11315 7.93508 3.20877 7.41467 3.3653 6.92894L3.36092 6.82549L0.914821 4.93066L0.834789 4.96863C0.304361 6.02685 0 7.21519 0 8.47289C0 9.73058 0.304361 10.9189 0.834789 11.9771L3.37399 10.0168Z" fill="#FBBC05"/>
<path d="M7.82627 3.68448C9.29585 3.68448 10.2872 4.31766 10.8524 4.8468L13.0612 2.69569C11.7047 1.43799 9.93935 0.666016 7.82627 0.666016C4.76527 0.666016 2.1217 2.41811 0.834717 4.96819L3.36522 6.92849C4.00008 5.04628 5.75665 3.68448 7.82627 3.68448Z" fill="#EB4335"/>
</g>
<defs>
<clipPath id="clip0_2319_5819">
<rect width="15.3469" height="15.6667" fill="white" transform="translate(0 0.666016)"/>
</clipPath>
</defs>
</svg>
