<svg width="91" height="114" viewBox="0 0 91 114" fill="none" xmlns="http://www.w3.org/2000/svg">
<g clip-path="url(#clip0_1008_3461)">
<path d="M81.5085 25.2462C81.1137 25.1052 80.719 25.0112 80.3148 24.9454L81.6495 21.2047C83.2849 16.6179 80.8881 11.5425 76.292 9.90708L60.5018 4.26769C55.9151 2.63227 50.8396 5.02901 49.2042 9.61571L46.3469 17.6142L46.4409 17.6424L40.4444 34.429C40.294 34.4478 40.153 34.476 40.0026 34.523L29.5979 37.5025C29.2408 37.6059 28.846 37.5213 28.5546 37.2863L20.199 30.4062C19.2967 29.6637 18.0654 29.4945 17.0033 29.9739C15.9318 30.4532 15.2457 31.4871 15.2081 32.6526L14.8227 43.4708C14.8133 43.8468 14.616 44.1945 14.2964 44.3919L5.17 50.2099C4.18311 50.8396 3.64736 51.9581 3.77895 53.1236C3.91054 54.289 4.67185 55.2665 5.77153 55.6613L15.9412 59.3645C16.2984 59.4961 16.5616 59.7874 16.6555 60.154L19.3719 70.6339C19.6632 71.7711 20.5655 72.6264 21.7122 72.8614C21.919 72.9084 22.1351 72.9272 22.3419 72.9272C23.2724 72.9272 24.1559 72.5043 24.7387 71.7523L29.1374 66.1318L22.0318 86.0482L29.3066 107.515C29.6919 108.653 30.5566 109.527 31.6845 109.931C32.1169 110.081 32.5586 110.157 33.0004 110.157C33.7147 110.157 34.429 109.959 35.0587 109.564L54.289 97.5619L68.6413 57.3531L71.179 56.9208C73.275 56.5636 74.3747 54.3924 73.6791 52.569C78.0872 52.6066 82.9653 48.3583 85.3339 41.9952C88.0972 34.5512 86.3866 27.0508 81.5179 25.2462H81.5085Z" fill="white" stroke="white" stroke-width="7.51918" stroke-miterlimit="10"/>
<path d="M22.896 85.7748L30.1802 107.233C30.8099 109.084 32.9999 109.864 34.6635 108.83L53.8938 96.8374" fill="white"/>
<path d="M33.0561 110.166C32.6144 110.166 32.1726 110.091 31.7403 109.94C30.6124 109.536 29.7477 108.652 29.3623 107.525L22.0781 86.0667L23.7135 85.5122L30.9978 106.97C31.2139 107.6 31.6933 108.098 32.323 108.314C32.9527 108.54 33.6389 108.464 34.2028 108.107L53.4331 96.1143L54.3448 97.5805L35.1145 109.574C34.4848 109.968 33.7704 110.166 33.0561 110.166Z" fill="black"/>
<path d="M27.4448 97.449L31.101 108.183C31.4206 109.113 32.5109 109.498 33.3474 108.982L42.9813 102.985" fill="#FF5520"/>
<path d="M31.6559 110.175L31.6581 110.176C32.1162 110.336 32.5857 110.416 33.0561 110.416C33.8165 110.416 34.577 110.206 35.2473 109.785L54.4771 97.7926L54.6889 97.6605L54.5571 97.4485L53.6454 95.9822L53.5132 95.7697L53.3008 95.9021L34.0705 107.895L34.069 107.896C33.5705 108.212 32.9648 108.278 32.4073 108.079L32.4042 108.078C31.8511 107.888 31.4267 107.449 31.2343 106.889C31.2343 106.889 31.2342 106.889 31.2342 106.889L23.9503 85.4318L23.8699 85.1952L23.6333 85.2754L21.9978 85.83L21.761 85.9103L21.8414 86.1471L29.1256 107.605L29.1258 107.605C29.5356 108.805 30.456 109.746 31.6559 110.175Z" fill="black" stroke="black" stroke-width="0.5"/>
<path d="M63.4354 6.32119L72.827 9.67462C78.6868 11.767 81.7485 18.2295 79.6562 24.0893L53.8149 96.4602L23.1794 85.5212L49.0207 13.1504C51.1131 7.29061 57.5756 4.22886 63.4354 6.32119Z" fill="#FF5520"/>
<path d="M54.2606 97.8059L54.4095 97.859L54.5214 97.7473L54.5308 97.7379L54.5706 97.6981L54.5895 97.6451L81.9311 21.0528L81.9312 21.0528C83.5566 16.4959 81.1673 11.456 76.6103 9.83053C76.6103 9.83053 76.6103 9.83052 76.6103 9.83051L60.4159 4.05016L60.4158 4.05014C55.8589 2.42474 50.819 4.81408 49.1936 9.37106L21.852 85.9726L21.7679 86.2081L22.0034 86.2921L54.2606 97.8059ZM24.6146 84.8556L51.2999 10.1219L51.2999 10.1217C52.5129 6.71825 56.2701 4.94324 59.6746 6.15653L75.8689 11.9369L75.869 11.9369C79.2725 13.1498 81.0475 16.9071 79.8342 20.3115L53.15 95.0422L24.6146 84.8556Z" fill="black" stroke="black" stroke-width="0.5"/>
<path d="M60.2498 5.98124L75.5189 11.4333C79.3687 12.808 81.3792 17.0516 80.0046 20.9014L77.8168 27.0286L48.5939 16.594L50.7817 10.4669C52.1564 6.61707 56.4 4.60659 60.2498 5.98124Z" fill="#FFD503" stroke="black" stroke-width="1.5"/>
<path d="M57.1429 20.3279L57.0487 20.2943L57.0151 20.3885L32.5733 88.8778L32.5397 88.9719L32.6339 89.0056L34.4397 89.65L34.5339 89.6836L34.5675 89.5894L59.0093 21.1002L59.0429 21.006L58.9487 20.9724L57.1429 20.3279Z" fill="black" stroke="black" stroke-width="0.2"/>
<path d="M67.8963 24.16L67.8021 24.1264L67.7685 24.2205L43.3267 92.7098L43.2931 92.804L43.3873 92.8376L45.1931 93.482L45.2873 93.5157L45.3209 93.4215L69.7627 24.9322L69.7963 24.838L69.7022 24.8044L67.8963 24.16Z" fill="black" stroke="black" stroke-width="0.2"/>
<path d="M19.6533 31.1581L28.009 38.0382C28.5447 38.4799 29.2591 38.6303 29.917 38.4329L40.3217 35.4535C41.9947 34.9741 43.4891 36.6189 42.85 38.2356L38.8836 48.3113C38.6298 48.9504 38.7144 49.6835 39.0998 50.2569L45.1527 59.2329C46.1208 60.6709 45.0211 62.6071 43.2823 62.5037L32.4829 61.8458C31.7968 61.8082 31.1295 62.0996 30.7065 62.6447L24.0426 71.1696C22.9711 72.5418 20.7906 72.0907 20.3582 70.3989L17.6419 59.919C17.4727 59.2517 16.9746 58.7065 16.3261 58.4716L6.15637 54.7684C4.52095 54.1762 4.27658 51.9581 5.74282 51.0276L14.8692 45.2096C15.452 44.8336 15.8185 44.2039 15.8373 43.5178L16.2227 32.6996C16.2885 30.9608 18.3093 30.0491 19.6533 31.1581Z" fill="#FFD503"/>
<path d="M22.5476 73.0862H22.3976C22.1827 73.0862 21.9556 73.0667 21.7361 73.017C20.5334 72.7699 19.5974 71.872 19.2825 70.6812L19.2823 70.6805L16.566 60.2006L16.5659 60.2002C16.4842 59.8817 16.2562 59.6289 15.9452 59.5143C15.9452 59.5142 15.9451 59.5142 15.945 59.5142L5.77587 55.8112L5.77545 55.8111C4.62257 55.3873 3.82352 54.3713 3.68556 53.1494C3.54754 51.9269 4.10993 50.7529 5.14497 50.0924L5.14503 50.0924L14.2714 44.2744L14.2732 44.2733L14.2732 44.2733C14.5491 44.1029 14.7203 43.802 14.7285 43.476L14.7285 43.4744H14.7285L15.1138 32.6568C15.1138 32.6567 15.1139 32.6565 15.1139 32.6564C15.1534 31.4239 15.8837 30.3487 16.9973 29.8461L16.9977 29.8459C18.1205 29.3436 19.4034 29.5108 20.3503 30.2997C20.3504 30.2998 20.3505 30.2999 20.3507 30.3L28.7045 37.1785C28.7047 37.1787 28.7049 37.1788 28.7051 37.179C28.9594 37.3838 29.2943 37.4568 29.6126 37.3672C29.6127 37.3671 29.6128 37.3671 29.6129 37.3671L40.017 34.3878L40.0174 34.3876C41.2 34.0526 42.4429 34.4077 43.2707 35.3143C44.0987 36.2212 44.3356 37.5036 43.8822 38.6473L22.5476 73.0862ZM22.5476 73.0862V73.0733M22.5476 73.0862V73.0733M22.5476 73.0733C23.468 73.0302 24.3238 72.5919 24.9122 71.8447L24.9125 71.8443L31.575 63.3212C31.5752 63.3209 31.5754 63.3206 31.5757 63.3203C31.7803 63.0672 32.0905 62.9283 32.4181 62.9445C32.4183 62.9445 32.4186 62.9445 32.4188 62.9445L43.2161 63.6023C43.2162 63.6023 43.2164 63.6023 43.2165 63.6023L43.2166 63.6023L43.2257 63.4526M22.5476 73.0733L46.0664 58.6129L45.942 58.6967C46.6 59.6648 46.6469 60.9055 46.0642 61.9206C45.4815 62.9357 44.3912 63.5278 43.2257 63.4526M43.2257 63.4526L32.4263 62.7947L43.2257 63.4526ZM18.3632 31.7871H18.3278C18.1916 31.7871 18.0523 31.8192 17.9182 31.8778C17.5668 32.0332 17.3487 32.3573 17.3405 32.74L17.3405 32.7421L17.3405 32.7421L16.9551 43.5603L16.9551 43.5606C16.9157 44.6154 16.3636 45.5814 15.4766 46.153L15.476 46.1534L6.34958 51.9714L6.34845 51.9721C6.0235 52.1752 5.86006 52.5317 5.90113 52.9096L5.90116 52.9099C5.94207 53.2944 6.18585 53.6032 6.54579 53.7341L6.54585 53.7341L16.7155 57.4373L16.7158 57.4374C17.7108 57.8019 18.4605 58.6202 18.7268 59.6459L18.7268 59.646L21.4431 70.1256C21.5415 70.5029 21.8257 70.77 22.2008 70.8434L22.2039 70.844C22.5782 70.9254 22.9436 70.7885 23.1818 70.4845L29.8456 61.9598L29.8458 61.9595C30.4961 61.1318 31.5209 60.6681 32.5671 60.737L32.567 60.737L32.5579 60.8867L32.5678 60.737L18.3632 31.7871ZM18.3632 31.7871L18.3808 31.7783C18.587 31.7855 18.7856 31.858 18.9654 32.0065L18.9656 32.0066L27.3209 38.8864C27.3209 38.8864 27.321 38.8864 27.321 38.8865C28.1293 39.5567 29.2237 39.7937 30.2403 39.4978C30.2404 39.4977 30.2405 39.4977 30.2407 39.4977L40.6447 36.5184L40.645 36.5183C41.0127 36.4121 41.3861 36.5171 41.6488 36.8043C41.9096 37.0896 41.9757 37.4705 41.836 37.8327C41.8359 37.8329 41.8358 37.8331 41.8357 37.8333L37.8697 47.9082L37.8695 47.9086C37.4853 48.8939 37.6034 49.9983 38.1951 50.876L38.3195 50.7922L38.1951 50.8761L44.248 59.8521L44.2491 59.8536C44.4682 60.1701 44.4782 60.5589 44.2892 60.8967L18.3632 31.7871ZM39.9159 48.723L43.8821 38.6476L46.0661 58.6124L40.0139 49.6375C40.0138 49.6373 40.0136 49.6371 40.0135 49.6369C39.8335 49.3665 39.7938 49.0241 39.9153 48.7244L39.9159 48.723Z" fill="black" stroke="black" stroke-width="0.3"/>
<path d="M85.4011 42.0041C88.1664 34.5645 86.4558 27.0645 81.5804 25.2523C76.705 23.4401 70.511 28.002 67.7458 35.4416C64.9805 42.8812 66.6911 50.3813 71.5665 52.1935C76.4418 54.0056 82.6358 49.4437 85.4011 42.0041Z" fill="white" stroke="#040000" stroke-width="1.8798" stroke-miterlimit="10"/>
<path d="M80.7613 42.5858C82.3239 38.3818 81.3581 34.1441 78.6041 33.1204C75.8502 32.0968 72.3509 34.6749 70.7883 38.8788C69.2257 43.0828 70.1915 47.3206 72.9455 48.3442C75.6994 49.3678 79.1987 46.7897 80.7613 42.5858Z" fill="black"/>
<path d="M76.6122 44.129L80.1274 45.4356C81.1492 45.8154 82.2854 45.295 82.6652 44.2732L82.7798 43.9648C83.1596 42.943 82.6392 41.8068 81.6174 41.427L78.1022 40.1204C77.0804 39.7406 75.9442 40.2611 75.5644 41.2829L75.4498 41.5912C75.07 42.613 75.5904 43.7492 76.6122 44.129Z" fill="white"/>
<path d="M71.6165 36.8831C74.3817 29.4435 72.6712 21.9435 67.7958 20.1313C62.9204 18.3192 56.7264 22.8811 53.9611 30.3207C51.1958 37.7603 52.9064 45.2603 57.7818 47.0725C62.6572 48.8847 68.8512 44.3227 71.6165 36.8831Z" fill="white" stroke="#040000" stroke-width="1.8798" stroke-miterlimit="10"/>
<path d="M66.9761 37.4661C68.5387 33.2622 67.5729 29.0244 64.819 28.0008C62.065 26.9771 58.5657 29.5553 57.0032 33.7592C55.4406 37.9631 56.4064 42.2009 59.1603 43.2246C61.9143 44.2482 65.4135 41.6701 66.9761 37.4661Z" fill="black"/>
<path d="M62.8261 39.0134L66.3413 40.32C67.3631 40.6998 68.4993 40.1794 68.8791 39.1576L68.9937 38.8492C69.3735 37.8274 68.8531 36.6912 67.8313 36.3114L64.3161 35.0048C63.2943 34.625 62.1581 35.1455 61.7783 36.1673L61.6637 36.4756C61.2839 37.4974 61.8043 38.6336 62.8261 39.0134Z" fill="white"/>
<path d="M71.2345 56.9306L61.1118 58.6412C58.6399 59.0642 56.6473 56.6486 57.512 54.2989L61.0836 44.6743C61.9578 42.3246 65.0406 41.7983 66.6478 43.7344L73.1895 51.639C74.7874 53.5658 73.6971 56.5077 71.2251 56.9212L71.2345 56.9306Z" fill="white" stroke="#060001" stroke-width="1.8798" stroke-miterlimit="10"/>
</g>
<defs>
<clipPath id="clip0_1008_3461">
<rect width="90.4088" height="113.925" fill="white"/>
</clipPath>
</defs>
</svg>
