<svg width="20" height="20" viewBox="0 0 20 20" fill="none" xmlns="http://www.w3.org/2000/svg">
<path d="M3.55082 16.1265C3.77062 16.1265 3.94881 15.9483 3.94881 15.7285V11.0843C3.94881 9.3013 4.61971 7.59131 5.81391 6.33053C7.00812 5.06974 8.6278 4.36144 10.3167 4.36144C12.0055 4.36144 13.6252 5.06974 14.8194 6.33053C16.0136 7.59131 16.6845 9.3013 16.6845 11.0843V15.7285C16.6845 15.9483 16.8627 16.1265 17.0825 16.1265C17.3023 16.1265 17.4805 16.3047 17.4805 16.5245V16.9668C17.4805 17.431 17.1043 17.8072 16.6401 17.8072H3.99319C3.52907 17.8072 3.15283 17.431 3.15283 16.9668V16.5245C3.15283 16.3047 3.33101 16.1265 3.55082 16.1265ZM5.54077 14.0065C5.54077 15.1773 6.48993 16.1265 7.66077 16.1265H12.9726C14.1434 16.1265 15.0926 15.1773 15.0926 14.0065V11.0843C15.0926 9.74706 14.5894 8.46457 13.6937 7.51898C12.7981 6.57339 11.5833 6.04216 10.3167 6.04216C9.05002 6.04216 7.83525 6.57339 6.9396 7.51898C6.04395 8.46457 5.54077 9.74706 5.54077 11.0843V14.0065ZM9.52068 1.79598C9.52068 1.35637 9.87706 1 10.3167 1C10.7563 1 11.1126 1.35637 11.1126 1.79598V2.7251C11.1126 3.16471 10.7563 3.52108 10.3167 3.52108C9.87706 3.52108 9.52068 3.16471 9.52068 2.7251V1.79598ZM15.9145 3.98614C16.2368 3.64582 16.7788 3.64582 17.1011 3.98614C17.3996 4.30128 17.3997 4.79478 17.1013 5.10999L16.539 5.70386C16.2167 6.04427 15.6748 6.04443 15.3523 5.70421C15.0535 5.389 15.0534 4.89518 15.3521 4.57988L15.9145 3.98614ZM3.53232 5.11C3.23377 4.79481 3.23377 4.30119 3.53232 3.986C3.85463 3.64573 4.39648 3.64566 4.71886 3.98586L5.28172 4.57982C5.5802 4.89479 5.58052 5.3881 5.28244 5.70346C4.96018 6.04442 4.41767 6.04471 4.09504 5.70409L3.53232 5.11ZM7.13274 11.0843C6.69313 11.0843 6.32942 10.7251 6.40803 10.2926C6.55702 9.47279 6.93532 8.71195 7.50244 8.1132C8.04918 7.53598 8.73861 7.14405 9.4832 6.97568C9.93588 6.87331 10.3167 7.25876 10.3167 7.72288C10.3167 8.187 9.92821 8.54965 9.49533 8.71706C9.17251 8.8419 8.8759 9.04007 8.62813 9.30165C8.36038 9.58433 8.16277 9.92723 8.04715 10.3002C7.91699 10.7201 7.57235 11.0843 7.13274 11.0843Z" fill="#D0D0D0"/>
</svg>
