<svg width="53" height="61" viewBox="0 0 53 61" fill="none" xmlns="http://www.w3.org/2000/svg">
<path d="M41.6772 7.20861C41.6772 4.88472 35.4595 3 27.7888 3C20.1182 3 13.9004 4.88472 13.9004 7.20861C13.9004 7.3001 13.915 7.39525 13.9333 7.48674L13.9004 13.979V20.7933C13.9004 28.9726 19.3057 35.7064 26.0285 36.0906C26.0322 36.1858 26.0505 36.2809 26.0944 36.3724C27.1191 38.4804 27.7046 40.9214 27.7046 43.5234C27.7046 43.6332 27.701 43.7393 27.6973 43.8491C27.4741 45.9242 26.8922 47.9187 26.314 49.4887C21.9407 49.9608 18.7019 51.6552 18.7019 53.6753C18.7019 56.0614 23.2106 57.9937 28.7769 57.9937C34.3433 57.9937 38.852 56.0614 38.852 53.6753C38.852 51.6076 35.4631 49.8802 30.9361 49.4594C30.2408 47.6479 29.8529 45.6424 29.8529 43.5271C29.8529 40.9251 30.4384 38.4841 31.4631 36.3761C31.5583 36.1785 31.5546 35.9699 31.4814 35.7869C37.282 34.334 41.6736 28.1492 41.6736 20.7969V7.20861H41.6772Z" fill="white" stroke="white" stroke-width="4.02563" stroke-miterlimit="10"/>
<path d="M28.8646 57.9937C34.4289 57.9937 38.9397 56.0603 38.9397 53.6753C38.9397 51.2903 34.4289 49.3569 28.8646 49.3569C23.3003 49.3569 18.7896 51.2903 18.7896 53.6753C18.7896 56.0603 23.3003 57.9937 28.8646 57.9937Z" fill="white" stroke="black" stroke-width="1.35" stroke-miterlimit="10"/>
<path d="M36.0742 55.0187C36.0742 55.0187 39.1446 53.9098 36.8903 52.4606C34.8043 50.8869 30.3834 50.3746 26.4932 50.3892C26.4932 50.3892 36.3779 51.1614 36.0742 55.0187Z" fill="#FF5520"/>
<path d="M29.9369 43.5238C29.9369 40.9218 30.5225 38.4808 31.5472 36.3728C31.785 35.8824 31.4154 35.3079 30.8701 35.3079H26.8591C26.3138 35.3079 25.9442 35.8788 26.1821 36.3728C27.2068 38.4808 27.7923 40.9218 27.7923 43.5238C27.7923 47.0078 26.742 50.2063 24.989 52.7022C24.7804 52.9987 24.7951 53.4159 25.0622 53.6611C25.688 54.2283 27.1556 54.6235 28.861 54.6235C30.5664 54.6235 32.0339 54.2283 32.6597 53.6611C32.9305 53.4159 32.9415 52.9987 32.7329 52.7022C30.9799 50.2063 29.9296 47.0078 29.9296 43.5238H29.9369Z" fill="white"/>
<path d="M29.6917 36.4238C29.6917 36.4238 26.9982 50.2207 31.2397 53.9902C31.2397 53.9902 25.6441 55.5931 24.989 52.7056C24.989 52.7056 30.6103 42.3817 26.1784 36.3762L29.688 36.4275L29.6917 36.4238Z" fill="#FF5520"/>
<path d="M29.9369 43.5238C29.9369 40.9218 30.5225 38.4808 31.5472 36.3728C31.785 35.8824 31.4154 35.3079 30.8701 35.3079H26.8591C26.3138 35.3079 25.9442 35.8788 26.1821 36.3728C27.2068 38.4808 27.7923 40.9218 27.7923 43.5238C27.7923 47.0078 26.742 50.2063 24.989 52.7022C24.7804 52.9987 24.7951 53.4159 25.0622 53.6611C25.688 54.2283 27.1556 54.6235 28.861 54.6235C30.5664 54.6235 32.0339 54.2283 32.6597 53.6611C32.9305 53.4159 32.9415 52.9987 32.7329 52.7022C30.9799 50.2063 29.9296 47.0078 29.9296 43.5238H29.9369Z" stroke="black" stroke-width="1.35" stroke-miterlimit="10"/>
<path d="M41.5968 13.9792V20.7935C41.5968 29.2181 35.8658 36.1092 28.8612 36.1092H26.7203C19.7157 36.1092 13.9846 29.2181 13.9846 20.7935V13.9792" fill="white"/>
<path d="M41.5968 13.9792V20.7935C41.5968 29.2181 35.8658 36.1092 28.8612 36.1092H26.7203C19.7157 36.1092 13.9846 29.2181 13.9846 20.7935V13.9792" stroke="black" stroke-width="0.988109" stroke-miterlimit="10"/>
<path d="M38.9359 13.9792V20.541C38.9359 36.6362 27.0127 35.2821 27.0127 35.2821C21.3988 35.2821 16.8059 28.6472 16.8059 20.541V13.9792" fill="#FF5520"/>
<path d="M27.7889 18.188C35.4128 18.188 41.5931 16.3037 41.5931 13.9794C41.5931 11.655 35.4128 9.77075 27.7889 9.77075C20.165 9.77075 13.9846 11.655 13.9846 13.9794C13.9846 16.3037 20.165 18.188 27.7889 18.188Z" fill="#FF5520" stroke="black" stroke-width="1.35" stroke-miterlimit="10"/>
<path d="M38.4457 15.5419C38.4457 15.5419 41.5162 14.433 39.2619 12.9838C37.1758 11.4101 32.755 10.8978 28.8647 10.9124C28.8647 10.9124 38.7495 11.6846 38.4457 15.5419Z" fill="white"/>
<path d="M17.4574 12.5227C17.4574 12.5227 14.9176 13.4413 16.784 14.638C18.5114 15.9408 22.1674 16.3653 25.3842 16.3507C25.3842 16.3507 17.2049 15.7139 17.4574 12.519V12.5227Z" fill="white"/>
<path d="M21.7539 53.2034C21.7539 53.2034 19.7594 53.9243 21.2233 54.8649C22.581 55.8859 25.4502 56.2189 27.9753 56.2116C27.9753 56.2116 21.5563 55.7102 21.7539 53.2034Z" fill="#FF5520"/>
<path d="M41.7578 7.48706V20.7972C41.7578 29.2218 35.9938 36.1129 28.949 36.1129H26.7934C19.7486 36.1129 13.9846 29.2218 13.9846 20.7972V7.48706" stroke="black" stroke-width="1.35" stroke-miterlimit="10"/>
<path d="M27.873 11.4172C35.5434 11.4172 41.7615 9.53296 41.7615 7.20861C41.7615 4.88426 35.5434 3 27.873 3C20.2027 3 13.9846 4.88426 13.9846 7.20861C13.9846 9.53296 20.2027 11.4172 27.873 11.4172Z" stroke="black" stroke-width="1.35" stroke-miterlimit="10"/>
<path d="M26.4932 52.2776C28.1656 52.8668 29.6222 52.9436 31.2361 52.2776C30.2187 53.9281 27.5545 53.8366 26.4932 52.2776Z" fill="white"/>
<path d="M30.9397 24.4166C32.9649 24.4166 34.6067 21.9113 34.6067 18.821C34.6067 15.7306 32.9649 13.2253 30.9397 13.2253C28.9145 13.2253 27.2727 15.7306 27.2727 18.821C27.2727 21.9113 28.9145 24.4166 30.9397 24.4166Z" fill="white" stroke="#040000" stroke-width="0.731933" stroke-miterlimit="10"/>
<path d="M25.2161 24.4166C27.2413 24.4166 28.883 21.9113 28.883 18.821C28.883 15.7306 27.2413 13.2253 25.2161 13.2253C23.1908 13.2253 21.5491 15.7306 21.5491 18.821C21.5491 21.9113 23.1908 24.4166 25.2161 24.4166Z" fill="white" stroke="#040000" stroke-width="0.731933" stroke-miterlimit="10"/>
<path d="M26.398 19.0379C25.6551 19.0379 24.9708 18.7854 24.4291 18.3645C24.3633 18.6719 24.3267 19.0013 24.3267 19.3416C24.3267 21.0873 25.2526 22.5036 26.398 22.5036C27.5435 22.5036 28.4694 21.0873 28.4694 19.3416C28.4694 19.0013 28.4328 18.6719 28.3669 18.3645C27.8253 18.7854 27.1409 19.0379 26.398 19.0379Z" fill="black"/>
<path d="M25.6294 20H24.1692C23.7447 20 23.4006 20.3441 23.4006 20.7685V20.8966C23.4006 21.3211 23.7447 21.6651 24.1692 21.6651H25.6294C26.0538 21.6651 26.3979 21.3211 26.3979 20.8966V20.7685C26.3979 20.3441 26.0538 20 25.6294 20Z" fill="white"/>
<path d="M32.5355 19.0379C31.7926 19.0379 31.1082 18.7854 30.5666 18.3645C30.5007 18.6719 30.4641 19.0013 30.4641 19.3416C30.4641 21.0873 31.39 22.5036 32.5355 22.5036C33.681 22.5036 34.6069 21.0873 34.6069 19.3416C34.6069 19.0013 34.5703 18.6719 34.5044 18.3645C33.9628 18.7854 33.2784 19.0379 32.5355 19.0379Z" fill="black"/>
<path d="M31.7668 20H30.3066C29.8822 20 29.5381 20.3441 29.5381 20.7685V20.8966C29.5381 21.3211 29.8822 21.6651 30.3066 21.6651H31.7668C32.1913 21.6651 32.5353 21.3211 32.5353 20.8966V20.7685C32.5353 20.3441 32.1913 20 31.7668 20Z" fill="white"/>
<path d="M33.9663 26.9784C33.8785 26.9784 33.7906 26.9528 33.7175 26.8979C33.5198 26.7588 33.4759 26.488 33.6113 26.294L35.6607 23.3883C35.7998 23.1906 36.0706 23.1467 36.2646 23.2858C36.4622 23.4249 36.5061 23.6957 36.3707 23.8896L34.3213 26.7954C34.2371 26.9162 34.1017 26.9784 33.9663 26.9784Z" fill="white"/>
<path d="M33.9664 27.4143C33.7871 27.4143 33.6114 27.3594 33.465 27.257C33.2747 27.1252 33.1503 26.9239 33.11 26.697C33.0698 26.4701 33.121 26.2396 33.2564 26.0493L35.3058 23.1435C35.5803 22.7519 36.1256 22.6604 36.5172 22.9349C36.7075 23.0703 36.8319 23.2679 36.8722 23.4948C36.9124 23.7217 36.8612 23.9523 36.7258 24.1426L34.6764 27.0484C34.5154 27.2789 34.2482 27.4143 33.9664 27.4143Z" fill="white"/>
<path d="M33.9663 26.9784C33.8785 26.9784 33.7906 26.9528 33.7175 26.8979C33.5198 26.7588 33.4759 26.488 33.6113 26.294L35.6607 23.3883C35.7998 23.1906 36.0706 23.1467 36.2646 23.2858C36.4622 23.4249 36.5061 23.6957 36.3707 23.8896L34.3213 26.7954C34.2371 26.9162 34.1017 26.9784 33.9663 26.9784Z" fill="#FF5520"/>
<path d="M32.0376 26.9784C31.9498 26.9784 31.8619 26.9528 31.7887 26.8979C31.5911 26.7588 31.5472 26.488 31.6826 26.294L33.732 23.3883C33.8711 23.1906 34.1419 23.1467 34.3359 23.2858C34.5335 23.4249 34.5774 23.6957 34.442 23.8896L32.3926 26.7954C32.3084 26.9162 32.173 26.9784 32.0376 26.9784Z" fill="white"/>
<path d="M32.0374 27.4143C31.8581 27.4143 31.6825 27.3594 31.5361 27.257C31.3458 27.1252 31.2213 26.9239 31.1811 26.697C31.1408 26.4701 31.1921 26.2396 31.3275 26.0493L33.3769 23.1435C33.6514 22.7519 34.1967 22.6604 34.5882 22.9349C34.7785 23.0703 34.903 23.2679 34.9432 23.4948C34.9835 23.7217 34.9322 23.9523 34.7968 24.1426L32.7474 27.0484C32.5864 27.2789 32.3192 27.4143 32.0374 27.4143Z" fill="white"/>
<path d="M32.0376 26.9784C31.9498 26.9784 31.8619 26.9528 31.7887 26.8979C31.5911 26.7588 31.5472 26.488 31.6826 26.294L33.732 23.3883C33.8711 23.1906 34.1419 23.1467 34.3359 23.2858C34.5335 23.4249 34.5774 23.6957 34.442 23.8896L32.3926 26.7954C32.3084 26.9162 32.173 26.9784 32.0376 26.9784Z" fill="#FF5520"/>
<path d="M32.1256 26.1915L28.6635 28.1897C27.8181 28.6764 26.7605 28.0689 26.7605 27.0918V23.0955C26.7605 22.1183 27.8181 21.5108 28.6635 21.9976L32.1256 23.9957C32.9709 24.4825 32.9709 25.7048 32.1256 26.1915Z" fill="white" stroke="#060001" stroke-width="0.731933" stroke-miterlimit="10"/>
<path d="M21.4905 26.9784C21.4027 26.9784 21.3148 26.9528 21.2416 26.8979C21.044 26.7588 21.0001 26.488 21.1355 26.294L23.1849 23.3883C23.324 23.1906 23.5948 23.1467 23.7888 23.2858C23.9864 23.4249 24.0303 23.6957 23.8949 23.8896L21.8455 26.7954C21.7613 26.9162 21.6259 26.9784 21.4905 26.9784Z" fill="white"/>
<path d="M21.4903 27.4143C21.311 27.4143 21.1353 27.3594 20.989 27.257C20.7987 27.1252 20.6742 26.9239 20.634 26.697C20.5937 26.4701 20.6449 26.2396 20.7804 26.0493L22.8298 23.1435C23.1042 22.7519 23.6495 22.6604 24.0411 22.9349C24.2314 23.0703 24.3558 23.2679 24.3961 23.4948C24.4364 23.7217 24.3851 23.9523 24.2497 24.1426L22.2003 27.0484C22.0393 27.2789 21.7721 27.4143 21.4903 27.4143Z" fill="white"/>
<path d="M21.4905 26.9784C21.4027 26.9784 21.3148 26.9528 21.2416 26.8979C21.044 26.7588 21.0001 26.488 21.1355 26.294L23.1849 23.3883C23.324 23.1906 23.5948 23.1467 23.7888 23.2858C23.9864 23.4249 24.0303 23.6957 23.8949 23.8896L21.8455 26.7954C21.7613 26.9162 21.6259 26.9784 21.4905 26.9784Z" fill="#FF5520"/>
<path d="M19.5618 26.9784C19.4739 26.9784 19.3861 26.9528 19.3129 26.8979C19.1153 26.7588 19.0714 26.488 19.2068 26.294L21.2562 23.3883C21.3953 23.1906 21.6661 23.1467 21.86 23.2858C22.0577 23.4249 22.1016 23.6957 21.9662 23.8896L19.9168 26.7954C19.8326 26.9162 19.6972 26.9784 19.5618 26.9784Z" fill="white"/>
<path d="M19.5619 27.4143C19.3825 27.4143 19.2069 27.3594 19.0605 27.257C18.8702 27.1252 18.7458 26.9239 18.7055 26.697C18.6652 26.4701 18.7165 26.2396 18.8519 26.0493L20.9013 23.1435C21.1758 22.7519 21.7211 22.6604 22.1126 22.9349C22.303 23.0703 22.4274 23.2679 22.4676 23.4948C22.5079 23.7217 22.4567 23.9523 22.3213 24.1426L20.2718 27.0484C20.1108 27.2789 19.8437 27.4143 19.5619 27.4143Z" fill="white"/>
<path d="M19.5618 26.9784C19.4739 26.9784 19.3861 26.9528 19.3129 26.8979C19.1153 26.7588 19.0714 26.488 19.2068 26.294L21.2562 23.3883C21.3953 23.1906 21.6661 23.1467 21.86 23.2858C22.0577 23.4249 22.1016 23.6957 21.9662 23.8896L19.9168 26.7954C19.8326 26.9162 19.6972 26.9784 19.5618 26.9784Z" fill="#FF5520"/>
<path d="M7.03116 17.0355C8.52076 17.0355 9.72833 15.8279 9.72833 14.3383C9.72833 12.8487 8.52076 11.6411 7.03116 11.6411C5.54155 11.6411 4.33398 12.8487 4.33398 14.3383C4.33398 15.8279 5.54155 17.0355 7.03116 17.0355Z" fill="#FF5520" stroke="white" stroke-width="0.9" stroke-miterlimit="10"/>
<path d="M2.11254 12.0212C2.72698 12.0212 3.22508 11.5231 3.22508 10.9087C3.22508 10.2942 2.72698 9.79614 2.11254 9.79614C1.4981 9.79614 1 10.2942 1 10.9087C1 11.5231 1.4981 12.0212 2.11254 12.0212Z" fill="#FF5520" stroke="white" stroke-width="0.9" stroke-miterlimit="10"/>
<path d="M43.185 43.4983C43.7995 43.4983 44.2976 43.0002 44.2976 42.3857C44.2976 41.7713 43.7995 41.2732 43.185 41.2732C42.5706 41.2732 42.0725 41.7713 42.0725 42.3857C42.0725 43.0002 42.5706 43.4983 43.185 43.4983Z" fill="#FF5520" stroke="white" stroke-width="0.9" stroke-miterlimit="10"/>
<path d="M45.2708 36.3876L42.7493 37.3317C42.3943 37.4635 41.9771 37.2329 41.8197 36.8084C41.6623 36.3875 41.8197 35.9374 42.1784 35.802L44.6999 34.8578C45.0549 34.7261 45.4721 34.9566 45.6294 35.3811C45.7868 35.8057 45.6294 36.2521 45.2708 36.3876Z" fill="#FF5520" stroke="white" stroke-width="0.9" stroke-miterlimit="10"/>
<path d="M51.1702 34.3343L48.6487 35.2785C48.2937 35.4103 47.8765 35.1797 47.7191 34.7552C47.5618 34.3343 47.7191 33.8842 48.0778 33.7488L50.5993 32.8046C50.9543 32.6728 51.3715 32.9034 51.5288 33.3279C51.6862 33.7524 51.5288 34.1989 51.1702 34.3343Z" fill="#FF5520" stroke="white" stroke-width="0.9" stroke-miterlimit="10"/>
<path d="M45.2817 33.3464L44.3376 30.8249C44.2058 30.47 44.4364 30.0528 44.8609 29.8954C45.2817 29.738 45.7319 29.8954 45.8673 30.254L46.8115 32.7755C46.9432 33.1305 46.7127 33.5477 46.2882 33.7051C45.8636 33.8625 45.4172 33.7051 45.2817 33.3464Z" fill="#FF5520" stroke="white" stroke-width="0.9" stroke-miterlimit="10"/>
<path d="M47.6204 39.8313L46.6762 37.3098C46.5444 36.9548 46.775 36.5376 47.1995 36.3803C47.6204 36.2229 48.0705 36.3803 48.2059 36.7389L49.1501 39.2604C49.2819 39.6154 49.0513 40.0326 48.6268 40.19C48.2023 40.3473 47.7558 40.19 47.6204 39.8313Z" fill="#FF5520" stroke="white" stroke-width="0.9" stroke-miterlimit="10"/>
</svg>
