<svg width="174" height="80" viewBox="0 0 174 80" fill="none" xmlns="http://www.w3.org/2000/svg">
<rect width="174" height="80" rx="8" fill="#89A7E2" fill-opacity="0.1"/>
<rect x="0.5" y="0.5" width="173" height="79" rx="7.5" stroke="#5373B1" stroke-opacity="0.7"/>
<mask id="mask0_1783_3541" style="mask-type:alpha" maskUnits="userSpaceOnUse" x="0" y="0" width="174" height="80">
<rect width="174" height="80" rx="8" fill="#FFDAD2"/>
</mask>
<g mask="url(#mask0_1783_3541)">
<path d="M195.5 39.5C195.5 65.9815 173.59 87.5 146.5 87.5C119.41 87.5 97.5 65.9815 97.5 39.5C97.5 13.0185 119.41 -8.5 146.5 -8.5C173.59 -8.5 195.5 13.0185 195.5 39.5Z" fill="#6A87EC" stroke="white" stroke-width="3"/>
</g>
<path d="M154.677 17.2086C154.677 14.8847 148.459 13 140.789 13C133.118 13 126.9 14.8847 126.9 17.2086C126.9 17.3001 126.915 17.3953 126.933 17.4867L126.9 23.979V30.7933C126.9 38.9726 132.306 45.7064 139.029 46.0906C139.032 46.1858 139.05 46.2809 139.094 46.3724C140.119 48.4804 140.705 50.9214 140.705 53.5234C140.705 53.6332 140.701 53.7393 140.697 53.8491C140.474 55.9242 139.892 57.9187 139.314 59.4887C134.941 59.9608 131.702 61.6552 131.702 63.6753C131.702 66.0614 136.211 67.9937 141.777 67.9937C147.343 67.9937 151.852 66.0614 151.852 63.6753C151.852 61.6076 148.463 59.8802 143.936 59.4594C143.241 57.6479 142.853 55.6424 142.853 53.5271C142.853 50.9251 143.438 48.4841 144.463 46.3761C144.558 46.1785 144.555 45.9699 144.481 45.7869C150.282 44.334 154.674 38.1492 154.674 30.7969V17.2086H154.677Z" fill="white" stroke="white" stroke-width="4.02563" stroke-miterlimit="10"/>
<path d="M141.865 67.9937C147.429 67.9937 151.94 66.0603 151.94 63.6753C151.94 61.2903 147.429 59.3569 141.865 59.3569C136.3 59.3569 131.79 61.2903 131.79 63.6753C131.79 66.0603 136.3 67.9937 141.865 67.9937Z" fill="white" stroke="black" stroke-width="1.35" stroke-miterlimit="10"/>
<path d="M149.074 65.0187C149.074 65.0187 152.145 63.9098 149.89 62.4606C147.804 60.8869 143.383 60.3746 139.493 60.3892C139.493 60.3892 149.378 61.1614 149.074 65.0187Z" fill="#FF5520"/>
<path d="M142.937 53.5238C142.937 50.9218 143.522 48.4808 144.547 46.3728C144.785 45.8824 144.415 45.3079 143.87 45.3079H139.859C139.314 45.3079 138.944 45.8788 139.182 46.3728C140.207 48.4808 140.792 50.9218 140.792 53.5238C140.792 57.0078 139.742 60.2063 137.989 62.7022C137.78 62.9987 137.795 63.4159 138.062 63.6611C138.688 64.2283 140.156 64.6235 141.861 64.6235C143.566 64.6235 145.034 64.2283 145.66 63.6611C145.931 63.4159 145.941 62.9987 145.733 62.7022C143.98 60.2063 142.93 57.0078 142.93 53.5238H142.937Z" fill="white"/>
<path d="M142.692 46.4238C142.692 46.4238 139.998 60.2207 144.24 63.9902C144.24 63.9902 138.644 65.5931 137.989 62.7056C137.989 62.7056 143.61 52.3817 139.178 46.3762L142.688 46.4275L142.692 46.4238Z" fill="#FF5520"/>
<path d="M142.937 53.5238C142.937 50.9218 143.522 48.4808 144.547 46.3728C144.785 45.8824 144.415 45.3079 143.87 45.3079H139.859C139.314 45.3079 138.944 45.8788 139.182 46.3728C140.207 48.4808 140.792 50.9218 140.792 53.5238C140.792 57.0078 139.742 60.2063 137.989 62.7022C137.78 62.9987 137.795 63.4159 138.062 63.6611C138.688 64.2283 140.156 64.6235 141.861 64.6235C143.566 64.6235 145.034 64.2283 145.66 63.6611C145.931 63.4159 145.941 62.9987 145.733 62.7022C143.98 60.2063 142.93 57.0078 142.93 53.5238H142.937Z" stroke="black" stroke-width="1.35" stroke-miterlimit="10"/>
<path d="M154.597 23.9792V30.7935C154.597 39.2181 148.866 46.1092 141.861 46.1092H139.72C132.716 46.1092 126.985 39.2181 126.985 30.7935V23.9792" fill="white"/>
<path d="M154.597 23.9792V30.7935C154.597 39.2181 148.866 46.1092 141.861 46.1092H139.72C132.716 46.1092 126.985 39.2181 126.985 30.7935V23.9792" stroke="black" stroke-width="0.988109" stroke-miterlimit="10"/>
<path d="M151.936 23.9792V30.541C151.936 46.6362 140.013 45.2821 140.013 45.2821C134.399 45.2821 129.806 38.6472 129.806 30.541V23.9792" fill="#FF5520"/>
<path d="M140.789 28.188C148.413 28.188 154.593 26.3037 154.593 23.9794C154.593 21.655 148.413 19.7708 140.789 19.7708C133.165 19.7708 126.985 21.655 126.985 23.9794C126.985 26.3037 133.165 28.188 140.789 28.188Z" fill="#FF5520" stroke="black" stroke-width="1.35" stroke-miterlimit="10"/>
<path d="M151.446 25.5419C151.446 25.5419 154.516 24.433 152.262 22.9838C150.176 21.4101 145.755 20.8978 141.865 20.9124C141.865 20.9124 151.749 21.6846 151.446 25.5419Z" fill="white"/>
<path d="M130.457 22.5227C130.457 22.5227 127.918 23.4413 129.784 24.638C131.511 25.9408 135.167 26.3653 138.384 26.3507C138.384 26.3507 130.205 25.7139 130.457 22.519V22.5227Z" fill="white"/>
<path d="M134.754 63.2034C134.754 63.2034 132.759 63.9243 134.223 64.8649C135.581 65.8859 138.45 66.2189 140.975 66.2116C140.975 66.2116 134.556 65.7102 134.754 63.2034Z" fill="#FF5520"/>
<path d="M154.758 17.4871V30.7972C154.758 39.2218 148.994 46.1129 141.949 46.1129H139.793C132.749 46.1129 126.985 39.2218 126.985 30.7972V17.4871" stroke="black" stroke-width="1.35" stroke-miterlimit="10"/>
<path d="M140.873 21.4172C148.543 21.4172 154.761 19.533 154.761 17.2086C154.761 14.8843 148.543 13 140.873 13C133.203 13 126.985 14.8843 126.985 17.2086C126.985 19.533 133.203 21.4172 140.873 21.4172Z" stroke="black" stroke-width="1.35" stroke-miterlimit="10"/>
<path d="M139.493 62.2776C141.166 62.8668 142.622 62.9436 144.236 62.2776C143.219 63.9281 140.554 63.8366 139.493 62.2776Z" fill="white"/>
<path d="M143.94 34.4166C145.965 34.4166 147.607 31.9113 147.607 28.821C147.607 25.7306 145.965 23.2253 143.94 23.2253C141.914 23.2253 140.273 25.7306 140.273 28.821C140.273 31.9113 141.914 34.4166 143.94 34.4166Z" fill="white" stroke="#040000" stroke-width="0.731933" stroke-miterlimit="10"/>
<path d="M138.216 34.4166C140.241 34.4166 141.883 31.9113 141.883 28.821C141.883 25.7306 140.241 23.2253 138.216 23.2253C136.191 23.2253 134.549 25.7306 134.549 28.821C134.549 31.9113 136.191 34.4166 138.216 34.4166Z" fill="white" stroke="#040000" stroke-width="0.731933" stroke-miterlimit="10"/>
<path d="M139.398 29.0379C138.655 29.0379 137.971 28.7854 137.429 28.3645C137.363 28.6719 137.327 29.0013 137.327 29.3416C137.327 31.0873 138.253 32.5036 139.398 32.5036C140.544 32.5036 141.469 31.0873 141.469 29.3416C141.469 29.0013 141.433 28.6719 141.367 28.3645C140.825 28.7854 140.141 29.0379 139.398 29.0379Z" fill="black"/>
<path d="M138.629 30H137.169C136.745 30 136.401 30.3441 136.401 30.7685V30.8966C136.401 31.3211 136.745 31.6651 137.169 31.6651H138.629C139.054 31.6651 139.398 31.3211 139.398 30.8966V30.7685C139.398 30.3441 139.054 30 138.629 30Z" fill="white"/>
<path d="M145.535 29.0379C144.793 29.0379 144.108 28.7854 143.567 28.3645C143.501 28.6719 143.464 29.0013 143.464 29.3416C143.464 31.0873 144.39 32.5036 145.535 32.5036C146.681 32.5036 147.607 31.0873 147.607 29.3416C147.607 29.0013 147.57 28.6719 147.504 28.3645C146.963 28.7854 146.278 29.0379 145.535 29.0379Z" fill="black"/>
<path d="M144.767 30H143.307C142.882 30 142.538 30.3441 142.538 30.7685V30.8966C142.538 31.3211 142.882 31.6651 143.307 31.6651H144.767C145.191 31.6651 145.535 31.3211 145.535 30.8966V30.7685C145.535 30.3441 145.191 30 144.767 30Z" fill="white"/>
<path d="M146.966 36.9784C146.878 36.9784 146.791 36.9528 146.717 36.8979C146.52 36.7588 146.476 36.488 146.611 36.294L148.661 33.3883C148.8 33.1906 149.071 33.1467 149.265 33.2858C149.462 33.4249 149.506 33.6957 149.371 33.8896L147.321 36.7954C147.237 36.9162 147.102 36.9784 146.966 36.9784Z" fill="white"/>
<path d="M146.966 37.4143C146.787 37.4143 146.611 37.3594 146.465 37.257C146.275 37.1252 146.15 36.9239 146.11 36.697C146.07 36.4701 146.121 36.2396 146.256 36.0493L148.306 33.1435C148.58 32.7519 149.126 32.6604 149.517 32.9349C149.707 33.0703 149.832 33.2679 149.872 33.4948C149.912 33.7217 149.861 33.9523 149.726 34.1426L147.676 37.0484C147.515 37.2789 147.248 37.4143 146.966 37.4143Z" fill="white"/>
<path d="M146.966 36.9784C146.878 36.9784 146.791 36.9528 146.717 36.8979C146.52 36.7588 146.476 36.488 146.611 36.294L148.661 33.3883C148.8 33.1906 149.071 33.1467 149.265 33.2858C149.462 33.4249 149.506 33.6957 149.371 33.8896L147.321 36.7954C147.237 36.9162 147.102 36.9784 146.966 36.9784Z" fill="#FF5520"/>
<path d="M145.038 36.9784C144.95 36.9784 144.862 36.9528 144.789 36.8979C144.591 36.7588 144.547 36.488 144.683 36.294L146.732 33.3883C146.871 33.1906 147.142 33.1467 147.336 33.2858C147.533 33.4249 147.577 33.6957 147.442 33.8896L145.393 36.7954C145.308 36.9162 145.173 36.9784 145.038 36.9784Z" fill="white"/>
<path d="M145.037 37.4143C144.858 37.4143 144.682 37.3594 144.536 37.257C144.346 37.1252 144.221 36.9239 144.181 36.697C144.141 36.4701 144.192 36.2396 144.327 36.0493L146.377 33.1435C146.651 32.7519 147.197 32.6604 147.588 32.9349C147.779 33.0703 147.903 33.2679 147.943 33.4948C147.983 33.7217 147.932 33.9523 147.797 34.1426L145.747 37.0484C145.586 37.2789 145.319 37.4143 145.037 37.4143Z" fill="white"/>
<path d="M145.038 36.9784C144.95 36.9784 144.862 36.9528 144.789 36.8979C144.591 36.7588 144.547 36.488 144.683 36.294L146.732 33.3883C146.871 33.1906 147.142 33.1467 147.336 33.2858C147.533 33.4249 147.577 33.6957 147.442 33.8896L145.393 36.7954C145.308 36.9162 145.173 36.9784 145.038 36.9784Z" fill="#FF5520"/>
<path d="M145.126 36.1915L141.664 38.1897C140.818 38.6764 139.76 38.0689 139.76 37.0918V33.0955C139.76 32.1183 140.818 31.5108 141.664 31.9976L145.126 33.9957C145.971 34.4825 145.971 35.7048 145.126 36.1915Z" fill="white" stroke="#060001" stroke-width="0.731933" stroke-miterlimit="10"/>
<path d="M134.49 36.9784C134.403 36.9784 134.315 36.9528 134.242 36.8979C134.044 36.7588 134 36.488 134.135 36.294L136.185 33.3883C136.324 33.1906 136.595 33.1467 136.789 33.2858C136.986 33.4249 137.03 33.6957 136.895 33.8896L134.845 36.7954C134.761 36.9162 134.626 36.9784 134.49 36.9784Z" fill="white"/>
<path d="M134.49 37.4143C134.311 37.4143 134.135 37.3594 133.989 37.257C133.799 37.1252 133.674 36.9239 133.634 36.697C133.594 36.4701 133.645 36.2396 133.78 36.0493L135.83 33.1435C136.104 32.7519 136.65 32.6604 137.041 32.9349C137.231 33.0703 137.356 33.2679 137.396 33.4948C137.436 33.7217 137.385 33.9523 137.25 34.1426L135.2 37.0484C135.039 37.2789 134.772 37.4143 134.49 37.4143Z" fill="white"/>
<path d="M134.49 36.9784C134.403 36.9784 134.315 36.9528 134.242 36.8979C134.044 36.7588 134 36.488 134.135 36.294L136.185 33.3883C136.324 33.1906 136.595 33.1467 136.789 33.2858C136.986 33.4249 137.03 33.6957 136.895 33.8896L134.845 36.7954C134.761 36.9162 134.626 36.9784 134.49 36.9784Z" fill="#FF5520"/>
<path d="M132.562 36.9784C132.474 36.9784 132.386 36.9528 132.313 36.8979C132.115 36.7588 132.071 36.488 132.207 36.294L134.256 33.3883C134.395 33.1906 134.666 33.1467 134.86 33.2858C135.058 33.4249 135.102 33.6957 134.966 33.8896L132.917 36.7954C132.833 36.9162 132.697 36.9784 132.562 36.9784Z" fill="white"/>
<path d="M132.562 37.4143C132.383 37.4143 132.207 37.3594 132.06 37.257C131.87 37.1252 131.746 36.9239 131.706 36.697C131.665 36.4701 131.716 36.2396 131.852 36.0493L133.901 33.1435C134.176 32.7519 134.721 32.6604 135.113 32.9349C135.303 33.0703 135.427 33.2679 135.468 33.4948C135.508 33.7217 135.457 33.9523 135.321 34.1426L133.272 37.0484C133.111 37.2789 132.844 37.4143 132.562 37.4143Z" fill="white"/>
<path d="M132.562 36.9784C132.474 36.9784 132.386 36.9528 132.313 36.8979C132.115 36.7588 132.071 36.488 132.207 36.294L134.256 33.3883C134.395 33.1906 134.666 33.1467 134.86 33.2858C135.058 33.4249 135.102 33.6957 134.966 33.8896L132.917 36.7954C132.833 36.9162 132.697 36.9784 132.562 36.9784Z" fill="#FF5520"/>
<path d="M120.031 27.0355C121.521 27.0355 122.728 25.8279 122.728 24.3383C122.728 22.8487 121.521 21.6411 120.031 21.6411C118.542 21.6411 117.334 22.8487 117.334 24.3383C117.334 25.8279 118.542 27.0355 120.031 27.0355Z" fill="#FF5520" stroke="white" stroke-width="0.9" stroke-miterlimit="10"/>
<path d="M115.113 22.0212C115.727 22.0212 116.225 21.5231 116.225 20.9087C116.225 20.2942 115.727 19.7961 115.113 19.7961C114.498 19.7961 114 20.2942 114 20.9087C114 21.5231 114.498 22.0212 115.113 22.0212Z" fill="#FF5520" stroke="white" stroke-width="0.9" stroke-miterlimit="10"/>
<path d="M156.185 53.4983C156.799 53.4983 157.298 53.0002 157.298 52.3857C157.298 51.7713 156.799 51.2732 156.185 51.2732C155.571 51.2732 155.073 51.7713 155.073 52.3857C155.073 53.0002 155.571 53.4983 156.185 53.4983Z" fill="#FF5520" stroke="white" stroke-width="0.9" stroke-miterlimit="10"/>
<path d="M158.271 46.3876L155.749 47.3317C155.394 47.4635 154.977 47.2329 154.82 46.8084C154.662 46.3875 154.82 45.9374 155.178 45.802L157.7 44.8578C158.055 44.7261 158.472 44.9566 158.629 45.3811C158.787 45.8057 158.629 46.2521 158.271 46.3876Z" fill="#FF5520" stroke="white" stroke-width="0.9" stroke-miterlimit="10"/>
<path d="M164.17 44.3343L161.649 45.2785C161.294 45.4103 160.876 45.1797 160.719 44.7552C160.562 44.3343 160.719 43.8842 161.078 43.7488L163.599 42.8046C163.954 42.6728 164.371 42.9034 164.529 43.3279C164.686 43.7524 164.529 44.1989 164.17 44.3343Z" fill="#FF5520" stroke="white" stroke-width="0.9" stroke-miterlimit="10"/>
<path d="M158.282 43.3464L157.338 40.8249C157.206 40.47 157.436 40.0528 157.861 39.8954C158.282 39.738 158.732 39.8954 158.867 40.254L159.811 42.7755C159.943 43.1305 159.713 43.5477 159.288 43.7051C158.864 43.8625 158.417 43.7051 158.282 43.3464Z" fill="#FF5520" stroke="white" stroke-width="0.9" stroke-miterlimit="10"/>
<path d="M160.62 49.8313L159.676 47.3098C159.544 46.9548 159.775 46.5376 160.2 46.3803C160.62 46.2229 161.071 46.3803 161.206 46.7389L162.15 49.2604C162.282 49.6154 162.051 50.0326 161.627 50.19C161.202 50.3473 160.756 50.19 160.62 49.8313Z" fill="#FF5520" stroke="white" stroke-width="0.9" stroke-miterlimit="10"/>
</svg>
