<svg width="24" height="24" viewBox="0 0 24 24" fill="none" xmlns="http://www.w3.org/2000/svg">
<path d="M12.5 1V3" stroke="#4F4F4F" stroke-width="2" stroke-linecap="round" stroke-linejoin="round"/>
<path d="M15.2482 20.1992C14.9467 20.6033 14.5519 20.9321 14.0959 21.1587C13.6399 21.3853 13.1356 21.5035 12.6241 21.5035C12.1126 21.5035 11.6083 21.3853 11.1523 21.1587C10.6963 20.9321 10.3015 20.6033 10 20.1992" stroke="#4F4F4F" stroke-width="2" stroke-linecap="round" stroke-linejoin="round"/>
<path d="M15.5 18H20.1303C20.9292 18 21.4258 17.0958 21.0415 16.3954C20.2848 15.0166 19.3563 13.0235 19.3585 11.5489V10.766V10.7101C19.3585 8.93049 18.636 6.22374 17.3499 4.96535C16.0638 3.70696 14.3194 3 12.5006 3C10.6817 3 8.93737 3.70696 7.65126 4.96535C6.36514 6.22374 5.6426 8.93049 5.6426 10.7101V11.5489C5.64465 13.0235 4.71586 15.0165 3.95897 16.3953C3.57448 17.0957 4.07105 18 4.87006 18H9.5M15.5 18H9.5Z" stroke="#4F4F4F" stroke-width="2" stroke-linecap="round" stroke-linejoin="round"/>
<circle cx="22" cy="2" r="2" fill="#FF5520"/>
</svg>
