<svg width="24" height="24" viewBox="0 0 24 24" fill="none" xmlns="http://www.w3.org/2000/svg">
<mask id="path-1-outside-1_1190_3558" maskUnits="userSpaceOnUse" x="1.00024" y="1" width="22" height="22" fill="black">
<rect fill="white" x="1.00024" y="1" width="22" height="22"/>
<path fill-rule="evenodd" clip-rule="evenodd" d="M10.73 4C10.2193 4 9.78585 4.35378 9.70629 4.83556L9.51705 5.97422C9.46225 6.30667 9.23242 6.584 8.92551 6.74667C8.8571 6.78311 8.78871 6.82133 8.72218 6.86044C8.42187 7.03467 8.05556 7.08889 7.72402 6.97067L6.59159 6.56533C6.35922 6.48204 6.10417 6.48019 5.87187 6.56012C5.63957 6.64005 5.44512 6.79657 5.32316 7.00178L4.13548 8.99911C4.01389 9.20409 3.97248 9.44428 4.01861 9.677C4.06475 9.90972 4.19543 10.1199 4.38745 10.2702L5.32579 11.0062C5.59869 11.2196 5.73607 11.5502 5.73236 11.8862C5.73154 11.9618 5.73217 12.0373 5.73425 12.1129C5.74355 12.4498 5.61167 12.7813 5.34232 12.9947L4.4162 13.7298C4.22645 13.8801 4.09911 14.0905 4.05684 14.3234C4.01457 14.5563 4.06011 14.7967 4.18536 15.0018L5.40623 16.9991C5.53172 17.204 5.72867 17.3602 5.96208 17.4399C6.19549 17.5197 6.45022 17.5178 6.68098 17.4347L7.80761 17.0293C8.13718 16.9111 8.50439 16.9653 8.8076 17.1396C8.87525 17.1785 8.94366 17.2161 9.01281 17.2524C9.32244 17.416 9.55687 17.6933 9.6172 18.0258L9.82444 19.1644C9.912 19.6462 10.3513 20 10.862 20H13.2706C13.7813 20 14.2147 19.6462 14.2943 19.1636L14.4826 18.0258C14.5383 17.6933 14.7681 17.416 15.0741 17.2533C15.1427 17.2167 15.2105 17.1787 15.2775 17.1396C15.5787 16.9653 15.945 16.9111 16.2756 17.0293L17.409 17.4347C17.6412 17.5177 17.8961 17.5194 18.1282 17.4395C18.3603 17.3596 18.5546 17.2032 18.6765 16.9982L19.8651 15.0009C20.116 14.5778 20.0094 14.0409 19.6131 13.7298L18.6739 12.9938C18.401 12.7804 18.2636 12.4498 18.2673 12.1138C18.2681 12.0382 18.2675 11.9627 18.2654 11.8871C18.2561 11.5502 18.388 11.2187 18.6583 11.0053L19.5834 10.2702C19.7732 10.1199 19.9005 9.90951 19.9428 9.67659C19.9851 9.44367 19.9395 9.20329 19.8143 8.99822L18.5943 7.00089C18.4688 6.79584 18.2717 6.63951 18.0381 6.55974C17.8045 6.47998 17.5495 6.48196 17.3187 6.56533L16.192 6.97067C15.8634 7.08889 15.4953 7.03467 15.193 6.86044C15.1249 6.82133 15.0568 6.78311 14.9878 6.74756C14.6781 6.584 14.4437 6.30667 14.3824 5.97422L14.1752 4.83556C14.0876 4.35378 13.6483 4 13.1376 4H10.73ZM14.6919 14.6927C15.4063 13.9782 15.8076 13.0092 15.8076 11.9988C15.8076 10.9884 15.4063 10.0194 14.6919 9.305C13.9774 8.59055 13.0085 8.18917 11.9981 8.18917C10.9878 8.18917 10.0188 8.59055 9.30438 9.305C8.58996 10.0194 8.1886 10.9884 8.1886 11.9988C8.1886 13.0092 8.58996 13.9782 9.30438 14.6927C10.0188 15.4071 10.9878 15.8085 11.9981 15.8085C13.0085 15.8085 13.9774 15.4071 14.6919 14.6927Z"/>
</mask>
<path d="M9.70629 4.83556L11.7195 5.17013L11.7198 5.16807L9.70629 4.83556ZM9.51705 5.97422L7.50388 5.63965L7.50345 5.64227L9.51705 5.97422ZM8.92551 6.74667L7.96981 4.94349L7.96595 4.94555L8.92551 6.74667ZM8.72218 6.86044L9.74626 8.62572L9.75645 8.61973L8.72218 6.86044ZM7.72402 6.97067L7.03629 8.89208L7.03857 8.89289L7.72402 6.97067ZM6.59159 6.56533L5.90295 8.48642L5.90386 8.48674L6.59159 6.56533ZM5.87187 6.56012L5.20788 4.63038L5.20788 4.63038L5.87187 6.56012ZM5.32316 7.00178L7.07725 8.04482L7.0775 8.0444L5.32316 7.00178ZM4.13548 8.99911L2.38138 7.95607L2.38026 7.95796L4.13548 8.99911ZM4.01861 9.677L6.02044 9.28017L6.02044 9.28017L4.01861 9.677ZM4.38745 10.2702L5.64695 8.66447L5.64541 8.66326L4.38745 10.2702ZM5.32579 11.0062L4.06629 12.612L4.06892 12.614L5.32579 11.0062ZM5.73236 11.8862L3.69171 11.8637L3.69171 11.864L5.73236 11.8862ZM5.73425 12.1129L3.69424 12.169L3.69424 12.1692L5.73425 12.1129ZM5.34232 12.9947L4.07524 11.3949L4.07355 11.3962L5.34232 12.9947ZM4.4162 13.7298L5.68364 15.3293L5.68497 15.3282L4.4162 13.7298ZM4.05684 14.3234L6.06482 14.6878L6.06482 14.6878L4.05684 14.3234ZM4.18536 15.0018L2.44373 16.0655L2.44411 16.0661L4.18536 15.0018ZM5.40623 16.9991L3.66498 18.0635L3.66599 18.0651L5.40623 16.9991ZM5.96208 17.4399L6.62192 15.5087H6.62192L5.96208 17.4399ZM6.68098 17.4347L5.99011 15.5144L5.9893 15.5147L6.68098 17.4347ZM7.80761 17.0293L7.11854 15.1084L7.11674 15.1091L7.80761 17.0293ZM8.8076 17.1396L9.82492 15.3704L9.82432 15.3701L8.8076 17.1396ZM9.01281 17.2524L9.96602 15.4479L9.9625 15.4461L9.01281 17.2524ZM9.6172 18.0258L7.60922 18.3902L7.6094 18.3912L9.6172 18.0258ZM9.82444 19.1644L11.8323 18.7995L11.8322 18.799L9.82444 19.1644ZM14.2943 19.1636L12.2809 18.8303L12.2807 18.8317L14.2943 19.1636ZM14.4826 18.0258L12.4699 17.6884L12.4692 17.6925L14.4826 18.0258ZM15.0741 17.2533L16.0321 19.0553L16.0366 19.0529L15.0741 17.2533ZM15.2775 17.1396L14.2557 15.3729L14.2471 15.378L15.2775 17.1396ZM16.2756 17.0293L16.9628 15.1077L16.9628 15.1077L16.2756 17.0293ZM17.409 17.4347L16.7218 19.3563L16.7218 19.3563L17.409 17.4347ZM18.1282 17.4395L18.7926 19.3691L18.7926 19.3691L18.1282 17.4395ZM18.6765 16.9982L16.9227 15.9546L16.9225 15.955L18.6765 16.9982ZM19.8651 15.0009L21.6188 16.0445L21.6205 16.0418L19.8651 15.0009ZM19.6131 13.7298L20.8733 12.1246L20.8718 12.1234L19.6131 13.7298ZM18.6739 12.9938L19.9326 11.3874L19.9307 11.386L18.6739 12.9938ZM18.2673 12.1138L16.2266 12.0905L16.2266 12.0913L18.2673 12.1138ZM18.2654 11.8871L16.2254 11.9434L16.2254 11.9443L18.2654 11.8871ZM18.6583 11.0053L19.9227 12.6072L19.9278 12.6032L18.6583 11.0053ZM19.5834 10.2702L18.316 8.67072L18.3139 8.6724L19.5834 10.2702ZM19.9428 9.67659L17.9348 9.31218L17.9348 9.31219L19.9428 9.67659ZM19.8143 8.99822L21.5559 7.9345L21.5559 7.93447L19.8143 8.99822ZM18.5943 7.00089L20.3359 5.93713L20.3349 5.93547L18.5943 7.00089ZM18.0381 6.55974L17.3787 8.49106H17.3787L18.0381 6.55974ZM17.3187 6.56533L18.0095 8.48562L18.0118 8.4848L17.3187 6.56533ZM16.192 6.97067L16.8828 8.89097L16.8829 8.89095L16.192 6.97067ZM15.193 6.86044L16.212 5.09231L16.2093 5.09072L15.193 6.86044ZM14.9878 6.74756L14.0346 8.55205C14.0407 8.55529 14.0468 8.5585 14.053 8.56168L14.9878 6.74756ZM14.3824 5.97422L12.3746 6.33964L12.3755 6.34405L14.3824 5.97422ZM14.1752 4.83556L12.1673 5.20051L12.1674 5.20097L14.1752 4.83556ZM14.6919 14.6927L16.1349 16.1357L16.1349 16.1357L14.6919 14.6927ZM14.6919 9.305L16.1349 7.86197L16.1349 7.86197L14.6919 9.305ZM9.30438 9.305L7.86131 7.86197L7.86131 7.86197L9.30438 9.305ZM9.30438 14.6927L7.86131 16.1357L7.86131 16.1357L9.30438 14.6927ZM11.7198 5.16807C11.6257 5.73793 11.1494 6.04078 10.73 6.04078V1.95922C9.2892 1.95922 7.94602 2.96962 7.69278 4.50304L11.7198 5.16807ZM11.5302 6.3088L11.7195 5.17013L7.69312 4.50098L7.50388 5.63965L11.5302 6.3088ZM9.88121 8.54984C10.638 8.14876 11.353 7.38369 11.5307 6.30618L7.50345 5.64227C7.57147 5.22964 7.8269 5.01924 7.96982 4.94349L9.88121 8.54984ZM9.75645 8.61973C9.79731 8.59571 9.84075 8.5714 9.88507 8.54779L7.96595 4.94555C7.87346 4.99482 7.78011 5.04696 7.68792 5.10116L9.75645 8.61973ZM7.03857 8.89289C8.01299 9.24036 9.00273 9.05702 9.74625 8.62569L7.69812 5.0952C7.84101 5.01231 8.09812 4.93742 8.40948 5.04844L7.03857 8.89289ZM5.90386 8.48674L7.03629 8.89208L8.41176 5.04926L7.27932 4.64392L5.90386 8.48674ZM6.53586 8.48986C6.32712 8.56169 6.10508 8.55887 5.90295 8.48642L7.28023 4.64425C6.61337 4.4052 5.88122 4.3987 5.20788 4.63038L6.53586 8.48986ZM7.0775 8.0444C6.94479 8.2677 6.74607 8.41753 6.53586 8.48986L5.20788 4.63038C4.53307 4.86257 3.94544 5.32543 3.56881 5.95915L7.0775 8.0444ZM5.88957 10.0422L7.07725 8.04482L3.56906 5.95874L2.38138 7.95607L5.88957 10.0422ZM6.02044 9.28017C6.0726 9.54327 6.0244 9.81486 5.8907 10.0403L2.38026 7.95796C2.00338 8.59332 1.87237 9.34528 2.01679 10.0738L6.02044 9.28017ZM5.64541 8.66326C5.82652 8.80504 5.96867 9.01903 6.02044 9.28017L2.01679 10.0738C2.16082 10.8004 2.56434 11.4348 3.1295 11.8772L5.64541 8.66326ZM6.58529 9.40047L5.64695 8.66447L3.12796 11.876L4.0663 12.612L6.58529 9.40047ZM7.77302 11.9087C7.78286 11.0174 7.41678 10.0505 6.58267 9.39841L4.06892 12.614C3.7806 12.3886 3.68929 12.0831 3.69171 11.8637L7.77302 11.9087ZM7.77426 12.0567C7.7729 12.0073 7.77249 11.9579 7.77302 11.9085L3.69171 11.864C3.6906 11.9657 3.69144 12.0674 3.69424 12.169L7.77426 12.0567ZM6.60939 14.5945C7.45044 13.9283 7.79878 12.9453 7.77425 12.0566L3.69424 12.1692C3.68831 11.9543 3.7729 11.6343 4.07524 11.3949L6.60939 14.5945ZM5.68497 15.3282L6.61109 14.5931L4.07355 11.3962L3.14743 12.1313L5.68497 15.3282ZM6.06482 14.6878C6.01634 14.955 5.87291 15.1793 5.68364 15.3293L3.14876 12.1303C2.57999 12.581 2.18188 13.226 2.04886 13.959L6.06482 14.6878ZM5.92699 13.9381C6.05835 14.1531 6.11343 14.42 6.06482 14.6878L2.04886 13.959C1.91571 14.6927 2.06187 15.4403 2.44373 16.0655L5.92699 13.9381ZM7.14749 15.9348L5.92661 13.9374L2.44411 16.0661L3.66498 18.0635L7.14749 15.9348ZM6.62192 15.5087C6.82533 15.5782 7.01647 15.7209 7.14648 15.9331L3.66599 18.0651C4.04696 18.6871 4.63202 19.1421 5.30224 19.3711L6.62192 15.5087ZM5.9893 15.5147C6.19737 15.4397 6.41932 15.4395 6.62192 15.5087L5.30224 19.3711C5.97166 19.5998 6.70308 19.5959 7.37266 19.3547L5.9893 15.5147ZM7.11674 15.1091L5.99011 15.5144L7.37185 19.3549L8.49848 18.9496L7.11674 15.1091ZM9.82432 15.3701C9.0859 14.9458 8.09632 14.7577 7.11854 15.1084L8.49669 18.9503C8.17803 19.0646 7.92288 18.9849 7.79088 18.909L9.82432 15.3701ZM9.9625 15.4461C9.91609 15.4217 9.87022 15.3965 9.82492 15.3704L7.79028 18.9087C7.88027 18.9604 7.97123 19.0105 8.06313 19.0588L9.9625 15.4461ZM11.6252 17.6614C11.4315 16.594 10.7137 15.8429 9.96601 15.448L8.05961 19.0569C7.93118 18.9891 7.68226 18.7927 7.60922 18.3902L11.6252 17.6614ZM11.8322 18.799L11.625 17.6604L7.6094 18.3912L7.81664 19.5299L11.8322 18.799ZM10.862 17.9592C11.2748 17.9592 11.7325 18.2503 11.8323 18.7995L7.81655 19.5294C8.09151 21.0422 9.42787 22.0408 10.862 22.0408V17.9592ZM13.2706 17.9592H10.862V22.0408H13.2706V17.9592ZM12.2807 18.8317C12.3744 18.2631 12.8501 17.9592 13.2706 17.9592V22.0408C14.7124 22.0408 16.0551 21.0293 16.3079 19.4954L12.2807 18.8317ZM12.4692 17.6925L12.2809 18.8303L16.3077 19.4968L16.496 18.359L12.4692 17.6925ZM14.1162 15.4514C13.361 15.8528 12.6497 16.6161 12.4699 17.6884L16.4953 18.3632C16.427 18.7705 16.1753 18.9792 16.0321 19.0553L14.1162 15.4514ZM14.2471 15.378C14.2025 15.4041 14.1574 15.4293 14.1117 15.4537L16.0366 19.0529C16.128 19.004 16.2184 18.9534 16.3079 18.9011L14.2471 15.378ZM16.9628 15.1077C15.9869 14.7587 14.9972 14.9441 14.2558 15.3729L16.2992 18.9062C16.1602 18.9865 15.9032 19.0635 15.5885 18.9509L16.9628 15.1077ZM18.0962 15.5131L16.9628 15.1077L15.5884 18.9509L16.7218 19.3563L18.0962 15.5131ZM17.4637 15.5099C17.6723 15.4381 17.8942 15.4408 18.0962 15.5131L16.7218 19.3563C17.3883 19.5946 18.1198 19.6008 18.7926 19.3691L17.4637 15.5099ZM16.9225 15.955C17.0551 15.732 17.2537 15.5823 17.4637 15.5099L18.7926 19.3691C19.4668 19.137 20.054 18.6745 20.4305 18.0414L16.9225 15.955ZM18.1114 13.9572L16.9228 15.9546L20.4302 18.0419L21.6188 16.0445L18.1114 13.9572ZM18.3529 15.335C17.9742 15.0377 17.8182 14.4516 18.1097 13.96L21.6205 16.0418C22.4137 14.704 22.0446 13.0441 20.8733 12.1246L18.3529 15.335ZM17.4151 14.6001L18.3544 15.3361L20.8718 12.1234L19.9326 11.3874L17.4151 14.6001ZM16.2266 12.0913C16.2168 12.9826 16.5829 13.9495 17.417 14.6016L19.9307 11.386C20.219 11.6114 20.3104 11.9169 20.3079 12.1363L16.2266 12.0913ZM16.2254 11.9443C16.2268 11.993 16.2272 12.0418 16.2266 12.0905L20.3079 12.137C20.3091 12.0347 20.3082 11.9323 20.3054 11.8299L16.2254 11.9443ZM17.3939 9.40343C16.5497 10.0697 16.2008 11.0542 16.2254 11.9434L20.3054 11.8308C20.3113 12.0463 20.2262 12.3676 19.9226 12.6072L17.3939 9.40343ZM18.3139 8.6724L17.3887 9.40752L19.9278 12.6032L20.853 11.868L18.3139 8.6724ZM17.9348 9.31219C17.9833 9.04504 18.1267 8.8207 18.316 8.67072L20.8509 11.8697C21.4197 11.419 21.8178 10.774 21.9508 10.041L17.9348 9.31219ZM18.0727 10.0619C17.9413 9.84687 17.8862 9.58 17.9348 9.31218L21.9508 10.041C22.0839 9.30735 21.9378 8.55972 21.5559 7.9345L18.0727 10.0619ZM16.8527 8.06464L18.0727 10.062L21.5559 7.93447L20.3359 5.93713L16.8527 8.06464ZM17.3787 8.49106C17.1751 8.42155 16.9838 8.27879 16.8537 8.06631L20.3349 5.93547C19.9538 5.31288 19.3683 4.85746 18.6975 4.62843L17.3787 8.49106ZM18.0118 8.4848C17.8036 8.55998 17.5815 8.56029 17.3787 8.49106L18.6975 4.62843C18.0275 4.39968 17.2955 4.40394 16.6255 4.64587L18.0118 8.4848ZM16.8829 8.89095L18.0095 8.48562L16.6278 4.64505L15.5012 5.05038L16.8829 8.89095ZM14.1739 8.62858C14.913 9.05455 15.9052 9.24266 16.8828 8.89097L15.5012 5.05036C15.8216 4.93512 16.0775 5.01478 16.212 5.09231L14.1739 8.62858ZM14.053 8.56168C14.081 8.57608 14.1178 8.59634 14.1767 8.63017L16.2093 5.09072C16.132 5.04632 16.0326 4.99014 15.9225 4.93343L14.053 8.56168ZM12.3755 6.34405C12.5713 7.40688 13.2862 8.15672 14.0346 8.55205L15.941 4.94306C16.0701 5.01128 16.3161 5.20646 16.3894 5.6044L12.3755 6.34405ZM12.1674 5.20097L12.3746 6.33964L16.3902 5.60881L16.183 4.47014L12.1674 5.20097ZM13.1376 6.04078C12.7248 6.04078 12.2671 5.74971 12.1673 5.20051L16.1831 4.4706C15.9081 2.95785 14.5718 1.95922 13.1376 1.95922V6.04078ZM10.73 6.04078H13.1376V1.95922H10.73V6.04078ZM13.7669 11.9988C13.7669 12.468 13.5805 12.9179 13.2488 13.2496L16.1349 16.1357C17.2321 15.0385 17.8484 13.5504 17.8484 11.9988H13.7669ZM13.2488 10.748C13.5805 11.0797 13.7669 11.5297 13.7669 11.9988H17.8484C17.8484 10.4472 17.2321 8.95915 16.1349 7.86197L13.2488 10.748ZM11.9981 10.23C12.4672 10.23 12.9171 10.4163 13.2488 10.748L16.1349 7.86197C15.0378 6.76479 13.5497 6.14839 11.9981 6.14839V10.23ZM10.7475 10.748C11.0792 10.4163 11.529 10.23 11.9981 10.23V6.14839C10.4465 6.14839 8.95845 6.76479 7.86131 7.86197L10.7475 10.748ZM10.2294 11.9988C10.2294 11.5297 10.4157 11.0797 10.7475 10.748L7.86131 7.86197C6.76417 8.95915 6.14782 10.4472 6.14782 11.9988H10.2294ZM10.7475 13.2496C10.4157 12.9179 10.2294 12.468 10.2294 11.9988H6.14782C6.14782 13.5504 6.76417 15.0385 7.86131 16.1357L10.7475 13.2496ZM11.9981 13.7677C11.529 13.7677 11.0792 13.5814 10.7475 13.2496L7.86131 16.1357C8.95845 17.2329 10.4465 17.8493 11.9981 17.8493V13.7677ZM13.2488 13.2496C12.9171 13.5814 12.4672 13.7677 11.9981 13.7677V17.8493C13.5497 17.8493 15.0378 17.2329 16.1349 16.1357L13.2488 13.2496Z" fill="#9A9A9E" mask="url(#path-1-outside-1_1190_3558)"/>
</svg>
