<svg width="24" height="24" viewBox="0 0 24 24" fill="none" xmlns="http://www.w3.org/2000/svg">
<path d="M16.5713 7.61993C17.8574 8.90603 19.6579 12.3601 16.5713 15.8877" stroke="white" stroke-width="1.92667" stroke-linecap="round"/>
<path d="M19.8784 4.31287C22.0831 6.5176 24.8391 12.5806 19.8784 18.6436" stroke="white" stroke-width="1.92667" stroke-linecap="round"/>
<path d="M22.5 20.5L4 2" stroke="white" stroke-width="2" stroke-linecap="round"/>
<path fill-rule="evenodd" clip-rule="evenodd" d="M5.10344 6.51765H1.88305C1.37351 6.51765 0.960449 6.93072 0.960449 7.44025V11.4783V16.6187C0.960449 17.1282 1.37351 17.5413 1.88305 17.5413H8.49179C8.69596 17.5413 8.89436 17.609 9.05591 17.7339L11.5997 19.6995C12.2062 20.1682 13.0865 19.7359 13.0865 18.9695V14.5007L11.1598 12.574V16.9247L10.234 16.2093C9.73504 15.8238 9.12232 15.6146 8.49179 15.6146H2.88712V11.4783V8.44432H7.03011L5.10344 6.51765ZM11.1598 9.74558V6.03182L9.06486 7.65064L7.69135 6.27713L11.5997 3.25701C12.2062 2.7884 13.0865 3.22065 13.0865 3.98705L13.0865 11.6722L11.1598 9.74558Z" fill="white"/>
</svg>
