<svg width="40" height="50" viewBox="0 0 40 50" fill="none" xmlns="http://www.w3.org/2000/svg">
<g clip-path="url(#clip0_1258_4738)">
<path d="M36.0621 11.0802C35.8874 11.0183 35.7127 10.9771 35.5339 10.9482L36.1244 9.30644C36.848 7.29341 35.7876 5.06587 33.7541 4.34811L26.768 1.87306C24.7386 1.1553 22.4931 2.20719 21.7695 4.22023L20.5053 7.73067L20.5469 7.74304L17.8938 15.1104C17.8273 15.1187 17.7649 15.131 17.6984 15.1517L13.095 16.4593C12.937 16.5047 12.7623 16.4676 12.6334 16.3644L8.93658 13.3449C8.53737 13.019 7.99261 12.9448 7.52271 13.1551C7.04865 13.3655 6.74508 13.8193 6.72845 14.3308L6.55795 19.0787C6.55379 19.2437 6.46647 19.3964 6.32508 19.483L2.28724 22.0364C1.8506 22.3128 1.61357 22.8037 1.67179 23.3152C1.73001 23.8267 2.06684 24.2557 2.55338 24.429L7.05281 26.0542C7.21083 26.112 7.32726 26.2399 7.36885 26.4007L8.57064 31.0002C8.69955 31.4993 9.09876 31.8747 9.60609 31.9778C9.69757 31.9985 9.79322 32.0067 9.8847 32.0067C10.2964 32.0067 10.6873 31.8211 10.9451 31.4911L12.8913 29.0243L9.74747 37.7653L12.9661 47.187C13.1366 47.6861 13.5192 48.0698 14.0182 48.2471C14.2095 48.3131 14.4049 48.3461 14.6004 48.3461C14.9164 48.3461 15.2324 48.2595 15.5111 48.0863L24.0192 42.8185L30.3692 25.1715L31.4919 24.9817C32.4193 24.825 32.9058 23.8721 32.5981 23.0718C34.5484 23.0883 36.7066 21.2238 37.7545 18.4311C38.9771 15.164 38.2203 11.8722 36.0662 11.0802H36.0621Z" fill="white" stroke="white" stroke-width="3.75959" stroke-miterlimit="10"/>
<path d="M10.1299 37.6455L13.3527 47.063C13.6313 47.8757 14.6002 48.2181 15.3362 47.7643L23.8444 42.5007" fill="white"/>
<path d="M14.6251 48.3503C14.4297 48.3503 14.2342 48.3173 14.0429 48.2513C13.5439 48.074 13.1614 47.6862 12.9909 47.1912L9.76807 37.7737L10.4916 37.5303L13.7144 46.9478C13.8101 47.2242 14.0221 47.4428 14.3008 47.5377C14.5794 47.6367 14.8829 47.6037 15.1324 47.4469L23.6406 42.1834L24.044 42.8269L15.5358 48.0905C15.2572 48.2637 14.9412 48.3503 14.6251 48.3503Z" fill="black"/>
<path d="M12.1426 42.7695L13.7602 47.4804C13.9016 47.8887 14.384 48.0579 14.7541 47.831L19.0165 45.1992" fill="#FF5520"/>
<path d="M14.0011 48.3691L14.0022 48.3695L15.5358 48.0905L15.6016 48.1968L15.6016 48.1967C15.6017 48.1967 15.6018 48.1966 15.6018 48.1966L24.1097 42.9332L24.2167 42.867L24.1499 42.7605L23.7465 42.117L23.6805 42.0117L23.5748 42.0771L15.0667 47.3406L15.066 47.3411C14.849 47.4774 14.5854 47.5062 14.3426 47.4199L14.3411 47.4194C14.1005 47.3375 13.9162 47.1485 13.8326 46.9071C13.8326 46.9071 13.8326 46.907 13.8325 46.9069L10.6099 37.4898L10.5696 37.3722L10.4518 37.4118L9.72822 37.6552L9.60911 37.6952L9.6498 37.8141L12.8726 47.2317L12.8727 47.2319C13.0556 47.7629 13.4663 48.179 14.0011 48.3691Z" fill="black" stroke="black" stroke-width="0.25"/>
<path d="M28.066 2.77396L32.2211 4.24573C34.8137 5.16402 36.1683 8.00036 35.2426 10.5721L23.8095 42.3346L10.2553 37.5337L21.6884 5.77119C22.6141 3.19942 25.4734 1.85566 28.066 2.77396Z" fill="#FF5520"/>
<path d="M10.9091 37.233L22.7103 4.44839L22.7103 4.44832C23.244 2.96296 24.8979 2.18696 26.3976 2.71712L33.5625 5.25402L33.5625 5.25404C35.0612 5.78386 35.8416 7.42419 35.308 8.90955L10.9091 37.233ZM10.9091 37.233L23.5069 41.6941L35.308 8.90962L10.9091 37.233ZM24.0022 42.9407L24.0762 42.9669L24.132 42.9116L24.1361 42.9075L24.1562 42.8876L24.1657 42.861L36.2626 9.24584L36.2626 9.24581C36.9849 7.23702 35.9228 5.01649 33.8996 4.3006C33.8996 4.30059 33.8996 4.30059 33.8996 4.30059L26.7346 1.76368L26.7346 1.76367C24.7118 1.04796 22.4736 2.09967 21.7515 4.108L9.6546 37.7273L9.61206 37.8455L9.7305 37.8875L24.0022 42.9407Z" fill="black" stroke="black" stroke-width="0.25"/>
<path d="M26.6584 2.62117L33.4139 5.01401C35.1225 5.61916 36.0116 7.48564 35.4032 9.1758L34.4337 11.8691L21.4922 7.28519L22.4617 4.59188C23.0701 2.90172 24.9499 2.01601 26.6584 2.62117Z" fill="#FFD503" stroke="black" stroke-width="0.65"/>
<path d="M25.2842 8.91551L25.2371 8.89883L25.2202 8.94587L14.4062 39.0048L14.3893 39.0518L14.4364 39.0685L15.2354 39.3514L15.2825 39.3681L15.2995 39.321L26.1134 9.26208L26.1303 9.21504L26.0832 9.19835L25.2842 8.91551Z" fill="black" stroke="black" stroke-width="0.0999999"/>
<path d="M30.0418 10.5981L29.9946 10.5814L29.9777 10.6285L19.1638 40.6874L19.1469 40.7345L19.194 40.7511L19.993 41.034L20.0401 41.0507L20.057 41.0036L30.871 10.9447L30.8879 10.8977L30.8407 10.881L30.0418 10.5981Z" fill="black" stroke="black" stroke-width="0.0999999"/>
<path d="M8.69543 13.6747L12.3923 16.6942C12.6293 16.8881 12.9454 16.9541 13.2364 16.8675L17.8398 15.5598C18.58 15.3495 19.2412 16.0714 18.9585 16.7809L17.2036 21.2029C17.0913 21.4834 17.1287 21.8052 17.2992 22.0568L19.9773 25.9963C20.4056 26.6274 19.9191 27.4772 19.1497 27.4318L14.3717 27.143C14.0681 27.1265 13.7729 27.2544 13.5858 27.4937L10.6374 31.2351C10.1634 31.8374 9.19861 31.6394 9.00732 30.8969L7.80553 26.2974C7.73068 26.0045 7.51028 25.7653 7.22335 25.6621L2.72392 24.0369C2.00035 23.777 1.89223 22.8035 2.54095 22.3951L6.57879 19.8417C6.83661 19.6767 6.99879 19.4003 7.00711 19.0992L7.17761 14.3512C7.20671 13.5881 8.10078 13.1879 8.69543 13.6747Z" fill="#FFD503"/>
<path d="M10.0094 32.1111H9.90936C9.81251 32.1111 9.70965 32.1024 9.60978 32.08C9.06541 31.9689 8.64134 31.5655 8.49867 31.0303L8.49854 31.0298L7.29675 26.4304L7.29669 26.4301C7.26344 26.3015 7.17068 26.1992 7.04325 26.1526C7.04322 26.1525 7.04318 26.1525 7.04314 26.1525L2.54406 24.5274L2.54378 24.5273C2.02201 24.337 1.65964 23.8804 1.59709 23.3308C1.53449 22.7809 1.7897 22.253 2.25841 21.9563L2.25845 21.9563L6.29629 19.4028L6.29749 19.4021L6.29749 19.4021C6.4098 19.3333 6.47933 19.2119 6.48264 19.0806L6.48267 19.0795H6.48267L6.65316 14.3319C6.65316 14.3318 6.65316 14.3318 6.65316 14.3317C6.67113 13.7772 7.00243 13.2939 7.5065 13.0682L7.5068 13.0681C8.01482 12.8426 8.5958 12.9175 9.02475 13.272C9.02481 13.2721 9.02488 13.2721 9.02495 13.2722L12.7206 16.2907C12.7207 16.2908 12.7208 16.2909 12.7209 16.291C12.8252 16.3742 12.9623 16.4038 13.0926 16.3674C13.0926 16.3674 13.0927 16.3674 13.0927 16.3674L17.6957 15.0598L17.696 15.0598C18.2311 14.9093 18.794 15.0688 19.1689 15.4761C19.5441 15.8837 19.6516 16.4606 19.4461 16.975C19.4461 16.975 19.446 16.9751 19.446 16.9752L17.6913 21.397L17.6909 21.398C17.6416 21.5184 17.6575 21.6566 17.731 21.7661C17.7311 21.7662 17.7312 21.7663 17.7312 21.7664L20.4087 25.7051C20.4088 25.7051 20.4088 25.7052 20.4089 25.7053L20.4089 25.7054L20.3262 25.7616C20.6173 26.1865 20.6381 26.731 20.3803 27.1765C20.1225 27.622 19.6401 27.8819 19.1245 27.8489L10.0094 32.1111ZM10.0094 32.1111V32.1035V32.1111ZM8.10876 13.9855H8.13219L8.13928 13.982C8.22022 13.9865 8.29824 14.0156 8.36973 14.0742L8.36985 14.0743L12.0664 17.0937C12.0665 17.0937 12.0665 17.0937 12.0665 17.0937C12.4325 17.3948 12.9281 17.5012 13.3884 17.3683C13.3885 17.3683 13.3885 17.3683 13.3886 17.3683L17.9916 16.0607L17.9918 16.0607C18.1424 16.0175 18.2946 16.06 18.4022 16.1767C18.5085 16.292 18.5354 16.4451 18.4783 16.5921C18.4783 16.5922 18.4782 16.5923 18.4782 16.5924L16.7236 21.0139L16.7235 21.0142C16.5493 21.4572 16.6028 21.9539 16.871 22.3486L16.871 22.3486L19.5491 26.2881L19.5498 26.2891C19.6387 26.4165 19.6432 26.5726 19.566 26.7099C19.4847 26.8468 19.3456 26.9216 19.189 26.9117L19.1887 26.9117L14.4112 26.6229C14.411 26.6229 14.4109 26.6229 14.4108 26.6229C13.937 26.592 13.4731 26.8002 13.1785 27.1721L13.1784 27.1723L10.2301 30.9137C10.1325 31.0372 9.98362 31.0924 9.83064 31.0594L9.82861 31.059C9.67516 31.0292 9.55974 30.9215 9.51956 30.7688C9.51955 30.7688 9.51954 30.7688 9.51953 30.7687L8.31779 26.1694L8.31778 26.1694C8.19702 25.708 7.85713 25.3403 7.40687 25.1767L7.40669 25.1766L2.90726 23.5514L2.90722 23.5514C2.75976 23.4982 2.66086 23.3735 2.6442 23.2181L2.64417 23.2179C2.62741 23.0649 2.69384 22.9214 2.82618 22.8394L2.82693 22.8389L6.86477 20.2855L6.86519 20.2852C7.26679 20.0285 7.51714 19.5943 7.53502 19.1199L7.53502 19.1197L7.70552 14.3717L7.70553 14.3717L7.70556 14.3703C7.70887 14.2162 7.79697 14.0857 7.9408 14.0225C7.9965 13.9984 8.05363 13.9855 8.10876 13.9855Z" fill="black" stroke="black" stroke-width="0.2"/>
<path d="M37.7847 18.4349C39.0081 15.1698 38.2513 11.8781 36.0943 11.0828C33.9372 10.2875 31.1968 12.2896 29.9733 15.5548C28.7499 18.8199 29.5067 22.1115 31.6637 22.9069C33.8208 23.7022 36.5612 21.7001 37.7847 18.4349Z" fill="white" stroke="#040000" stroke-width="0.939897" stroke-miterlimit="10"/>
<path d="M35.7316 18.6905C36.4229 16.8454 35.9956 14.9855 34.7772 14.5363C33.5587 14.087 32.0105 15.2185 31.3192 17.0635C30.6278 18.9086 31.0551 20.7685 32.2736 21.2178C33.492 21.667 35.0402 20.5355 35.7316 18.6905Z" fill="black"/>
<path d="M33.8957 19.3679L35.451 19.9414C35.9031 20.108 36.4058 19.8796 36.5738 19.4312L36.6245 19.2958C36.7925 18.8474 36.5623 18.3487 36.1102 18.182L34.5549 17.6086C34.1029 17.4419 33.6002 17.6703 33.4321 18.1188L33.3814 18.2541C33.2134 18.7025 33.4436 19.2012 33.8957 19.3679Z" fill="white"/>
<path d="M31.6856 16.1879C32.909 12.9227 32.1522 9.63107 29.9951 8.83573C27.8381 8.04039 25.0977 10.0426 23.8742 13.3077C22.6507 16.5728 23.4076 19.8645 25.5646 20.6598C27.7217 21.4551 30.4621 19.453 31.6856 16.1879Z" fill="white" stroke="#040000" stroke-width="0.939897" stroke-miterlimit="10"/>
<path d="M29.6327 16.4434C30.324 14.5984 29.8967 12.7385 28.6783 12.2892C27.4598 11.8399 25.9116 12.9714 25.2203 14.8165C24.529 16.6615 24.9563 18.5214 26.1747 18.9707C27.3932 19.4199 28.9414 18.2884 29.6327 16.4434Z" fill="black"/>
<path d="M27.7964 17.1228L29.3516 17.6962C29.8037 17.8629 30.3064 17.6345 30.4744 17.1861L30.5251 17.0507C30.6932 16.6023 30.4629 16.1036 30.0108 15.9369L28.4556 15.3635C28.0035 15.1968 27.5008 15.4252 27.3328 15.8737L27.2821 16.009C27.114 16.4574 27.3443 16.9561 27.7964 17.1228Z" fill="white"/>
<path d="M31.5167 24.986L27.038 25.7368C25.9444 25.9224 25.0628 24.8623 25.4454 23.831L27.0256 19.6069C27.4123 18.5756 28.7763 18.3446 29.4874 19.1944L32.3816 22.6636C33.0886 23.5092 32.6062 24.8004 31.5125 24.9819L31.5167 24.986Z" fill="white" stroke="#060001" stroke-width="0.939897" stroke-miterlimit="10"/>
</g>
<defs>
<clipPath id="clip0_1258_4738">
<rect width="40" height="50" fill="white"/>
</clipPath>
</defs>
</svg>
