<svg width="30" height="29" viewBox="0 0 30 29" fill="none" xmlns="http://www.w3.org/2000/svg">
<path d="M20.6146 22.6387L16.1275 19.9463C15.4951 19.5669 14.7049 19.5669 14.0725 19.9463L9.58543 22.6387C9.55317 22.6581 9.53429 22.6584 9.52332 22.6577C9.50731 22.6566 9.4847 22.6499 9.46173 22.6331C9.43876 22.6164 9.42552 22.5969 9.41958 22.582C9.41551 22.5718 9.4101 22.5537 9.4187 22.517L10.6051 17.4613C10.7751 16.7366 10.5281 15.9776 9.96406 15.4918L6.01791 12.0933L5.40286 12.8074L6.01791 12.0933C5.98926 12.0686 5.98302 12.0507 5.98034 12.0402C5.97639 12.0246 5.97564 12.001 5.98444 11.9738C5.99324 11.9467 6.00771 11.928 6.02003 11.9177C6.02841 11.9107 6.04393 11.8999 6.08161 11.8967L11.2871 11.4577C12.024 11.3955 12.6663 10.9312 12.9563 10.2509L14.9969 5.46438C15.0116 5.43001 15.0266 5.41858 15.036 5.4127C15.0496 5.40417 15.0717 5.39628 15.1 5.39628C15.1283 5.39628 15.1504 5.40417 15.164 5.4127C15.1734 5.41858 15.1884 5.43001 15.2031 5.46438L17.2437 10.2509C17.5337 10.9312 18.176 11.3955 18.9129 11.4577L24.1184 11.8967C24.1561 11.8999 24.1716 11.9107 24.18 11.9177C24.1923 11.928 24.2068 11.9467 24.2156 11.9738C24.2244 12.001 24.2236 12.0246 24.2197 12.0402C24.217 12.0507 24.2107 12.0686 24.1821 12.0933L20.2359 15.4918C19.6719 15.9776 19.4249 16.7366 19.5949 17.4613L20.7813 22.517C20.7899 22.5537 20.7845 22.5718 20.7804 22.582C20.7745 22.5969 20.7612 22.6164 20.7383 22.6331C20.7153 22.6499 20.6927 22.6566 20.6767 22.6577C20.6657 22.6584 20.6468 22.6581 20.6146 22.6387Z" stroke="#FF5520" stroke-width="1.885"/>
</svg>
