<svg width="20" height="20" viewBox="0 0 20 20" fill="none" xmlns="http://www.w3.org/2000/svg">
<g clip-path="url(#clip0_1029_1566)">
<path fill-rule="evenodd" clip-rule="evenodd" d="M0.833252 7.34462C0.833252 4.22986 3.15883 1.59717 6.13273 1.59717C7.62489 1.59717 8.9166 2.21636 9.99992 3.33676C11.0832 2.21636 12.3749 1.59717 13.8671 1.59717C16.841 1.59717 19.1666 4.22987 19.1666 7.34462C19.1666 8.96466 18.912 10.2987 17.9632 11.7024C17.0578 13.0418 15.5521 14.3934 13.2159 16.1767L9.99992 18.4027L6.78365 16.1765C4.44758 14.3933 2.94205 13.0417 2.03668 11.7024C1.08779 10.2987 0.833252 8.96466 0.833252 7.34462Z" fill="#FF5520"/>
<path d="M9.99992 3.33676L9.28102 4.03187L9.99992 4.77538L10.7188 4.03187L9.99992 3.33676ZM17.9632 11.7024L17.1347 11.1424L17.1347 11.1424L17.9632 11.7024ZM13.2159 16.1767L13.7851 16.9989L13.8042 16.9857L13.8227 16.9716L13.2159 16.1767ZM9.99992 18.4027L9.43078 19.225L9.99992 19.6189L10.5691 19.225L9.99992 18.4027ZM6.78365 16.1765L6.17689 16.9714L6.19538 16.9855L6.21451 16.9987L6.78365 16.1765ZM2.03668 11.7024L2.86515 11.1424L2.86515 11.1424L2.03668 11.7024ZM6.13273 0.597168C2.51978 0.597168 -0.166748 3.76854 -0.166748 7.34462H1.83325C1.83325 4.69119 3.79788 2.59717 6.13273 2.59717V0.597168ZM10.7188 2.64165C9.47593 1.35621 7.93479 0.597168 6.13273 0.597168V2.59717C7.31499 2.59717 8.35728 3.07652 9.28102 4.03187L10.7188 2.64165ZM13.8671 0.59717C12.065 0.59717 10.5239 1.35621 9.28102 2.64165L10.7188 4.03187C11.6426 3.07652 12.6849 2.59717 13.8671 2.59717V0.59717ZM20.1666 7.34462C20.1666 3.76854 17.4801 0.59717 13.8671 0.59717V2.59717C16.202 2.59717 18.1666 4.6912 18.1666 7.34462H20.1666ZM18.7916 12.2624C19.8858 10.6438 20.1666 9.0946 20.1666 7.34462H18.1666C18.1666 8.83471 17.9383 9.9536 17.1347 11.1424L18.7916 12.2624ZM13.8227 16.9716C16.1628 15.1854 17.7866 13.7492 18.7916 12.2624L17.1347 11.1424C16.3289 12.3343 14.9415 13.6015 12.6092 15.3818L13.8227 16.9716ZM10.5691 19.225L13.7851 16.9989L12.6468 15.3545L9.43078 17.5805L10.5691 19.225ZM6.21451 16.9987L9.43078 19.225L10.5691 17.5805L7.35278 15.3542L6.21451 16.9987ZM1.20821 12.2624C2.21324 13.7492 3.83694 15.1853 6.17689 16.9714L7.3904 15.3816C5.05822 13.6014 3.67086 12.3342 2.86515 11.1424L1.20821 12.2624ZM-0.166748 7.34462C-0.166748 9.0946 0.114016 10.6438 1.20821 12.2624L2.86515 11.1424C2.06157 9.9536 1.83325 8.83471 1.83325 7.34462H-0.166748Z" fill="white"/>
</g>
<defs>
<clipPath id="clip0_1029_1566">
<rect width="20" height="20" fill="white"/>
</clipPath>
</defs>
</svg>
